  0
SECTION
  2
HEADER
  9
$ACADVER
  1
AC1032
  9
$ACADMAINTVER
 90
      155
  9
$DWGCODEPAGE
  3
ANSI_1252
  9
$REQUIREDVERSIONS
160
                 0
  9
$INSBASE
 10
0.0
 20
0.0
 30
0.0
  9
$EXTMIN
 10
1.000000000000000E+20
 20
1.000000000000000E+20
 30
1.000000000000000E+20
  9
$EXTMAX
 10
-1.000000000000000E+20
 20
-1.000000000000000E+20
 30
-1.000000000000000E+20
  9
$LIMMIN
 10
0.0
 20
0.0
  9
$LIMMAX
 10
12.0
 20
9.0
  9
$ORTHOMODE
 70
     0
  9
$REGENMODE
 70
     1
  9
$FILLMODE
 70
     1
  9
$QTEXTMODE
 70
     0
  9
$MIRRTEXT
 70
     0
  9
$LTSCALE
 40
1.0
  9
$ATTMODE
 70
     1
  9
$TEXTSIZE
 40
0.2
  9
$TRACEWID
 40
0.05
  9
$TEXTSTYLE
  7
Standard
  9
$CLAYER
  8
0
  9
$CELTYPE
  6
ByLayer
  9
$CECOLOR
 62
   256
  9
$CELTSCALE
 40
1.0
  9
$DISPSILH
 70
     0
  9
$DIMSCALE
 40
1.0
  9
$DIMASZ
 40
0.18
  9
$DIMEXO
 40
0.0625
  9
$DIMDLI
 40
0.38
  9
$DIMRND
 40
0.0
  9
$DIMDLE
 40
0.0
  9
$DIMEXE
 40
0.18
  9
$DIMTP
 40
0.0
  9
$DIMTM
 40
0.0
  9
$DIMTXT
 40
0.18
  9
$DIMCEN
 40
0.09
  9
$DIMTSZ
 40
0.0
  9
$DIMTOL
 70
     0
  9
$DIMLIM
 70
     0
  9
$DIMTIH
 70
     1
  9
$DIMTOH
 70
     1
  9
$DIMSE1
 70
     0
  9
$DIMSE2
 70
     0
  9
$DIMTAD
 70
     0
  9
$DIMZIN
 70
     0
  9
$DIMBLK
  1

  9
$DIMASO
 70
     1
  9
$DIMSHO
 70
     1
  9
$DIMPOST
  1

  9
$DIMAPOST
  1

  9
$DIMALT
 70
     0
  9
$DIMALTD
 70
     2
  9
$DIMALTF
 40
25.4
  9
$DIMLFAC
 40
1.0
  9
$DIMTOFL
 70
     0
  9
$DIMTVP
 40
0.0
  9
$DIMTIX
 70
     0
  9
$DIMSOXD
 70
     0
  9
$DIMSAH
 70
     0
  9
$DIMBLK1
  1

  9
$DIMBLK2
  1

  9
$DIMSTYLE
  2
Standard
  9
$DIMCLRD
 70
     0
  9
$DIMCLRE
 70
     0
  9
$DIMCLRT
 70
     0
  9
$DIMTFAC
 40
1.0
  9
$DIMGAP
 40
0.09
  9
$DIMJUST
 70
     0
  9
$DIMSD1
 70
     0
  9
$DIMSD2
 70
     0
  9
$DIMTOLJ
 70
     1
  9
$DIMTZIN
 70
     0
  9
$DIMALTZ
 70
     0
  9
$DIMALTTZ
 70
     0
  9
$DIMUPT
 70
     0
  9
$DIMDEC
 70
     4
  9
$DIMTDEC
 70
     4
  9
$DIMALTU
 70
     2
  9
$DIMALTTD
 70
     2
  9
$DIMTXSTY
  7
Standard
  9
$DIMAUNIT
 70
     0
  9
$DIMADEC
 70
     0
  9
$DIMALTRND
 40
0.0
  9
$DIMAZIN
 70
     0
  9
$DIMDSEP
 70
    46
  9
$DIMATFIT
 70
     3
  9
$DIMFRAC
 70
     0
  9
$DIMLDRBLK
  1

  9
$DIMLUNIT
 70
     2
  9
$DIMLWD
 70
    -2
  9
$DIMLWE
 70
    -2
  9
$DIMTMOVE
 70
     0
  9
$DIMFXL
 40
1.0
  9
$DIMFXLON
 70
     0
  9
$DIMJOGANG
 40
0.7853981633974483
  9
$DIMTFILL
 70
     0
  9
$DIMTFILLCLR
 70
     0
  9
$DIMARCSYM
 70
     0
  9
$DIMLTYPE
  6

  9
$DIMLTEX1
  6

  9
$DIMLTEX2
  6

  9
$DIMTXTDIRECTION
 70
     0
  9
$LUNITS
 70
     2
  9
$LUPREC
 70
     4
  9
$SKETCHINC
 40
0.1
  9
$FILLETRAD
 40
0.0
  9
$AUNITS
 70
     0
  9
$AUPREC
 70
     0
  9
$MENU
  1
.
  9
$ELEVATION
 40
0.0
  9
$PELEVATION
 40
0.0
  9
$THICKNESS
 40
0.0
  9
$LIMCHECK
 70
     0
  9
$CHAMFERA
 40
0.0
  9
$CHAMFERB
 40
0.0
  9
$CHAMFERC
 40
0.0
  9
$CHAMFERD
 40
0.0
  9
$SKPOLY
 70
     0
  9
$TDCREATE
 40
2460216.769143519
  9
$TDUCREATE
 40
2460216.894143519
  9
$TDUPDATE
 40
2460216.769143519
  9
$TDUUPDATE
 40
2460216.894143519
  9
$TDINDWG
 40
0.0000000000
  9
$TDUSRTIMER
 40
0.0000000000
  9
$USRTIMER
 70
     1
  9
$ANGBASE
 50
0.0
  9
$ANGDIR
 70
     0
  9
$PDMODE
 70
     0
  9
$PDSIZE
 40
0.0
  9
$PLINEWID
 40
0.0
  9
$SPLFRAME
 70
     0
  9
$SPLINETYPE
 70
     6
  9
$SPLINESEGS
 70
     8
  9
$HANDSEED
  5
190
  9
$SURFTAB1
 70
     6
  9
$SURFTAB2
 70
     6
  9
$SURFTYPE
 70
     6
  9
$SURFU
 70
     6
  9
$SURFV
 70
     6
  9
$UCSBASE
  2

  9
$UCSNAME
  2

  9
$UCSORG
 10
0.0
 20
0.0
 30
0.0
  9
$UCSXDIR
 10
1.0
 20
0.0
 30
0.0
  9
$UCSYDIR
 10
0.0
 20
1.0
 30
0.0
  9
$UCSORTHOREF
  2

  9
$UCSORTHOVIEW
 70
     0
  9
$UCSORGTOP
 10
0.0
 20
0.0
 30
0.0
  9
$UCSORGBOTTOM
 10
0.0
 20
0.0
 30
0.0
  9
$UCSORGLEFT
 10
0.0
 20
0.0
 30
0.0
  9
$UCSORGRIGHT
 10
0.0
 20
0.0
 30
0.0
  9
$UCSORGFRONT
 10
0.0
 20
0.0
 30
0.0
  9
$UCSORGBACK
 10
0.0
 20
0.0
 30
0.0
  9
$PUCSBASE
  2

  9
$PUCSNAME
  2

  9
$PUCSORG
 10
0.0
 20
0.0
 30
0.0
  9
$PUCSXDIR
 10
1.0
 20
0.0
 30
0.0
  9
$PUCSYDIR
 10
0.0
 20
1.0
 30
0.0
  9
$PUCSORTHOREF
  2

  9
$PUCSORTHOVIEW
 70
     0
  9
$PUCSORGTOP
 10
0.0
 20
0.0
 30
0.0
  9
$PUCSORGBOTTOM
 10
0.0
 20
0.0
 30
0.0
  9
$PUCSORGLEFT
 10
0.0
 20
0.0
 30
0.0
  9
$PUCSORGRIGHT
 10
0.0
 20
0.0
 30
0.0
  9
$PUCSORGFRONT
 10
0.0
 20
0.0
 30
0.0
  9
$PUCSORGBACK
 10
0.0
 20
0.0
 30
0.0
  9
$USERI1
 70
     0
  9
$USERI2
 70
     0
  9
$USERI3
 70
     0
  9
$USERI4
 70
     0
  9
$USERI5
 70
     0
  9
$USERR1
 40
0.0
  9
$USERR2
 40
0.0
  9
$USERR3
 40
0.0
  9
$USERR4
 40
0.0
  9
$USERR5
 40
0.0
  9
$WORLDVIEW
 70
     1
  9
$SHADEDGE
 70
     3
  9
$SHADEDIF
 70
    70
  9
$TILEMODE
 70
     1
  9
$MAXACTVP
 70
    64
  9
$PINSBASE
 10
0.0
 20
0.0
 30
0.0
  9
$PLIMCHECK
 70
     0
  9
$PEXTMIN
 10
1.000000000000000E+20
 20
1.000000000000000E+20
 30
1.000000000000000E+20
  9
$PEXTMAX
 10
-1.000000000000000E+20
 20
-1.000000000000000E+20
 30
-1.000000000000000E+20
  9
$PLIMMIN
 10
0.0
 20
0.0
  9
$PLIMMAX
 10
12.0
 20
9.0
  9
$UNITMODE
 70
     0
  9
$VISRETAIN
 70
     1
  9
$PLINEGEN
 70
     0
  9
$PSLTSCALE
 70
     1
  9
$TREEDEPTH
 70
  3020
  9
$CMLSTYLE
  2
Standard
  9
$CMLJUST
 70
     0
  9
$CMLSCALE
 40
1.0
  9
$PROXYGRAPHICS
 70
     1
  9
$MEASUREMENT
 70
     0
  9
$CELWEIGHT
370
    -1
  9
$ENDCAPS
280
     0
  9
$JOINSTYLE
280
     0
  9
$LWDISPLAY
290
     1
  9
$INSUNITS
 70
     4
  9
$HYPERLINKBASE
  1

  9
$STYLESHEET
  1

  9
$XEDIT
290
     1
  9
$CEPSNTYPE
380
     0
  9
$PSTYLEMODE
290
     1
  9
$FINGERPRINTGUID
  2
{4AA94AB2-C827-734E-A119-7B085E04FEDD}
  9
$VERSIONGUID
  2
{942EA1CE-4283-594A-82A5-1D6CB1EDB8E6}
  9
$EXTNAMES
290
     1
  9
$PSVPSCALE
 40
0.0
  9
$OLESTARTUP
290
     0
  9
$SORTENTS
280
   127
  9
$INDEXCTL
280
     0
  9
$HIDETEXT
280
     1
  9
$XCLIPFRAME
280
     2
  9
$HALOGAP
280
     0
  9
$OBSCOLOR
 70
   257
  9
$OBSLTYPE
280
     0
  9
$INTERSECTIONDISPLAY
280
     0
  9
$INTERSECTIONCOLOR
 70
   257
  9
$DIMASSOC
280
     2
  9
$PROJECTNAME
  1

  9
$CAMERADISPLAY
290
     0
  9
$LENSLENGTH
 40
50.0
  9
$CAMERAHEIGHT
 40
0.0
  9
$STEPSPERSEC
 40
2.0
  9
$STEPSIZE
 40
6.0
  9
$3DDWFPREC
 40
2.0
  9
$PSOLWIDTH
 40
0.25
  9
$PSOLHEIGHT
 40
4.0
  9
$LOFTANG1
 40
1.570796326794896
  9
$LOFTANG2
 40
1.570796326794896
  9
$LOFTMAG1
 40
0.0
  9
$LOFTMAG2
 40
0.0
  9
$LOFTPARAM
 70
     7
  9
$LOFTNORMALS
280
     1
  9
$LATITUDE
 40
37.795
  9
$LONGITUDE
 40
-122.394
  9
$NORTHDIRECTION
 40
0.0
  9
$TIMEZONE
 70
 -8000
  9
$LIGHTGLYPHDISPLAY
280
     1
  9
$TILEMODELIGHTSYNCH
280
     1
  9
$CMATERIAL
347
11
  9
$SOLIDHIST
280
     0
  9
$SHOWHIST
280
     1
  9
$DWFFRAME
280
     2
  9
$DGNFRAME
280
     0
  9
$REALWORLDSCALE
290
     1
  9
$INTERFERECOLOR
 62
     1
  9
$INTERFEREOBJVS
345
33
  9
$INTERFEREVPVS
346
30
  9
$CSHADOW
280
     0
  9
$SHADOWPLANELOCATION
 40
0.0
  0
ENDSEC
  0
SECTION
  2
CLASSES
  0
CLASS
  1
ACDBDICTIONARYWDFLT
  2
AcDbDictionaryWithDefault
  3
ObjectDBX Classes
 90
        0
 91
        1
280
     0
281
     0
  0
CLASS
  1
MATERIAL
  2
AcDbMaterial
  3
ObjectDBX Classes
 90
     1153
 91
        3
280
     0
281
     0
  0
CLASS
  1
VISUALSTYLE
  2
AcDbVisualStyle
  3
ObjectDBX Classes
 90
     4095
 91
       24
280
     0
281
     0
  0
CLASS
  1
SCALE
  2
AcDbScale
  3
ObjectDBX Classes
 90
     1153
 91
       17
280
     0
281
     0
  0
CLASS
  1
TABLESTYLE
  2
AcDbTableStyle
  3
ObjectDBX Classes
 90
     4095
 91
        1
280
     0
281
     0
  0
CLASS
  1
MLEADERSTYLE
  2
AcDbMLeaderStyle
  3
ACDB_MLEADERSTYLE_CLASS
 90
     4095
 91
        1
280
     0
281
     0
  0
CLASS
  1
ACDBSECTIONVIEWSTYLE
  2
AcDbSectionViewStyle
  3
ObjectDBX Classes
 90
     1025
 91
        1
280
     0
281
     0
  0
CLASS
  1
ACDBDETAILVIEWSTYLE
  2
AcDbDetailViewStyle
  3
ObjectDBX Classes
 90
     1025
 91
        1
280
     0
281
     0
  0
CLASS
  1
DICTIONARYVAR
  2
AcDbDictionaryVar
  3
ObjectDBX Classes
 90
        0
 91
        5
280
     0
281
     0
  0
CLASS
  1
CELLSTYLEMAP
  2
AcDbCellStyleMap
  3
ObjectDBX Classes
 90
     1152
 91
        1
280
     0
281
     0
  0
ENDSEC
  0
SECTION
  2
TABLES
  0
TABLE
  2
VPORT
  5
8
330
0
100
AcDbSymbolTable
 70
     1
  0
VPORT
  5
57
330
8
100
AcDbSymbolTableRecord
100
AcDbViewportTableRecord
  2
*Active
 70
     0
 10
0.0
 20
0.0
 11
1.0
 21
1.0
 12
0.0
 22
0.0
 13
0.0
 23
0.0
 14
1.0
 24
1.0
 15
0.0
 25
0.0
 16
0.0
 26
0.0
 36
1.0
 17
749.9999998125002
 27
-899.9999997750002
 37
0.0
 40
1937.9999995155
 41
0.7894736842105265
 42
50.0
 43
0.0
 44
0.0
 50
0.0
 51
0.0
 71
     0
 72
   100
 73
     1
 74
     0
 75
     1
 76
     0
 77
     0
 78
     0
281
     0
 65
     1
110
0.0
120
0.0
130
0.0
111
1.0
121
0.0
131
0.0
112
0.0
122
1.0
132
0.0
 79
     0
146
0.0
 60
     3
 61
     5
292
     1
282
     1
141
0.0
142
0.0
 63
   250
421
  3355443
  0
ENDTAB
  0
TABLE
  2
LTYPE
  5
5
330
0
100
AcDbSymbolTable
 70
     1
  0
LTYPE
  5
5B
330
5
100
AcDbSymbolTableRecord
100
AcDbLinetypeTableRecord
  2
ByBlock
 70
     0
  3

 72
    65
 73
     0
 40
0.0
  0
LTYPE
  5
5C
330
5
100
AcDbSymbolTableRecord
100
AcDbLinetypeTableRecord
  2
ByLayer
 70
     0
  3

 72
    65
 73
     0
 40
0.0
  0
LTYPE
  5
5D
330
5
100
AcDbSymbolTableRecord
100
AcDbLinetypeTableRecord
  2
Continuous
 70
     0
  3
Solid line
 72
    65
 73
     0
 40
0.0
  0
ENDTAB
  0
TABLE
  2
LAYER
  5
2
330
0
100
AcDbSymbolTable
 70
     2
  0
LAYER
  5
54
330
2
100
AcDbSymbolTableRecord
100
AcDbLayerTableRecord
  2
0
 70
     0
 62
     7
  6
Continuous
370
    -3
390
F
347
21
348
0
  0
LAYER
  5
78
330
2
100
AcDbSymbolTableRecord
100
AcDbLayerTableRecord
  2
Camada 1
 70
     0
 62
     7
  6
Continuous
370
     0
390
F
347
21
348
0
  0
ENDTAB
  0
TABLE
  2
STYLE
  5
3
330
0
100
AcDbSymbolTable
 70
     2
  0
STYLE
  5
55
330
3
100
AcDbSymbolTableRecord
100
AcDbTextStyleTableRecord
  2
Standard
 70
     0
 40
0.0
 41
1.0
 50
0.0
 71
     0
 42
0.2
  3
txt
  4

  0
STYLE
  5
5A
330
3
100
AcDbSymbolTableRecord
100
AcDbTextStyleTableRecord
  2
Annotative
 70
     0
 40
0.0
 41
1.0
 50
0.0
 71
     0
 42
0.2
  3
txt
  4

1001
AcadAnnotative
1000
AnnotativeData
1002
{
1070
     1
1070
     1
1002
}
  0
ENDTAB
  0
TABLE
  2
VIEW
  5
6
330
0
100
AcDbSymbolTable
 70
     0
  0
ENDTAB
  0
TABLE
  2
UCS
  5
7
330
0
100
AcDbSymbolTable
 70
     0
  0
ENDTAB
  0
TABLE
  2
APPID
  5
9
330
0
100
AcDbSymbolTable
 70
     2
  0
APPID
  5
56
330
9
100
AcDbSymbolTableRecord
100
AcDbRegAppTableRecord
  2
ACAD
 70
     0
  0
APPID
  5
5E
330
9
100
AcDbSymbolTableRecord
100
AcDbRegAppTableRecord
  2
AcadAnnotative
 70
     0
  0
ENDTAB
  0
TABLE
  2
DIMSTYLE
  5
A
330
0
100
AcDbSymbolTable
 70
     2
100
AcDbDimStyleTable
 71
     0
  0
DIMSTYLE
105
58
330
A
100
AcDbSymbolTableRecord
100
AcDbDimStyleTableRecord
  2
Standard
 70
     0
340
55
  0
DIMSTYLE
105
59
330
A
100
AcDbSymbolTableRecord
100
AcDbDimStyleTableRecord
  2
Annotative
 70
     0
340
55
1001
AcadAnnotative
1000
AnnotativeData
1002
{
1070
     1
1070
     1
1002
}
  0
ENDTAB
  0
TABLE
  2
BLOCK_RECORD
  5
1
330
0
100
AcDbSymbolTable
 70
    41
  0
BLOCK_RECORD
  5
70
330
1
100
AcDbSymbolTableRecord
100
AcDbBlockTableRecord
  2
*Model_Space
340
73
 70
     0
280
     1
281
     0
  0
BLOCK_RECORD
  5
6C
330
1
100
AcDbSymbolTableRecord
100
AcDbBlockTableRecord
  2
*Paper_Space
340
6F
 70
     0
280
     1
281
     0
  0
BLOCK_RECORD
  5
74
330
1
100
AcDbSymbolTableRecord
100
AcDbBlockTableRecord
  2
*Paper_Space0
340
77
 70
     0
280
     1
281
     0
  0
BLOCK_RECORD
  5
79
330
1
100
AcDbSymbolTableRecord
100
AcDbBlockTableRecord
  2
Block_0
340
0
102
{BLKREFS
331
7A
102
}
 70
     0
280
     1
281
     0
  0
BLOCK_RECORD
  5
7D
330
1
100
AcDbSymbolTableRecord
100
AcDbBlockTableRecord
  2
Block_1
340
0
102
{BLKREFS
331
7E
102
}
 70
     0
280
     1
281
     0
  0
BLOCK_RECORD
  5
86
330
1
100
AcDbSymbolTableRecord
100
AcDbBlockTableRecord
  2
Block_2
340
0
102
{BLKREFS
331
87
102
}
 70
     0
280
     1
281
     0
  0
BLOCK_RECORD
  5
8A
330
1
100
AcDbSymbolTableRecord
100
AcDbBlockTableRecord
  2
Block_3
340
0
102
{BLKREFS
331
8B
102
}
 70
     0
280
     1
281
     0
  0
BLOCK_RECORD
  5
93
330
1
100
AcDbSymbolTableRecord
100
AcDbBlockTableRecord
  2
Block_4
340
0
102
{BLKREFS
331
94
102
}
 70
     0
280
     1
281
     0
  0
BLOCK_RECORD
  5
9A
330
1
100
AcDbSymbolTableRecord
100
AcDbBlockTableRecord
  2
Block_5
340
0
102
{BLKREFS
331
9B
102
}
 70
     0
280
     1
281
     0
  0
BLOCK_RECORD
  5
A1
330
1
100
AcDbSymbolTableRecord
100
AcDbBlockTableRecord
  2
Block_6
340
0
102
{BLKREFS
331
A2
102
}
 70
     0
280
     1
281
     0
  0
BLOCK_RECORD
  5
A8
330
1
100
AcDbSymbolTableRecord
100
AcDbBlockTableRecord
  2
Block_7
340
0
102
{BLKREFS
331
A9
102
}
 70
     0
280
     1
281
     0
  0
BLOCK_RECORD
  5
AF
330
1
100
AcDbSymbolTableRecord
100
AcDbBlockTableRecord
  2
Block_8
340
0
102
{BLKREFS
331
B0
102
}
 70
     0
280
     1
281
     0
  0
BLOCK_RECORD
  5
B6
330
1
100
AcDbSymbolTableRecord
100
AcDbBlockTableRecord
  2
Block_9
340
0
102
{BLKREFS
331
B7
102
}
 70
     0
280
     1
281
     0
  0
BLOCK_RECORD
  5
BD
330
1
100
AcDbSymbolTableRecord
100
AcDbBlockTableRecord
  2
Block_10
340
0
102
{BLKREFS
331
BE
102
}
 70
     0
280
     1
281
     0
  0
BLOCK_RECORD
  5
C4
330
1
100
AcDbSymbolTableRecord
100
AcDbBlockTableRecord
  2
Block_11
340
0
102
{BLKREFS
331
C5
102
}
 70
     0
280
     1
281
     0
  0
BLOCK_RECORD
  5
CB
330
1
100
AcDbSymbolTableRecord
100
AcDbBlockTableRecord
  2
Block_12
340
0
102
{BLKREFS
331
CC
102
}
 70
     0
280
     1
281
     0
  0
BLOCK_RECORD
  5
D2
330
1
100
AcDbSymbolTableRecord
100
AcDbBlockTableRecord
  2
Block_13
340
0
102
{BLKREFS
331
D3
102
}
 70
     0
280
     1
281
     0
  0
BLOCK_RECORD
  5
D9
330
1
100
AcDbSymbolTableRecord
100
AcDbBlockTableRecord
  2
Block_14
340
0
102
{BLKREFS
331
DA
102
}
 70
     0
280
     1
281
     0
  0
BLOCK_RECORD
  5
DD
330
1
100
AcDbSymbolTableRecord
100
AcDbBlockTableRecord
  2
Block_15
340
0
102
{BLKREFS
331
DE
102
}
 70
     0
280
     1
281
     0
  0
BLOCK_RECORD
  5
E5
330
1
100
AcDbSymbolTableRecord
100
AcDbBlockTableRecord
  2
Block_16
340
0
102
{BLKREFS
331
E6
102
}
 70
     0
280
     1
281
     0
  0
BLOCK_RECORD
  5
E9
330
1
100
AcDbSymbolTableRecord
100
AcDbBlockTableRecord
  2
Block_17
340
0
102
{BLKREFS
331
EA
102
}
 70
     0
280
     1
281
     0
  0
BLOCK_RECORD
  5
F1
330
1
100
AcDbSymbolTableRecord
100
AcDbBlockTableRecord
  2
Block_18
340
0
102
{BLKREFS
331
F2
102
}
 70
     0
280
     1
281
     0
  0
BLOCK_RECORD
  5
F5
330
1
100
AcDbSymbolTableRecord
100
AcDbBlockTableRecord
  2
Block_19
340
0
102
{BLKREFS
331
F6
102
}
 70
     0
280
     1
281
     0
  0
BLOCK_RECORD
  5
FD
330
1
100
AcDbSymbolTableRecord
100
AcDbBlockTableRecord
  2
Block_20
340
0
102
{BLKREFS
331
FE
102
}
 70
     0
280
     1
281
     0
  0
BLOCK_RECORD
  5
101
330
1
100
AcDbSymbolTableRecord
100
AcDbBlockTableRecord
  2
Block_21
340
0
102
{BLKREFS
331
102
102
}
 70
     0
280
     1
281
     0
  0
BLOCK_RECORD
  5
109
330
1
100
AcDbSymbolTableRecord
100
AcDbBlockTableRecord
  2
Block_22
340
0
102
{BLKREFS
331
10A
102
}
 70
     0
280
     1
281
     0
  0
BLOCK_RECORD
  5
110
330
1
100
AcDbSymbolTableRecord
100
AcDbBlockTableRecord
  2
Block_23
340
0
102
{BLKREFS
331
111
102
}
 70
     0
280
     1
281
     0
  0
BLOCK_RECORD
  5
117
330
1
100
AcDbSymbolTableRecord
100
AcDbBlockTableRecord
  2
Block_24
340
0
102
{BLKREFS
331
118
102
}
 70
     0
280
     1
281
     0
  0
BLOCK_RECORD
  5
11E
330
1
100
AcDbSymbolTableRecord
100
AcDbBlockTableRecord
  2
Block_25
340
0
102
{BLKREFS
331
11F
102
}
 70
     0
280
     1
281
     0
  0
BLOCK_RECORD
  5
125
330
1
100
AcDbSymbolTableRecord
100
AcDbBlockTableRecord
  2
Block_26
340
0
102
{BLKREFS
331
126
102
}
 70
     0
280
     1
281
     0
  0
BLOCK_RECORD
  5
12C
330
1
100
AcDbSymbolTableRecord
100
AcDbBlockTableRecord
  2
Block_27
340
0
102
{BLKREFS
331
12D
102
}
 70
     0
280
     1
281
     0
  0
BLOCK_RECORD
  5
133
330
1
100
AcDbSymbolTableRecord
100
AcDbBlockTableRecord
  2
Block_28
340
0
102
{BLKREFS
331
134
102
}
 70
     0
280
     1
281
     0
  0
BLOCK_RECORD
  5
13A
330
1
100
AcDbSymbolTableRecord
100
AcDbBlockTableRecord
  2
Block_29
340
0
102
{BLKREFS
331
13B
102
}
 70
     0
280
     1
281
     0
  0
BLOCK_RECORD
  5
141
330
1
100
AcDbSymbolTableRecord
100
AcDbBlockTableRecord
  2
Block_30
340
0
102
{BLKREFS
331
142
102
}
 70
     0
280
     1
281
     0
  0
BLOCK_RECORD
  5
148
330
1
100
AcDbSymbolTableRecord
100
AcDbBlockTableRecord
  2
Block_31
340
0
102
{BLKREFS
331
149
102
}
 70
     0
280
     1
281
     0
  0
BLOCK_RECORD
  5
14F
330
1
100
AcDbSymbolTableRecord
100
AcDbBlockTableRecord
  2
Block_32
340
0
102
{BLKREFS
331
150
102
}
 70
     0
280
     1
281
     0
  0
BLOCK_RECORD
  5
156
330
1
100
AcDbSymbolTableRecord
100
AcDbBlockTableRecord
  2
Block_33
340
0
102
{BLKREFS
331
157
102
}
 70
     0
280
     1
281
     0
  0
BLOCK_RECORD
  5
15D
330
1
100
AcDbSymbolTableRecord
100
AcDbBlockTableRecord
  2
Block_34
340
0
102
{BLKREFS
331
15E
102
}
 70
     0
280
     1
281
     0
  0
BLOCK_RECORD
  5
164
330
1
100
AcDbSymbolTableRecord
100
AcDbBlockTableRecord
  2
Block_35
340
0
102
{BLKREFS
331
165
102
}
 70
     0
280
     1
281
     0
  0
BLOCK_RECORD
  5
16B
330
1
100
AcDbSymbolTableRecord
100
AcDbBlockTableRecord
  2
Block_36
340
0
102
{BLKREFS
331
16C
102
}
 70
     0
280
     1
281
     0
  0
BLOCK_RECORD
  5
172
330
1
100
AcDbSymbolTableRecord
100
AcDbBlockTableRecord
  2
Block_37
340
0
102
{BLKREFS
331
173
102
}
 70
     0
280
     1
281
     0
  0
BLOCK_RECORD
  5
179
330
1
100
AcDbSymbolTableRecord
100
AcDbBlockTableRecord
  2
Block_38
340
0
102
{BLKREFS
331
17A
102
}
 70
     0
280
     1
281
     0
  0
BLOCK_RECORD
  5
180
330
1
100
AcDbSymbolTableRecord
100
AcDbBlockTableRecord
  2
Block_39
340
0
102
{BLKREFS
331
181
102
}
 70
     0
280
     1
281
     0
  0
ENDTAB
  0
ENDSEC
  0
SECTION
  2
BLOCKS
  0
BLOCK
  5
71
330
70
100
AcDbEntity
  8
0
100
AcDbBlockBegin
  2
*Model_Space
 70
     0
 10
0.0
 20
0.0
 30
0.0
  3
*Model_Space
  1

  0
ENDBLK
  5
72
330
70
100
AcDbEntity
  8
0
100
AcDbBlockEnd
  0
BLOCK
  5
6D
330
6C
100
AcDbEntity
 67
     1
  8
0
100
AcDbBlockBegin
  2
*Paper_Space
 70
     0
 10
0.0
 20
0.0
 30
0.0
  3
*Paper_Space
  1

  0
ENDBLK
  5
6E
330
6C
100
AcDbEntity
 67
     1
  8
0
100
AcDbBlockEnd
  0
BLOCK
  5
75
330
74
100
AcDbEntity
 67
     1
  8
0
100
AcDbBlockBegin
  2
*Paper_Space0
 70
     0
 10
0.0
 20
0.0
 30
0.0
  3
*Paper_Space0
  1

  0
ENDBLK
  5
76
330
74
100
AcDbEntity
 67
     1
  8
0
100
AcDbBlockEnd
  0
BLOCK
  5
7B
330
79
100
AcDbEntity
  8
0
100
AcDbBlockBegin
  2
Block_0
 70
     0
 10
0.0
 20
0.0
 30
0.0
  3
Block_0
  1

  0
INSERT
  5
7E
330
79
100
AcDbEntity
  8
Camada 1
100
AcDbBlockReference
  2
Block_1
 10
0.0
 20
0.0
 30
0.0
  0
CIRCLE
  5
84
330
79
100
AcDbEntity
  8
Camada 1
 62
   242
420
 15016999
370
    13
100
AcDbCircle
 10
654.5327193458765
 20
-320.6934395659536
 30
0.0
 40
9.999999997500172
  0
MTEXT
  5
85
330
79
100
AcDbEntity
  8
Camada 1
100
AcDbMText
 10
651.6434283852662
 20
-323.9530298058933
 30
0.0
 40
0.2
 41
0.0
 46
0.0
 71
     7
 72
     1
  1
\C12;\c1246947;\FMyriad Pro|b0|i0|c1;\H7.493000;\W1.000000;1
 73
     1
 44
1.0
  0
ENDBLK
  5
7C
330
79
100
AcDbEntity
  8
0
100
AcDbBlockEnd
  0
BLOCK
  5
7F
330
7D
100
AcDbEntity
  8
0
100
AcDbBlockBegin
  2
Block_1
 70
     0
 10
0.0
 20
0.0
 30
0.0
  3
Block_1
  1

  0
LWPOLYLINE
  5
81
330
7D
100
AcDbEntity
  8
Camada 1
 62
   250
420
  1907995
370
    13
100
AcDbPolyline
 90
       50
 70
     1
 43
0.0
 10
654.0394475030433
 20
-230.1212574190003
 10
654.0394475030433
 20
-245.1213754165523
 10
679.0407638216625
 20
-245.1213754165523
 10
679.0407638216625
 20
-345.1197935637532
 10
629.0415762799091
 20
-345.1197935637532
 10
629.0415762799091
 20
-95.1202600365721
 10
149.0415684314303
 20
-95.1202600365721
 10
149.0415684314303
 20
-345.1197935637532
 10
99.03884966680429
 20
-345.1197935637532
 10
99.03884966680429
 20
-245.1213754165523
 10
124.0402090491173
 20
-245.1213754165523
 10
124.0402090491173
 20
-230.1212574190003
 10
99.03884966680429
 20
-230.1212574190003
 10
99.03884966680429
 20
4.878115046935252
 10
154.0404235123746
 20
4.878115046935252
 10
154.0404235123746
 20
-25.12209941632207
 10
169.0828731207017
 20
-25.12209941632207
 10
169.0828731207017
 20
4.878115046935252
 10
219.0820606624554
 20
4.878115046935252
 10
219.0820606624554
 20
-25.12209941632207
 10
233.9763496330699
 20
-25.12209941632207
 10
233.9763496330699
 20
4.878115046935252
 10
283.9790899295427
 20
4.878115046935252
 10
283.9790899295427
 20
-25.12209941632207
 10
298.9791648634012
 20
-25.12209941632207
 10
298.9791648634012
 20
4.878115046935252
 10
348.9783954688485
 20
4.878115046935252
 10
348.9783954688485
 20
-25.12209941632207
 10
364.0384581278439
 20
-25.12209941632207
 10
364.0384581278439
 20
4.878115046935252
 10
414.0411768924699
 20
4.878115046935252
 10
414.0411768924699
 20
-25.12209941632207
 10
429.1330205573167
 20
-25.12209941632207
 10
429.1330205573167
 20
4.878115046935252
 10
479.1322080990704
 20
4.878115046935252
 10
479.1322080990704
 20
-25.12209941632207
 10
493.8642115404829
 20
-25.12209941632207
 10
493.8642115404829
 20
4.878115046935252
 10
543.8633990822365
 20
4.878115046935252
 10
543.8633990822365
 20
-25.12209941632207
 10
558.8635170797886
 20
-25.12209941632207
 10
558.8635170797886
 20
4.878115046935252
 10
608.8627046215423
 20
4.878115046935252
 10
608.8627046215423
 20
-25.12209941632207
 10
624.028617839322
 20
-25.12209941632207
 10
624.028617839322
 20
4.878115046935252
 10
679.0301701530453
 20
4.878115046935252
 10
679.0301701530453
 20
-25.12209941632207
 10
679.0407638216625
 20
-25.12209941632207
 10
679.0407638216625
 20
-230.1212574190003
  0
CIRCLE
  5
82
330
7D
100
AcDbEntity
  8
Camada 1
 62
   250
420
  1907995
370
    13
100
AcDbCircle
 10
129.038849659304
 20
-20.12188494681452
 30
0.0
 40
2.499999999206546
  0
CIRCLE
  5
83
330
7D
100
AcDbEntity
  8
Camada 1
 62
   250
420
  1907995
370
    13
100
AcDbCircle
 10
649.040763829162
 20
-20.12188494681452
 30
0.0
 40
2.499999999206546
  0
ENDBLK
  5
80
330
7D
100
AcDbEntity
  8
0
100
AcDbBlockEnd
  0
BLOCK
  5
88
330
86
100
AcDbEntity
  8
0
100
AcDbBlockBegin
  2
Block_2
 70
     0
 10
0.0
 20
0.0
 30
0.0
  3
Block_2
  1

  0
INSERT
  5
8B
330
86
100
AcDbEntity
  8
Camada 1
100
AcDbBlockReference
  2
Block_3
 10
0.0
 20
0.0
 30
0.0
  0
CIRCLE
  5
91
330
86
100
AcDbEntity
  8
Camada 1
 62
   242
420
 15016999
370
    13
100
AcDbCircle
 10
1253.126886962892
 20
-326.3239571545263
 30
0.0
 40
9.999999997500211
  0
MTEXT
  5
92
330
86
100
AcDbEntity
  8
Camada 1
100
AcDbMText
 10
1250.237553940913
 20
-329.5835216122113
 30
0.0
 40
0.2
 41
0.0
 46
0.0
 71
     7
 72
     1
  1
\C12;\c1246947;\FMyriad Pro|b0|i0|c1;\H7.493000;\W1.000000;1
 73
     1
 44
1.0
  0
ENDBLK
  5
89
330
86
100
AcDbEntity
  8
0
100
AcDbBlockEnd
  0
BLOCK
  5
8C
330
8A
100
AcDbEntity
  8
0
100
AcDbBlockBegin
  2
Block_3
 70
     0
 10
0.0
 20
0.0
 30
0.0
  3
Block_3
  1

  0
LWPOLYLINE
  5
8E
330
8A
100
AcDbEntity
  8
Camada 1
 62
   250
420
  1907995
370
    13
100
AcDbPolyline
 90
       50
 70
     1
 43
0.0
 10
1250.196794105838
 20
-233.8989141126181
 10
1250.196794105838
 20
-248.8990321101702
 10
1275.198110424458
 20
-248.8990321101702
 10
1275.198110424458
 20
-348.8974502573711
 10
1225.198922882704
 20
-348.8974502573711
 10
1225.198922882704
 20
-98.89791673018997
 10
745.198915034226
 20
-98.89791673018997
 10
745.198915034226
 20
-348.8974502573711
 10
695.1961962696002
 20
-348.8974502573711
 10
695.1961962696002
 20
-248.8990321101702
 10
720.197555651913
 20
-248.8990321101702
 10
720.197555651913
 20
-233.8989141126181
 10
695.1961962696002
 20
-233.8989141126181
 10
695.1961962696002
 20
1.100458353317395
 10
750.1977701151703
 20
1.100458353317395
 10
750.1977701151703
 20
-28.89975610993993
 10
765.240219723497
 20
-28.89975610993993
 10
765.240219723497
 20
1.100458353317395
 10
815.2394072652507
 20
1.100458353317395
 10
815.2394072652507
 20
-28.89975610993993
 10
830.1336962358652
 20
-28.89975610993993
 10
830.1336962358652
 20
1.100458353317395
 10
880.1364365323381
 20
1.100458353317395
 10
880.1364365323381
 20
-28.89975610993993
 10
895.1365114661966
 20
-28.89975610993993
 10
895.1365114661966
 20
1.100458353317395
 10
945.1357420716439
 20
1.100458353317395
 10
945.1357420716439
 20
-28.89975610993993
 10
960.1958047306393
 20
-28.89975610993993
 10
960.1958047306393
 20
1.100458353317395
 10
1010.198523495265
 20
1.100458353317395
 10
1010.198523495265
 20
-28.89975610993993
 10
1025.290367160112
 20
-28.89975610993993
 10
1025.290367160112
 20
1.100458353317395
 10
1075.289554701866
 20
1.100458353317395
 10
1075.289554701866
 20
-28.89975610993993
 10
1090.021558143278
 20
-28.89975610993993
 10
1090.021558143278
 20
1.100458353317395
 10
1140.020745685032
 20
1.100458353317395
 10
1140.020745685032
 20
-28.89975610993993
 10
1155.020863682584
 20
-28.89975610993993
 10
1155.020863682584
 20
1.100458353317395
 10
1205.020051224338
 20
1.100458353317395
 10
1205.020051224338
 20
-28.89975610993993
 10
1220.185964442117
 20
-28.89975610993993
 10
1220.185964442117
 20
1.100458353317395
 10
1275.187516755841
 20
1.100458353317395
 10
1275.187516755841
 20
-28.89975610993993
 10
1275.198110424458
 20
-28.89975610993993
 10
1275.198110424458
 20
-233.8989141126181
  0
CIRCLE
  5
8F
330
8A
100
AcDbEntity
  8
Camada 1
 62
   250
420
  1907995
370
    13
100
AcDbCircle
 10
725.1961962621005
 20
-23.89954164043238
 30
0.0
 40
2.499999999206948
  0
CIRCLE
  5
90
330
8A
100
AcDbEntity
  8
Camada 1
 62
   250
420
  1907995
370
    13
100
AcDbCircle
 10
1245.198110431958
 20
-23.89954164043238
 30
0.0
 40
2.499999999206948
  0
ENDBLK
  5
8D
330
8A
100
AcDbEntity
  8
0
100
AcDbBlockEnd
  0
BLOCK
  5
95
330
93
100
AcDbEntity
  8
0
100
AcDbBlockBegin
  2
Block_4
 70
     0
 10
0.0
 20
0.0
 30
0.0
  3
Block_4
  1

  0
LWPOLYLINE
  5
97
330
93
100
AcDbEntity
  8
Camada 1
 62
   250
420
  1907995
370
    13
100
AcDbPolyline
 90
       12
 70
     1
 43
0.0
 10
614.9645792527612
 20
-1785.238054587141
 10
574.9630588092026
 20
-1785.238054587141
 10
574.9630588092026
 20
-1760.236738268522
 10
584.9643432576571
 20
-1760.236738268522
 10
584.9643432576571
 20
-1745.23662027097
 10
574.9630588092026
 20
-1745.23662027097
 10
574.9630588092022
 20
-1015.240610118182
 10
584.9643432576568
 20
-1015.240610118182
 10
584.9643432576568
 20
-1000.24049212063
 10
574.9630588092022
 20
-1000.24049212063
 10
574.9630588092022
 20
-975.2391327383174
 10
614.9645792527609
 20
-975.2391327383174
  0
CIRCLE
  5
98
330
93
100
AcDbEntity
  8
Camada 1
 62
   242
420
 15016999
370
    13
100
AcDbCircle
 10
599.7742767526609
 20
-1753.534649511517
 30
0.0
 40
9.999999997500292
  0
MTEXT
  5
99
330
93
100
AcDbEntity
  8
Camada 1
100
AcDbMText
 10
596.8850998128012
 20
-1756.794231060367
 30
0.0
 40
0.2
 41
0.0
 46
0.0
 71
     7
 72
     1
  1
\C12;\c1246947;\FMyriad Pro|b0|i0|c1;\H7.493000;\W1.000000;2
 73
     1
 44
1.0
  0
ENDBLK
  5
96
330
93
100
AcDbEntity
  8
0
100
AcDbBlockEnd
  0
BLOCK
  5
9C
330
9A
100
AcDbEntity
  8
0
100
AcDbBlockBegin
  2
Block_5
 70
     0
 10
0.0
 20
0.0
 30
0.0
  3
Block_5
  1

  0
LWPOLYLINE
  5
9E
330
9A
100
AcDbEntity
  8
Camada 1
 62
   250
420
  1907995
370
    13
100
AcDbPolyline
 90
       12
 70
     1
 43
0.0
 10
564.1645930458429
 20
-1785.238054587141
 10
524.1630726022842
 20
-1785.238054587142
 10
524.1630726022842
 20
-1760.236738268522
 10
534.1643570507387
 20
-1760.236738268522
 10
534.1643570507387
 20
-1745.23662027097
 10
524.1630726022842
 20
-1745.23662027097
 10
524.1630726022839
 20
-1015.240610118182
 10
534.1643570507384
 20
-1015.240610118182
 10
534.1643570507384
 20
-1000.24049212063
 10
524.1630726022839
 20
-1000.24049212063
 10
524.1630726022839
 20
-975.2391327383174
 10
564.1645930458426
 20
-975.2391327383174
  0
CIRCLE
  5
9F
330
9A
100
AcDbEntity
  8
Camada 1
 62
   242
420
 15016999
370
    13
100
AcDbCircle
 10
548.9742905457426
 20
-1753.534649511518
 30
0.0
 40
9.999999997500292
  0
MTEXT
  5
A0
330
9A
100
AcDbEntity
  8
Camada 1
100
AcDbMText
 10
546.0850998255012
 20
-1756.794231060367
 30
0.0
 40
0.2
 41
0.0
 46
0.0
 71
     7
 72
     1
  1
\C12;\c1246947;\FMyriad Pro|b0|i0|c1;\H7.493000;\W1.000000;2
 73
     1
 44
1.0
  0
ENDBLK
  5
9D
330
9A
100
AcDbEntity
  8
0
100
AcDbBlockEnd
  0
BLOCK
  5
A3
330
A1
100
AcDbEntity
  8
0
100
AcDbBlockBegin
  2
Block_6
 70
     0
 10
0.0
 20
0.0
 30
0.0
  3
Block_6
  1

  0
LWPOLYLINE
  5
A5
330
A1
100
AcDbEntity
  8
Camada 1
 62
   250
420
  1907995
370
    13
100
AcDbPolyline
 90
       12
 70
     1
 43
0.0
 10
513.3646068389245
 20
-1785.238054587142
 10
473.3630863953658
 20
-1785.238054587142
 10
473.3630863953658
 20
-1760.236738268522
 10
483.3643708438204
 20
-1760.236738268522
 10
483.3643708438204
 20
-1745.23662027097
 10
473.3630863953658
 20
-1745.23662027097
 10
473.3630863953655
 20
-1015.240610118182
 10
483.36437084382
 20
-1015.240610118182
 10
483.36437084382
 20
-1000.24049212063
 10
473.3630863953655
 20
-1000.24049212063
 10
473.3630863953655
 20
-975.2391327383174
 10
513.3646068389242
 20
-975.2391327383174
  0
CIRCLE
  5
A6
330
A1
100
AcDbEntity
  8
Camada 1
 62
   242
420
 15016999
370
    13
100
AcDbCircle
 10
498.1743043388243
 20
-1753.534649511518
 30
0.0
 40
9.999999997500292
  0
MTEXT
  5
A7
330
A1
100
AcDbEntity
  8
Camada 1
100
AcDbMText
 10
495.2850998382013
 20
-1756.794231060367
 30
0.0
 40
0.2
 41
0.0
 46
0.0
 71
     7
 72
     1
  1
\C12;\c1246947;\FMyriad Pro|b0|i0|c1;\H7.493000;\W1.000000;2
 73
     1
 44
1.0
  0
ENDBLK
  5
A4
330
A1
100
AcDbEntity
  8
0
100
AcDbBlockEnd
  0
BLOCK
  5
AA
330
A8
100
AcDbEntity
  8
0
100
AcDbBlockBegin
  2
Block_7
 70
     0
 10
0.0
 20
0.0
 30
0.0
  3
Block_7
  1

  0
LWPOLYLINE
  5
AC
330
A8
100
AcDbEntity
  8
Camada 1
 62
   250
420
  1907995
370
    13
100
AcDbPolyline
 90
       12
 70
     1
 43
0.0
 10
462.5646206320062
 20
-1785.238054587142
 10
422.5631001884474
 20
-1785.238054587142
 10
422.5631001884474
 20
-1760.236738268522
 10
432.564384636902
 20
-1760.236738268522
 10
432.564384636902
 20
-1745.23662027097
 10
422.5631001884474
 20
-1745.23662027097
 10
422.5631001884472
 20
-1015.240610118182
 10
432.5643846369016
 20
-1015.240610118182
 10
432.5643846369016
 20
-1000.24049212063
 10
422.5631001884472
 20
-1000.24049212063
 10
422.5631001884472
 20
-975.2391327383174
 10
462.5646206320058
 20
-975.2391327383174
  0
CIRCLE
  5
AD
330
A8
100
AcDbEntity
  8
Camada 1
 62
   242
420
 15016999
370
    13
100
AcDbCircle
 10
447.3743181319059
 20
-1753.534649511518
 30
0.0
 40
9.999999997500292
  0
MTEXT
  5
AE
330
A8
100
AcDbEntity
  8
Camada 1
100
AcDbMText
 10
444.4850998509012
 20
-1756.794231060367
 30
0.0
 40
0.2
 41
0.0
 46
0.0
 71
     7
 72
     1
  1
\C12;\c1246947;\FMyriad Pro|b0|i0|c1;\H7.493000;\W1.000000;2
 73
     1
 44
1.0
  0
ENDBLK
  5
AB
330
A8
100
AcDbEntity
  8
0
100
AcDbBlockEnd
  0
BLOCK
  5
B1
330
AF
100
AcDbEntity
  8
0
100
AcDbBlockBegin
  2
Block_8
 70
     0
 10
0.0
 20
0.0
 30
0.0
  3
Block_8
  1

  0
LWPOLYLINE
  5
B3
330
AF
100
AcDbEntity
  8
Camada 1
 62
   250
420
  1907995
370
    13
100
AcDbPolyline
 90
       12
 70
     1
 43
0.0
 10
411.7646344250878
 20
-1785.238054587142
 10
371.7631139815292
 20
-1785.238054587142
 10
371.7631139815292
 20
-1760.236738268522
 10
381.7643984299837
 20
-1760.236738268522
 10
381.7643984299837
 20
-1745.23662027097
 10
371.7631139815292
 20
-1745.23662027097
 10
371.7631139815288
 20
-1015.240610118182
 10
381.7643984299834
 20
-1015.240610118182
 10
381.7643984299834
 20
-1000.24049212063
 10
371.7631139815288
 20
-1000.24049212063
 10
371.7631139815288
 20
-975.2391327383174
 10
411.7646344250874
 20
-975.2391327383174
  0
CIRCLE
  5
B4
330
AF
100
AcDbEntity
  8
Camada 1
 62
   242
420
 15016999
370
    13
100
AcDbCircle
 10
396.5743319249875
 20
-1753.534649511518
 30
0.0
 40
9.999999997500292
  0
MTEXT
  5
B5
330
AF
100
AcDbEntity
  8
Camada 1
100
AcDbMText
 10
393.6850998636013
 20
-1756.794231060367
 30
0.0
 40
0.2
 41
0.0
 46
0.0
 71
     7
 72
     1
  1
\C12;\c1246947;\FMyriad Pro|b0|i0|c1;\H7.493000;\W1.000000;2
 73
     1
 44
1.0
  0
ENDBLK
  5
B2
330
AF
100
AcDbEntity
  8
0
100
AcDbBlockEnd
  0
BLOCK
  5
B8
330
B6
100
AcDbEntity
  8
0
100
AcDbBlockBegin
  2
Block_9
 70
     0
 10
0.0
 20
0.0
 30
0.0
  3
Block_9
  1

  0
LWPOLYLINE
  5
BA
330
B6
100
AcDbEntity
  8
Camada 1
 62
   250
420
  1907995
370
    13
100
AcDbPolyline
 90
       12
 70
     1
 43
0.0
 10
360.9646482181694
 20
-1785.238054587142
 10
320.9631277746108
 20
-1785.238054587142
 10
320.9631277746108
 20
-1760.236738268522
 10
330.9644122230653
 20
-1760.236738268522
 10
330.9644122230653
 20
-1745.23662027097
 10
320.9631277746108
 20
-1745.23662027097
 10
320.9631277746104
 20
-1015.240610118182
 10
330.964412223065
 20
-1015.240610118182
 10
330.964412223065
 20
-1000.24049212063
 10
320.9631277746104
 20
-1000.24049212063
 10
320.9631277746104
 20
-975.2391327383174
 10
360.9646482181691
 20
-975.2391327383174
  0
CIRCLE
  5
BB
330
B6
100
AcDbEntity
  8
Camada 1
 62
   242
420
 15016999
370
    13
100
AcDbCircle
 10
345.7743457180692
 20
-1753.534649511518
 30
0.0
 40
9.999999997500292
  0
MTEXT
  5
BC
330
B6
100
AcDbEntity
  8
Camada 1
100
AcDbMText
 10
342.8850998763013
 20
-1756.794231060367
 30
0.0
 40
0.2
 41
0.0
 46
0.0
 71
     7
 72
     1
  1
\C12;\c1246947;\FMyriad Pro|b0|i0|c1;\H7.493000;\W1.000000;2
 73
     1
 44
1.0
  0
ENDBLK
  5
B9
330
B6
100
AcDbEntity
  8
0
100
AcDbBlockEnd
  0
BLOCK
  5
BF
330
BD
100
AcDbEntity
  8
0
100
AcDbBlockBegin
  2
Block_10
 70
     0
 10
0.0
 20
0.0
 30
0.0
  3
Block_10
  1

  0
LWPOLYLINE
  5
C1
330
BD
100
AcDbEntity
  8
Camada 1
 62
   250
420
  1907995
370
    13
100
AcDbPolyline
 90
       12
 70
     1
 43
0.0
 10
310.164662011251
 20
-1785.238054587142
 10
270.1631415676924
 20
-1785.238054587142
 10
270.1631415676924
 20
-1760.236738268522
 10
280.1644260161469
 20
-1760.236738268522
 10
280.1644260161469
 20
-1745.23662027097
 10
270.1631415676924
 20
-1745.23662027097
 10
270.1631415676921
 20
-1015.240610118182
 10
280.1644260161467
 20
-1015.240610118182
 10
280.1644260161467
 20
-1000.24049212063
 10
270.1631415676921
 20
-1000.24049212063
 10
270.1631415676921
 20
-975.2391327383174
 10
310.1646620112508
 20
-975.2391327383174
  0
CIRCLE
  5
C2
330
BD
100
AcDbEntity
  8
Camada 1
 62
   242
420
 15016999
370
    13
100
AcDbCircle
 10
294.9743595111508
 20
-1753.534649511518
 30
0.0
 40
9.999999997500292
  0
MTEXT
  5
C3
330
BD
100
AcDbEntity
  8
Camada 1
100
AcDbMText
 10
292.0850998890013
 20
-1756.794231060367
 30
0.0
 40
0.2
 41
0.0
 46
0.0
 71
     7
 72
     1
  1
\C12;\c1246947;\FMyriad Pro|b0|i0|c1;\H7.493000;\W1.000000;2
 73
     1
 44
1.0
  0
ENDBLK
  5
C0
330
BD
100
AcDbEntity
  8
0
100
AcDbBlockEnd
  0
BLOCK
  5
C6
330
C4
100
AcDbEntity
  8
0
100
AcDbBlockBegin
  2
Block_11
 70
     0
 10
0.0
 20
0.0
 30
0.0
  3
Block_11
  1

  0
LWPOLYLINE
  5
C8
330
C4
100
AcDbEntity
  8
Camada 1
 62
   250
420
  1907995
370
    13
100
AcDbPolyline
 90
       12
 70
     1
 43
0.0
 10
259.3646758043327
 20
-1785.238054587142
 10
219.363155360774
 20
-1785.238054587142
 10
219.363155360774
 20
-1760.236738268522
 10
229.3644398092286
 20
-1760.236738268522
 10
229.3644398092286
 20
-1745.23662027097
 10
219.363155360774
 20
-1745.23662027097
 10
219.3631553607737
 20
-1015.240610118182
 10
229.3644398092283
 20
-1015.240610118182
 10
229.3644398092283
 20
-1000.24049212063
 10
219.3631553607737
 20
-1000.24049212063
 10
219.3631553607737
 20
-975.2391327383174
 10
259.3646758043324
 20
-975.2391327383174
  0
CIRCLE
  5
C9
330
C4
100
AcDbEntity
  8
Camada 1
 62
   242
420
 15016999
370
    13
100
AcDbCircle
 10
244.1743733042324
 20
-1753.534649511518
 30
0.0
 40
9.999999997500292
  0
MTEXT
  5
CA
330
C4
100
AcDbEntity
  8
Camada 1
100
AcDbMText
 10
241.2850999017013
 20
-1756.794231060367
 30
0.0
 40
0.2
 41
0.0
 46
0.0
 71
     7
 72
     1
  1
\C12;\c1246947;\FMyriad Pro|b0|i0|c1;\H7.493000;\W1.000000;2
 73
     1
 44
1.0
  0
ENDBLK
  5
C7
330
C4
100
AcDbEntity
  8
0
100
AcDbBlockEnd
  0
BLOCK
  5
CD
330
CB
100
AcDbEntity
  8
0
100
AcDbBlockBegin
  2
Block_12
 70
     0
 10
0.0
 20
0.0
 30
0.0
  3
Block_12
  1

  0
LWPOLYLINE
  5
CF
330
CB
100
AcDbEntity
  8
Camada 1
 62
   250
420
  1907995
370
    13
100
AcDbPolyline
 90
       12
 70
     1
 43
0.0
 10
208.5646895974143
 20
-1785.238054587142
 10
168.5631691538556
 20
-1785.238054587142
 10
168.5631691538556
 20
-1760.236738268522
 10
178.5644536023102
 20
-1760.236738268522
 10
178.5644536023102
 20
-1745.23662027097
 10
168.5631691538556
 20
-1745.23662027097
 10
168.5631691538553
 20
-1015.240610118182
 10
178.5644536023099
 20
-1015.240610118182
 10
178.5644536023099
 20
-1000.24049212063
 10
168.5631691538553
 20
-1000.24049212063
 10
168.5631691538553
 20
-975.2391327383174
 10
208.564689597414
 20
-975.2391327383174
  0
CIRCLE
  5
D0
330
CB
100
AcDbEntity
  8
Camada 1
 62
   242
420
 15016999
370
    13
100
AcDbCircle
 10
193.374387097314
 20
-1753.534649511518
 30
0.0
 40
9.999999997500292
  0
MTEXT
  5
D1
330
CB
100
AcDbEntity
  8
Camada 1
100
AcDbMText
 10
190.4850999144013
 20
-1756.794231060367
 30
0.0
 40
0.2
 41
0.0
 46
0.0
 71
     7
 72
     1
  1
\C12;\c1246947;\FMyriad Pro|b0|i0|c1;\H7.493000;\W1.000000;2
 73
     1
 44
1.0
  0
ENDBLK
  5
CE
330
CB
100
AcDbEntity
  8
0
100
AcDbBlockEnd
  0
BLOCK
  5
D4
330
D2
100
AcDbEntity
  8
0
100
AcDbBlockBegin
  2
Block_13
 70
     0
 10
0.0
 20
0.0
 30
0.0
  3
Block_13
  1

  0
LWPOLYLINE
  5
D6
330
D2
100
AcDbEntity
  8
Camada 1
 62
   250
420
  1907995
370
    13
100
AcDbPolyline
 90
       12
 70
     1
 43
0.0
 10
157.7647033904959
 20
-1785.238054587142
 10
117.7631829469373
 20
-1785.238054587142
 10
117.7631829469373
 20
-1760.236738268522
 10
127.7644673953918
 20
-1760.236738268522
 10
127.7644673953918
 20
-1745.23662027097
 10
117.7631829469373
 20
-1745.23662027097
 10
117.7631829469369
 20
-1015.240610118182
 10
127.7644673953915
 20
-1015.240610118182
 10
127.7644673953915
 20
-1000.24049212063
 10
117.7631829469369
 20
-1000.24049212063
 10
117.7631829469369
 20
-975.2391327383174
 10
157.7647033904956
 20
-975.2391327383174
  0
CIRCLE
  5
D7
330
D2
100
AcDbEntity
  8
Camada 1
 62
   242
420
 15016999
370
    13
100
AcDbCircle
 10
142.5744008903957
 20
-1753.534649511518
 30
0.0
 40
9.999999997500292
  0
MTEXT
  5
D8
330
D2
100
AcDbEntity
  8
Camada 1
100
AcDbMText
 10
139.6852721818756
 20
-1756.794231060367
 30
0.0
 40
0.2
 41
0.0
 46
0.0
 71
     7
 72
     1
  1
\C12;\c1246947;\FMyriad Pro|b0|i0|c1;\H7.493000;\W1.000000;2
 73
     1
 44
1.0
  0
ENDBLK
  5
D5
330
D2
100
AcDbEntity
  8
0
100
AcDbBlockEnd
  0
BLOCK
  5
DB
330
D9
100
AcDbEntity
  8
0
100
AcDbBlockBegin
  2
Block_14
 70
     0
 10
0.0
 20
0.0
 30
0.0
  3
Block_14
  1

  0
INSERT
  5
DE
330
D9
100
AcDbEntity
  8
Camada 1
100
AcDbBlockReference
  2
Block_15
 10
0.0
 20
0.0
 30
0.0
  0
CIRCLE
  5
E3
330
D9
100
AcDbEntity
  8
Camada 1
 62
   242
420
 15016999
370
    13
100
AcDbCircle
 10
505.7092720437063
 20
-876.8503278058007
 30
0.0
 40
9.999999997500292
  0
MTEXT
  5
E4
330
D9
100
AcDbEntity
  8
Camada 1
100
AcDbMText
 10
502.8200404287654
 20
-880.11001700545
 30
0.0
 40
0.2
 41
0.0
 46
0.0
 71
     7
 72
     1
  1
\C12;\c1246947;\FMyriad Pro|b0|i0|c1;\H7.493000;\W1.000000;3
 73
     1
 44
1.0
  0
ENDBLK
  5
DC
330
D9
100
AcDbEntity
  8
0
100
AcDbBlockEnd
  0
BLOCK
  5
DF
330
DD
100
AcDbEntity
  8
0
100
AcDbBlockBegin
  2
Block_15
 70
     0
 10
0.0
 20
0.0
 30
0.0
  3
Block_15
  1

  0
SPLINE
  5
E1
330
DD
100
AcDbEntity
  8
Camada 1
 62
   250
420
  1907995
370
    13
100
AcDbSpline
210
0.0
220
0.0
230
1.0
 70
    11
 71
     3
 72
   131
 73
   127
 74
     0
 42
0.0000000001
 43
0.0000000001
 40
0.0
 40
0.0
 40
0.0
 40
0.0
 40
1.0
 40
1.0
 40
1.0
 40
2.0
 40
2.0
 40
2.0
 40
3.0
 40
3.0
 40
3.0
 40
4.0
 40
4.0
 40
4.0
 40
5.0
 40
5.0
 40
5.0
 40
6.0
 40
6.0
 40
6.0
 40
7.0
 40
7.0
 40
7.0
 40
8.0
 40
8.0
 40
8.0
 40
9.0
 40
9.0
 40
9.0
 40
10.0
 40
10.0
 40
10.0
 40
11.0
 40
11.0
 40
11.0
 40
12.0
 40
12.0
 40
12.0
 40
13.0
 40
13.0
 40
13.0
 40
14.0
 40
14.0
 40
14.0
 40
15.0
 40
15.0
 40
15.0
 40
16.0
 40
16.0
 40
16.0
 40
17.0
 40
17.0
 40
17.0
 40
18.0
 40
18.0
 40
18.0
 40
19.0
 40
19.0
 40
19.0
 40
20.0
 40
20.0
 40
20.0
 40
21.0
 40
21.0
 40
21.0
 40
22.0
 40
22.0
 40
22.0
 40
23.0
 40
23.0
 40
23.0
 40
24.0
 40
24.0
 40
24.0
 40
25.0
 40
25.0
 40
25.0
 40
26.0
 40
26.0
 40
26.0
 40
27.0
 40
27.0
 40
27.0
 40
28.0
 40
28.0
 40
28.0
 40
29.0
 40
29.0
 40
29.0
 40
30.0
 40
30.0
 40
30.0
 40
31.0
 40
31.0
 40
31.0
 40
32.0
 40
32.0
 40
32.0
 40
33.0
 40
33.0
 40
33.0
 40
34.0
 40
34.0
 40
34.0
 40
35.0
 40
35.0
 40
35.0
 40
36.0
 40
36.0
 40
36.0
 40
37.0
 40
37.0
 40
37.0
 40
38.0
 40
38.0
 40
38.0
 40
39.0
 40
39.0
 40
39.0
 40
40.0
 40
40.0
 40
40.0
 40
41.0
 40
41.0
 40
41.0
 40
42.0
 40
42.0
 40
42.0
 40
42.0
 10
526.0863655165088
 20
-908.3419528123409
 30
0.0
 10
526.0863655165088
 20
-908.3419528123409
 30
0.0
 10
486.0884624232097
 20
-908.3419528123409
 30
0.0
 10
486.0884624232097
 20
-908.3419528123409
 30
0.0
 10
486.0884624232097
 20
-908.3419528123409
 30
0.0
 10
486.0884624232097
 20
-215.8426633668672
 30
0.0
 10
486.0884624232097
 20
-215.8426633668672
 30
0.0
 10
486.0884624232097
 20
-215.8426633668672
 30
0.0
 10
516.0886984183138
 20
-215.8426633668672
 30
0.0
 10
516.0886984183138
 20
-215.8426633668672
 30
0.0
 10
516.0886984183138
 20
-215.8426633668672
 30
0.0
 10
516.0886984183138
 20
-200.8425453693152
 30
0.0
 10
516.0886984183138
 20
-200.8425453693152
 30
0.0
 10
516.0886984183138
 20
-200.8425453693152
 30
0.0
 10
486.0884624232097
 20
-200.8425453693152
 30
0.0
 10
486.0884624232097
 20
-200.8425453693152
 30
0.0
 10
486.0884624232097
 20
-200.8425453693152
 30
0.0
 10
486.0884624232097
 20
-128.3431808312334
 30
0.0
 10
486.0884624232097
 20
-128.3431808312334
 30
0.0
 10
486.0884624232097
 20
-128.3431808312334
 30
0.0
 10
566.0878859600675
 20
-128.3431808312334
 30
0.0
 10
566.0878859600675
 20
-128.3431808312334
 30
0.0
 10
566.0878859600675
 20
-128.3431808312334
 30
0.0
 10
566.0878859600675
 20
-158.3433952944907
 30
0.0
 10
566.0878859600675
 20
-158.3433952944907
 30
0.0
 10
566.0878859600675
 20
-158.3433952944907
 30
0.0
 10
536.0876499649634
 20
-158.3433952944907
 30
0.0
 10
536.0876499649634
 20
-158.3433952944907
 30
0.0
 10
536.0876499649634
 20
-158.3433952944907
 30
0.0
 10
536.0876499649634
 20
-173.3435132920428
 30
0.0
 10
536.0876499649634
 20
-173.3435132920428
 30
0.0
 10
536.0876499649634
 20
-173.3435132920428
 30
0.0
 10
566.0878859600675
 20
-173.3435132920428
 30
0.0
 10
566.0878859600675
 20
-173.3435132920428
 30
0.0
 10
566.0878859600675
 20
-173.3435132920428
 30
0.0
 10
566.0878859600675
 20
-243.3416739122928
 30
0.0
 10
566.0878859600675
 20
-243.3416739122928
 30
0.0
 10
566.0878859600675
 20
-243.3416739122928
 30
0.0
 10
536.0876499649634
 20
-243.3416739122928
 30
0.0
 10
536.0876499649634
 20
-243.3416739122928
 30
0.0
 10
536.0876499649634
 20
-243.3416739122928
 30
0.0
 10
536.0876499649634
 20
-258.3417919098449
 30
0.0
 10
536.0876499649634
 20
-258.3417919098449
 30
0.0
 10
536.0876499649634
 20
-258.3417919098449
 30
0.0
 10
566.0878859600675
 20
-258.3417919098449
 30
0.0
 10
566.0878859600675
 20
-258.3417919098449
 30
0.0
 10
566.0878859600675
 20
-258.3417919098449
 30
0.0
 10
566.0878859600675
 20
-328.3434837529673
 30
0.0
 10
566.0878859600675
 20
-328.3434837529673
 30
0.0
 10
566.0878859600675
 20
-328.3434837529673
 30
0.0
 10
536.0876499649634
 20
-328.3434837529673
 30
0.0
 10
536.0876499649634
 20
-328.3434837529673
 30
0.0
 10
536.0876499649634
 20
-328.3434837529673
 30
0.0
 10
536.0876499649634
 20
-343.3436017505193
 30
0.0
 10
536.0876499649634
 20
-343.3436017505193
 30
0.0
 10
536.0876499649634
 20
-343.3436017505193
 30
0.0
 10
566.0878859600675
 20
-343.3436017505193
 30
0.0
 10
566.0878859600675
 20
-343.3436017505193
 30
0.0
 10
566.0878859600675
 20
-343.3436017505193
 30
0.0
 10
566.0878859600675
 20
-413.3417623707693
 30
0.0
 10
566.0878859600675
 20
-413.3417623707693
 30
0.0
 10
566.0878859600675
 20
-413.3417623707693
 30
0.0
 10
536.0876499649634
 20
-413.3417623707693
 30
0.0
 10
536.0876499649634
 20
-413.3417623707693
 30
0.0
 10
536.0876499649634
 20
-413.3417623707693
 30
0.0
 10
536.0876499649634
 20
-428.3418803683214
 30
0.0
 10
536.0876499649634
 20
-428.3418803683214
 30
0.0
 10
536.0876499649634
 20
-428.3418803683214
 30
0.0
 10
566.0878859600675
 20
-428.3418803683214
 30
0.0
 10
566.0878859600675
 20
-428.3418803683214
 30
0.0
 10
566.0878859600675
 20
-428.3418803683214
 30
0.0
 10
566.0878859600675
 20
-498.343550679597
 30
0.0
 10
566.0878859600675
 20
-498.343550679597
 30
0.0
 10
566.0878859600675
 20
-498.343550679597
 30
0.0
 10
536.0876499649634
 20
-498.343550679597
 30
0.0
 10
536.0876499649634
 20
-498.343550679597
 30
0.0
 10
536.0876499649634
 20
-498.343550679597
 30
0.0
 10
536.0876499649634
 20
-513.3436686771491
 30
0.0
 10
536.0876499649634
 20
-513.3436686771491
 30
0.0
 10
536.0876499649634
 20
-513.3436686771491
 30
0.0
 10
566.0878859600675
 20
-513.3436686771491
 30
0.0
 10
566.0878859600675
 20
-513.3436686771491
 30
0.0
 10
566.0878859600675
 20
-513.3436686771491
 30
0.0
 10
566.0878859600675
 20
-583.3418508292459
 30
0.0
 10
566.0878859600675
 20
-583.3418508292459
 30
0.0
 10
566.0878859600675
 20
-583.3418508292459
 30
0.0
 10
536.0876499649634
 20
-583.3418508292459
 30
0.0
 10
536.0876499649634
 20
-583.3418508292459
 30
0.0
 10
536.0876499649634
 20
-583.3418508292459
 30
0.0
 10
536.0876499649634
 20
-598.3419688267979
 30
0.0
 10
536.0876499649634
 20
-598.3419688267979
 30
0.0
 10
536.0876499649634
 20
-598.3419688267979
 30
0.0
 10
566.0878859600675
 20
-598.3419688267979
 30
0.0
 10
566.0878859600675
 20
-598.3419688267979
 30
0.0
 10
566.0878859600675
 20
-598.3419688267979
 30
0.0
 10
566.0878859600675
 20
-668.3436822017671
 30
0.0
 10
566.0878859600675
 20
-668.3436822017671
 30
0.0
 10
566.0878859600675
 20
-668.3436822017671
 30
0.0
 10
536.0876499649634
 20
-668.3436822017671
 30
0.0
 10
536.0876499649634
 20
-668.3436822017671
 30
0.0
 10
536.0876499649634
 20
-668.3436822017671
 30
0.0
 10
536.0876499649634
 20
-683.3437571356256
 30
0.0
 10
536.0876499649634
 20
-683.3437571356256
 30
0.0
 10
536.0876499649634
 20
-683.3437571356256
 30
0.0
 10
566.0878859600675
 20
-683.3437571356256
 30
0.0
 10
566.0878859600675
 20
-683.3437571356256
 30
0.0
 10
566.0878859600675
 20
-683.3437571356256
 30
0.0
 10
566.0878859600675
 20
-753.3454705105948
 30
0.0
 10
566.0878859600675
 20
-753.3454705105948
 30
0.0
 10
566.0878859600675
 20
-753.3454705105948
 30
0.0
 10
536.0876499649634
 20
-753.3454705105948
 30
0.0
 10
536.0876499649634
 20
-753.3454705105948
 30
0.0
 10
536.0876499649634
 20
-753.3454705105948
 30
0.0
 10
536.0876499649634
 20
-768.3455885081468
 30
0.0
 10
536.0876499649634
 20
-768.3455885081468
 30
0.0
 10
536.0876499649634
 20
-768.3455885081468
 30
0.0
 10
566.0878859600675
 20
-768.3455885081468
 30
0.0
 10
566.0878859600675
 20
-768.3455885081468
 30
0.0
 10
566.0878859600675
 20
-768.3455885081468
 30
0.0
 10
566.0878859600675
 20
-808.3434916014462
 30
0.0
 10
566.0878859600675
 20
-808.3434916014462
 30
0.0
 10
566.0878859600675
 20
-830.434477381514
 30
0.0
 10
548.1808825194487
 20
-848.3414808221326
 30
0.0
 10
526.0863655165088
 20
-848.3414808221326
 30
0.0
 10
526.0863655165088
 20
-848.3414808221326
 30
0.0
 10
526.0863655165088
 20
-908.3419528123409
 30
0.0
 10
526.0863655165088
 20
-908.3419528123409
 30
0.0
  0
CIRCLE
  5
E2
330
DD
100
AcDbEntity
  8
Camada 1
 62
   250
420
  1907995
370
    13
100
AcDbCircle
 10
541.2464692996119
 20
-823.6283539639918
 30
0.0
 40
2.499999999375313
  0
ENDBLK
  5
E0
330
DD
100
AcDbEntity
  8
0
100
AcDbBlockEnd
  0
BLOCK
  5
E7
330
E5
100
AcDbEntity
  8
0
100
AcDbBlockBegin
  2
Block_16
 70
     0
 10
0.0
 20
0.0
 30
0.0
  3
Block_16
  1

  0
INSERT
  5
EA
330
E5
100
AcDbEntity
  8
Camada 1
100
AcDbBlockReference
  2
Block_17
 10
0.0
 20
0.0
 30
0.0
  0
CIRCLE
  5
EF
330
E5
100
AcDbEntity
  8
Camada 1
 62
   242
420
 15016999
370
    13
100
AcDbCircle
 10
405.8472696135972
 20
-876.8502847421071
 30
0.0
 40
9.999999997500292
  0
MTEXT
  5
F0
330
E5
100
AcDbEntity
  8
Camada 1
100
AcDbMText
 10
402.9579188716997
 20
-880.1098447506758
 30
0.0
 40
0.2
 41
0.0
 46
0.0
 71
     7
 72
     1
  1
\C12;\c1246947;\FMyriad Pro|b0|i0|c1;\H7.493000;\W1.000000;3
 73
     1
 44
1.0
  0
ENDBLK
  5
E8
330
E5
100
AcDbEntity
  8
0
100
AcDbBlockEnd
  0
BLOCK
  5
EB
330
E9
100
AcDbEntity
  8
0
100
AcDbBlockBegin
  2
Block_17
 70
     0
 10
0.0
 20
0.0
 30
0.0
  3
Block_17
  1

  0
SPLINE
  5
ED
330
E9
100
AcDbEntity
  8
Camada 1
 62
   250
420
  1907995
370
    13
100
AcDbSpline
210
0.0
220
0.0
230
1.0
 70
    11
 71
     3
 72
   131
 73
   127
 74
     0
 42
0.0000000001
 43
0.0000000001
 40
0.0
 40
0.0
 40
0.0
 40
0.0
 40
1.0
 40
1.0
 40
1.0
 40
2.0
 40
2.0
 40
2.0
 40
3.0
 40
3.0
 40
3.0
 40
4.0
 40
4.0
 40
4.0
 40
5.0
 40
5.0
 40
5.0
 40
6.0
 40
6.0
 40
6.0
 40
7.0
 40
7.0
 40
7.0
 40
8.0
 40
8.0
 40
8.0
 40
9.0
 40
9.0
 40
9.0
 40
10.0
 40
10.0
 40
10.0
 40
11.0
 40
11.0
 40
11.0
 40
12.0
 40
12.0
 40
12.0
 40
13.0
 40
13.0
 40
13.0
 40
14.0
 40
14.0
 40
14.0
 40
15.0
 40
15.0
 40
15.0
 40
16.0
 40
16.0
 40
16.0
 40
17.0
 40
17.0
 40
17.0
 40
18.0
 40
18.0
 40
18.0
 40
19.0
 40
19.0
 40
19.0
 40
20.0
 40
20.0
 40
20.0
 40
21.0
 40
21.0
 40
21.0
 40
22.0
 40
22.0
 40
22.0
 40
23.0
 40
23.0
 40
23.0
 40
24.0
 40
24.0
 40
24.0
 40
25.0
 40
25.0
 40
25.0
 40
26.0
 40
26.0
 40
26.0
 40
27.0
 40
27.0
 40
27.0
 40
28.0
 40
28.0
 40
28.0
 40
29.0
 40
29.0
 40
29.0
 40
30.0
 40
30.0
 40
30.0
 40
31.0
 40
31.0
 40
31.0
 40
32.0
 40
32.0
 40
32.0
 40
33.0
 40
33.0
 40
33.0
 40
34.0
 40
34.0
 40
34.0
 40
35.0
 40
35.0
 40
35.0
 40
36.0
 40
36.0
 40
36.0
 40
37.0
 40
37.0
 40
37.0
 40
38.0
 40
38.0
 40
38.0
 40
39.0
 40
39.0
 40
39.0
 40
40.0
 40
40.0
 40
40.0
 40
41.0
 40
41.0
 40
41.0
 40
42.0
 40
42.0
 40
42.0
 40
42.0
 10
426.2243630863997
 20
-908.3419097486473
 30
0.0
 10
426.2243630863997
 20
-908.3419097486473
 30
0.0
 10
386.2264599931006
 20
-908.3419097486473
 30
0.0
 10
386.2264599931006
 20
-908.3419097486473
 30
0.0
 10
386.2264599931006
 20
-908.3419097486473
 30
0.0
 10
386.2264599931006
 20
-215.8426203031737
 30
0.0
 10
386.2264599931006
 20
-215.8426203031737
 30
0.0
 10
386.2264599931006
 20
-215.8426203031737
 30
0.0
 10
416.2266959882047
 20
-215.8426203031737
 30
0.0
 10
416.2266959882047
 20
-215.8426203031737
 30
0.0
 10
416.2266959882047
 20
-215.8426203031737
 30
0.0
 10
416.2266959882047
 20
-200.8425023056216
 30
0.0
 10
416.2266959882047
 20
-200.8425023056216
 30
0.0
 10
416.2266959882047
 20
-200.8425023056216
 30
0.0
 10
386.2264599931006
 20
-200.8425023056216
 30
0.0
 10
386.2264599931006
 20
-200.8425023056216
 30
0.0
 10
386.2264599931006
 20
-200.8425023056216
 30
0.0
 10
386.2264599931006
 20
-128.3431377675398
 30
0.0
 10
386.2264599931006
 20
-128.3431377675398
 30
0.0
 10
386.2264599931006
 20
-128.3431377675398
 30
0.0
 10
466.2258835299584
 20
-128.3431377675398
 30
0.0
 10
466.2258835299584
 20
-128.3431377675398
 30
0.0
 10
466.2258835299584
 20
-128.3431377675398
 30
0.0
 10
466.2258835299584
 20
-158.3433522307971
 30
0.0
 10
466.2258835299584
 20
-158.3433522307971
 30
0.0
 10
466.2258835299584
 20
-158.3433522307971
 30
0.0
 10
436.2256475348543
 20
-158.3433522307971
 30
0.0
 10
436.2256475348543
 20
-158.3433522307971
 30
0.0
 10
436.2256475348543
 20
-158.3433522307971
 30
0.0
 10
436.2256475348543
 20
-173.3434702283492
 30
0.0
 10
436.2256475348543
 20
-173.3434702283492
 30
0.0
 10
436.2256475348543
 20
-173.3434702283492
 30
0.0
 10
466.2258835299584
 20
-173.3434702283492
 30
0.0
 10
466.2258835299584
 20
-173.3434702283492
 30
0.0
 10
466.2258835299584
 20
-173.3434702283492
 30
0.0
 10
466.2258835299584
 20
-243.3416308485992
 30
0.0
 10
466.2258835299584
 20
-243.3416308485992
 30
0.0
 10
466.2258835299584
 20
-243.3416308485992
 30
0.0
 10
436.2256475348543
 20
-243.3416308485992
 30
0.0
 10
436.2256475348543
 20
-243.3416308485992
 30
0.0
 10
436.2256475348543
 20
-243.3416308485992
 30
0.0
 10
436.2256475348543
 20
-258.3417488461513
 30
0.0
 10
436.2256475348543
 20
-258.3417488461513
 30
0.0
 10
436.2256475348543
 20
-258.3417488461513
 30
0.0
 10
466.2258835299584
 20
-258.3417488461513
 30
0.0
 10
466.2258835299584
 20
-258.3417488461513
 30
0.0
 10
466.2258835299584
 20
-258.3417488461513
 30
0.0
 10
466.2258835299584
 20
-328.3434406892737
 30
0.0
 10
466.2258835299584
 20
-328.3434406892737
 30
0.0
 10
466.2258835299584
 20
-328.3434406892737
 30
0.0
 10
436.2256475348543
 20
-328.3434406892737
 30
0.0
 10
436.2256475348543
 20
-328.3434406892737
 30
0.0
 10
436.2256475348543
 20
-328.3434406892737
 30
0.0
 10
436.2256475348543
 20
-343.3435586868258
 30
0.0
 10
436.2256475348543
 20
-343.3435586868258
 30
0.0
 10
436.2256475348543
 20
-343.3435586868258
 30
0.0
 10
466.2258835299584
 20
-343.3435586868258
 30
0.0
 10
466.2258835299584
 20
-343.3435586868258
 30
0.0
 10
466.2258835299584
 20
-343.3435586868258
 30
0.0
 10
466.2258835299584
 20
-413.3417193070758
 30
0.0
 10
466.2258835299584
 20
-413.3417193070758
 30
0.0
 10
466.2258835299584
 20
-413.3417193070758
 30
0.0
 10
436.2256475348543
 20
-413.3417193070758
 30
0.0
 10
436.2256475348543
 20
-413.3417193070758
 30
0.0
 10
436.2256475348543
 20
-413.3417193070758
 30
0.0
 10
436.2256475348543
 20
-428.3418373046278
 30
0.0
 10
436.2256475348543
 20
-428.3418373046278
 30
0.0
 10
436.2256475348543
 20
-428.3418373046278
 30
0.0
 10
466.2258835299584
 20
-428.3418373046278
 30
0.0
 10
466.2258835299584
 20
-428.3418373046278
 30
0.0
 10
466.2258835299584
 20
-428.3418373046278
 30
0.0
 10
466.2258835299584
 20
-498.3435076159034
 30
0.0
 10
466.2258835299584
 20
-498.3435076159034
 30
0.0
 10
466.2258835299584
 20
-498.3435076159034
 30
0.0
 10
436.2256475348543
 20
-498.3435076159034
 30
0.0
 10
436.2256475348543
 20
-498.3435076159034
 30
0.0
 10
436.2256475348543
 20
-498.3435076159034
 30
0.0
 10
436.2256475348543
 20
-513.3436256134555
 30
0.0
 10
436.2256475348543
 20
-513.3436256134555
 30
0.0
 10
436.2256475348543
 20
-513.3436256134555
 30
0.0
 10
466.2258835299584
 20
-513.3436256134555
 30
0.0
 10
466.2258835299584
 20
-513.3436256134555
 30
0.0
 10
466.2258835299584
 20
-513.3436256134555
 30
0.0
 10
466.2258835299584
 20
-583.3418077655523
 30
0.0
 10
466.2258835299584
 20
-583.3418077655523
 30
0.0
 10
466.2258835299584
 20
-583.3418077655523
 30
0.0
 10
436.2256475348543
 20
-583.3418077655523
 30
0.0
 10
436.2256475348543
 20
-583.3418077655523
 30
0.0
 10
436.2256475348543
 20
-583.3418077655523
 30
0.0
 10
436.2256475348543
 20
-598.3419257631044
 30
0.0
 10
436.2256475348543
 20
-598.3419257631044
 30
0.0
 10
436.2256475348543
 20
-598.3419257631044
 30
0.0
 10
466.2258835299584
 20
-598.3419257631044
 30
0.0
 10
466.2258835299584
 20
-598.3419257631044
 30
0.0
 10
466.2258835299584
 20
-598.3419257631044
 30
0.0
 10
466.2258835299584
 20
-668.3436391380736
 30
0.0
 10
466.2258835299584
 20
-668.3436391380736
 30
0.0
 10
466.2258835299584
 20
-668.3436391380736
 30
0.0
 10
436.2256475348543
 20
-668.3436391380736
 30
0.0
 10
436.2256475348543
 20
-668.3436391380736
 30
0.0
 10
436.2256475348543
 20
-668.3436391380736
 30
0.0
 10
436.2256475348543
 20
-683.3437140719321
 30
0.0
 10
436.2256475348543
 20
-683.3437140719321
 30
0.0
 10
436.2256475348543
 20
-683.3437140719321
 30
0.0
 10
466.2258835299584
 20
-683.3437140719321
 30
0.0
 10
466.2258835299584
 20
-683.3437140719321
 30
0.0
 10
466.2258835299584
 20
-683.3437140719321
 30
0.0
 10
466.2258835299584
 20
-753.3454274469012
 30
0.0
 10
466.2258835299584
 20
-753.3454274469012
 30
0.0
 10
466.2258835299584
 20
-753.3454274469012
 30
0.0
 10
436.2256475348543
 20
-753.3454274469012
 30
0.0
 10
436.2256475348543
 20
-753.3454274469012
 30
0.0
 10
436.2256475348543
 20
-753.3454274469012
 30
0.0
 10
436.2256475348543
 20
-768.3455454444533
 30
0.0
 10
436.2256475348543
 20
-768.3455454444533
 30
0.0
 10
436.2256475348543
 20
-768.3455454444533
 30
0.0
 10
466.2258835299584
 20
-768.3455454444533
 30
0.0
 10
466.2258835299584
 20
-768.3455454444533
 30
0.0
 10
466.2258835299584
 20
-768.3455454444533
 30
0.0
 10
466.2258835299584
 20
-808.3434485377528
 30
0.0
 10
466.2258835299584
 20
-808.3434485377528
 30
0.0
 10
466.2258835299584
 20
-830.4344343178202
 30
0.0
 10
448.3188800893397
 20
-848.341437758439
 30
0.0
 10
426.2243630863997
 20
-848.341437758439
 30
0.0
 10
426.2243630863997
 20
-848.341437758439
 30
0.0
 10
426.2243630863997
 20
-908.3419097486473
 30
0.0
 10
426.2243630863997
 20
-908.3419097486473
 30
0.0
  0
CIRCLE
  5
EE
330
E9
100
AcDbEntity
  8
Camada 1
 62
   250
420
  1907995
370
    13
100
AcDbCircle
 10
441.3844668695028
 20
-823.6283109002984
 30
0.0
 40
2.499999999375313
  0
ENDBLK
  5
EC
330
E9
100
AcDbEntity
  8
0
100
AcDbBlockEnd
  0
BLOCK
  5
F3
330
F1
100
AcDbEntity
  8
0
100
AcDbBlockBegin
  2
Block_18
 70
     0
 10
0.0
 20
0.0
 30
0.0
  3
Block_18
  1

  0
INSERT
  5
F6
330
F1
100
AcDbEntity
  8
Camada 1
100
AcDbBlockReference
  2
Block_19
 10
0.0
 20
0.0
 30
0.0
  0
CIRCLE
  5
FB
330
F1
100
AcDbEntity
  8
Camada 1
 62
   242
420
 15016999
370
    13
100
AcDbCircle
 10
305.985267183488
 20
-876.8503493376474
 30
0.0
 40
9.999999997500292
  0
MTEXT
  5
FC
330
F1
100
AcDbEntity
  8
Camada 1
100
AcDbMText
 10
303.0959695694083
 20
-880.11001700545
 30
0.0
 40
0.2
 41
0.0
 46
0.0
 71
     7
 72
     1
  1
\C12;\c1246947;\FMyriad Pro|b0|i0|c1;\H7.493000;\W1.000000;3
 73
     1
 44
1.0
  0
ENDBLK
  5
F4
330
F1
100
AcDbEntity
  8
0
100
AcDbBlockEnd
  0
BLOCK
  5
F7
330
F5
100
AcDbEntity
  8
0
100
AcDbBlockBegin
  2
Block_19
 70
     0
 10
0.0
 20
0.0
 30
0.0
  3
Block_19
  1

  0
SPLINE
  5
F9
330
F5
100
AcDbEntity
  8
Camada 1
 62
   250
420
  1907995
370
    13
100
AcDbSpline
210
0.0
220
0.0
230
1.0
 70
    11
 71
     3
 72
   131
 73
   127
 74
     0
 42
0.0000000001
 43
0.0000000001
 40
0.0
 40
0.0
 40
0.0
 40
0.0
 40
1.0
 40
1.0
 40
1.0
 40
2.0
 40
2.0
 40
2.0
 40
3.0
 40
3.0
 40
3.0
 40
4.0
 40
4.0
 40
4.0
 40
5.0
 40
5.0
 40
5.0
 40
6.0
 40
6.0
 40
6.0
 40
7.0
 40
7.0
 40
7.0
 40
8.0
 40
8.0
 40
8.0
 40
9.0
 40
9.0
 40
9.0
 40
10.0
 40
10.0
 40
10.0
 40
11.0
 40
11.0
 40
11.0
 40
12.0
 40
12.0
 40
12.0
 40
13.0
 40
13.0
 40
13.0
 40
14.0
 40
14.0
 40
14.0
 40
15.0
 40
15.0
 40
15.0
 40
16.0
 40
16.0
 40
16.0
 40
17.0
 40
17.0
 40
17.0
 40
18.0
 40
18.0
 40
18.0
 40
19.0
 40
19.0
 40
19.0
 40
20.0
 40
20.0
 40
20.0
 40
21.0
 40
21.0
 40
21.0
 40
22.0
 40
22.0
 40
22.0
 40
23.0
 40
23.0
 40
23.0
 40
24.0
 40
24.0
 40
24.0
 40
25.0
 40
25.0
 40
25.0
 40
26.0
 40
26.0
 40
26.0
 40
27.0
 40
27.0
 40
27.0
 40
28.0
 40
28.0
 40
28.0
 40
29.0
 40
29.0
 40
29.0
 40
30.0
 40
30.0
 40
30.0
 40
31.0
 40
31.0
 40
31.0
 40
32.0
 40
32.0
 40
32.0
 40
33.0
 40
33.0
 40
33.0
 40
34.0
 40
34.0
 40
34.0
 40
35.0
 40
35.0
 40
35.0
 40
36.0
 40
36.0
 40
36.0
 40
37.0
 40
37.0
 40
37.0
 40
38.0
 40
38.0
 40
38.0
 40
39.0
 40
39.0
 40
39.0
 40
40.0
 40
40.0
 40
40.0
 40
41.0
 40
41.0
 40
41.0
 40
42.0
 40
42.0
 40
42.0
 40
42.0
 10
326.3623606562906
 20
-908.3419743441876
 30
0.0
 10
326.3623606562906
 20
-908.3419743441876
 30
0.0
 10
286.3644575629915
 20
-908.3419743441876
 30
0.0
 10
286.3644575629915
 20
-908.3419743441876
 30
0.0
 10
286.3644575629915
 20
-908.3419743441876
 30
0.0
 10
286.3644575629915
 20
-215.842684898714
 30
0.0
 10
286.3644575629915
 20
-215.842684898714
 30
0.0
 10
286.3644575629915
 20
-215.842684898714
 30
0.0
 10
316.3646935580956
 20
-215.842684898714
 30
0.0
 10
316.3646935580956
 20
-215.842684898714
 30
0.0
 10
316.3646935580956
 20
-215.842684898714
 30
0.0
 10
316.3646935580956
 20
-200.8425669011619
 30
0.0
 10
316.3646935580956
 20
-200.8425669011619
 30
0.0
 10
316.3646935580956
 20
-200.8425669011619
 30
0.0
 10
286.3644575629915
 20
-200.8425669011619
 30
0.0
 10
286.3644575629915
 20
-200.8425669011619
 30
0.0
 10
286.3644575629915
 20
-200.8425669011619
 30
0.0
 10
286.3644575629915
 20
-128.3432023630802
 30
0.0
 10
286.3644575629915
 20
-128.3432023630802
 30
0.0
 10
286.3644575629915
 20
-128.3432023630802
 30
0.0
 10
366.3638810998492
 20
-128.3432023630802
 30
0.0
 10
366.3638810998492
 20
-128.3432023630802
 30
0.0
 10
366.3638810998492
 20
-128.3432023630802
 30
0.0
 10
366.3638810998492
 20
-158.3434168263375
 30
0.0
 10
366.3638810998492
 20
-158.3434168263375
 30
0.0
 10
366.3638810998492
 20
-158.3434168263375
 30
0.0
 10
336.3636451047451
 20
-158.3434168263375
 30
0.0
 10
336.3636451047451
 20
-158.3434168263375
 30
0.0
 10
336.3636451047451
 20
-158.3434168263375
 30
0.0
 10
336.3636451047451
 20
-173.3435348238896
 30
0.0
 10
336.3636451047451
 20
-173.3435348238896
 30
0.0
 10
336.3636451047451
 20
-173.3435348238896
 30
0.0
 10
366.3638810998492
 20
-173.3435348238896
 30
0.0
 10
366.3638810998492
 20
-173.3435348238896
 30
0.0
 10
366.3638810998492
 20
-173.3435348238896
 30
0.0
 10
366.3638810998492
 20
-243.3416954441396
 30
0.0
 10
366.3638810998492
 20
-243.3416954441396
 30
0.0
 10
366.3638810998492
 20
-243.3416954441396
 30
0.0
 10
336.3636451047451
 20
-243.3416954441396
 30
0.0
 10
336.3636451047451
 20
-243.3416954441396
 30
0.0
 10
336.3636451047451
 20
-243.3416954441396
 30
0.0
 10
336.3636451047451
 20
-258.3418134416917
 30
0.0
 10
336.3636451047451
 20
-258.3418134416917
 30
0.0
 10
336.3636451047451
 20
-258.3418134416917
 30
0.0
 10
366.3638810998492
 20
-258.3418134416917
 30
0.0
 10
366.3638810998492
 20
-258.3418134416917
 30
0.0
 10
366.3638810998492
 20
-258.3418134416917
 30
0.0
 10
366.3638810998492
 20
-328.3435052848141
 30
0.0
 10
366.3638810998492
 20
-328.3435052848141
 30
0.0
 10
366.3638810998492
 20
-328.3435052848141
 30
0.0
 10
336.3636451047451
 20
-328.3435052848141
 30
0.0
 10
336.3636451047451
 20
-328.3435052848141
 30
0.0
 10
336.3636451047451
 20
-328.3435052848141
 30
0.0
 10
336.3636451047451
 20
-343.3436232823662
 30
0.0
 10
336.3636451047451
 20
-343.3436232823662
 30
0.0
 10
336.3636451047451
 20
-343.3436232823662
 30
0.0
 10
366.3638810998492
 20
-343.3436232823662
 30
0.0
 10
366.3638810998492
 20
-343.3436232823662
 30
0.0
 10
366.3638810998492
 20
-343.3436232823662
 30
0.0
 10
366.3638810998492
 20
-413.3417839026161
 30
0.0
 10
366.3638810998492
 20
-413.3417839026161
 30
0.0
 10
366.3638810998492
 20
-413.3417839026161
 30
0.0
 10
336.3636451047451
 20
-413.3417839026161
 30
0.0
 10
336.3636451047451
 20
-413.3417839026161
 30
0.0
 10
336.3636451047451
 20
-413.3417839026161
 30
0.0
 10
336.3636451047451
 20
-428.3419019001682
 30
0.0
 10
336.3636451047451
 20
-428.3419019001682
 30
0.0
 10
336.3636451047451
 20
-428.3419019001682
 30
0.0
 10
366.3638810998492
 20
-428.3419019001682
 30
0.0
 10
366.3638810998492
 20
-428.3419019001682
 30
0.0
 10
366.3638810998492
 20
-428.3419019001682
 30
0.0
 10
366.3638810998492
 20
-498.3435722114438
 30
0.0
 10
366.3638810998492
 20
-498.3435722114438
 30
0.0
 10
366.3638810998492
 20
-498.3435722114438
 30
0.0
 10
336.3636451047451
 20
-498.3435722114438
 30
0.0
 10
336.3636451047451
 20
-498.3435722114438
 30
0.0
 10
336.3636451047451
 20
-498.3435722114438
 30
0.0
 10
336.3636451047451
 20
-513.3436902089958
 30
0.0
 10
336.3636451047451
 20
-513.3436902089958
 30
0.0
 10
336.3636451047451
 20
-513.3436902089958
 30
0.0
 10
366.3638810998492
 20
-513.3436902089958
 30
0.0
 10
366.3638810998492
 20
-513.3436902089958
 30
0.0
 10
366.3638810998492
 20
-513.3436902089958
 30
0.0
 10
366.3638810998492
 20
-583.3418723610926
 30
0.0
 10
366.3638810998492
 20
-583.3418723610926
 30
0.0
 10
366.3638810998492
 20
-583.3418723610926
 30
0.0
 10
336.3636451047451
 20
-583.3418723610926
 30
0.0
 10
336.3636451047451
 20
-583.3418723610926
 30
0.0
 10
336.3636451047451
 20
-583.3418723610926
 30
0.0
 10
336.3636451047451
 20
-598.3419903586447
 30
0.0
 10
336.3636451047451
 20
-598.3419903586447
 30
0.0
 10
336.3636451047451
 20
-598.3419903586447
 30
0.0
 10
366.3638810998492
 20
-598.3419903586447
 30
0.0
 10
366.3638810998492
 20
-598.3419903586447
 30
0.0
 10
366.3638810998492
 20
-598.3419903586447
 30
0.0
 10
366.3638810998492
 20
-668.3437037336139
 30
0.0
 10
366.3638810998492
 20
-668.3437037336139
 30
0.0
 10
366.3638810998492
 20
-668.3437037336139
 30
0.0
 10
336.3636451047451
 20
-668.3437037336139
 30
0.0
 10
336.3636451047451
 20
-668.3437037336139
 30
0.0
 10
336.3636451047451
 20
-668.3437037336139
 30
0.0
 10
336.3636451047451
 20
-683.3437786674724
 30
0.0
 10
336.3636451047451
 20
-683.3437786674724
 30
0.0
 10
336.3636451047451
 20
-683.3437786674724
 30
0.0
 10
366.3638810998492
 20
-683.3437786674724
 30
0.0
 10
366.3638810998492
 20
-683.3437786674724
 30
0.0
 10
366.3638810998492
 20
-683.3437786674724
 30
0.0
 10
366.3638810998492
 20
-753.3454920424416
 30
0.0
 10
366.3638810998492
 20
-753.3454920424416
 30
0.0
 10
366.3638810998492
 20
-753.3454920424416
 30
0.0
 10
336.3636451047451
 20
-753.3454920424416
 30
0.0
 10
336.3636451047451
 20
-753.3454920424416
 30
0.0
 10
336.3636451047451
 20
-753.3454920424416
 30
0.0
 10
336.3636451047451
 20
-768.3456100399936
 30
0.0
 10
336.3636451047451
 20
-768.3456100399936
 30
0.0
 10
336.3636451047451
 20
-768.3456100399936
 30
0.0
 10
366.3638810998492
 20
-768.3456100399936
 30
0.0
 10
366.3638810998492
 20
-768.3456100399936
 30
0.0
 10
366.3638810998492
 20
-768.3456100399936
 30
0.0
 10
366.3638810998492
 20
-808.3435131332931
 30
0.0
 10
366.3638810998492
 20
-808.3435131332931
 30
0.0
 10
366.3638810998492
 20
-830.4344989133607
 30
0.0
 10
348.4568776592305
 20
-848.3415023539794
 30
0.0
 10
326.3623606562906
 20
-848.3415023539794
 30
0.0
 10
326.3623606562906
 20
-848.3415023539794
 30
0.0
 10
326.3623606562906
 20
-908.3419743441876
 30
0.0
 10
326.3623606562906
 20
-908.3419743441876
 30
0.0
  0
CIRCLE
  5
FA
330
F5
100
AcDbEntity
  8
Camada 1
 62
   250
420
  1907995
370
    13
100
AcDbCircle
 10
341.5224644393938
 20
-823.6283754958387
 30
0.0
 40
2.499999999375313
  0
ENDBLK
  5
F8
330
F5
100
AcDbEntity
  8
0
100
AcDbBlockEnd
  0
BLOCK
  5
FF
330
FD
100
AcDbEntity
  8
0
100
AcDbBlockBegin
  2
Block_20
 70
     0
 10
0.0
 20
0.0
 30
0.0
  3
Block_20
  1

  0
INSERT
  5
102
330
FD
100
AcDbEntity
  8
Camada 1
100
AcDbBlockReference
  2
Block_21
 10
0.0
 20
0.0
 30
0.0
  0
CIRCLE
  5
107
330
FD
100
AcDbEntity
  8
Camada 1
 62
   242
420
 15016999
370
    13
100
AcDbCircle
 10
206.1232647533789
 20
-876.8503062739538
 30
0.0
 40
9.999999997500292
  0
MTEXT
  5
108
330
FD
100
AcDbEntity
  8
Camada 1
100
AcDbMText
 10
203.2340202671168
 20
-880.11001700545
 30
0.0
 40
0.2
 41
0.0
 46
0.0
 71
     7
 72
     1
  1
\C12;\c1246947;\FMyriad Pro|b0|i0|c1;\H7.493000;\W1.000000;3
 73
     1
 44
1.0
  0
ENDBLK
  5
100
330
FD
100
AcDbEntity
  8
0
100
AcDbBlockEnd
  0
BLOCK
  5
103
330
101
100
AcDbEntity
  8
0
100
AcDbBlockBegin
  2
Block_21
 70
     0
 10
0.0
 20
0.0
 30
0.0
  3
Block_21
  1

  0
SPLINE
  5
105
330
101
100
AcDbEntity
  8
Camada 1
 62
   250
420
  1907995
370
    13
100
AcDbSpline
210
0.0
220
0.0
230
1.0
 70
    11
 71
     3
 72
   131
 73
   127
 74
     0
 42
0.0000000001
 43
0.0000000001
 40
0.0
 40
0.0
 40
0.0
 40
0.0
 40
1.0
 40
1.0
 40
1.0
 40
2.0
 40
2.0
 40
2.0
 40
3.0
 40
3.0
 40
3.0
 40
4.0
 40
4.0
 40
4.0
 40
5.0
 40
5.0
 40
5.0
 40
6.0
 40
6.0
 40
6.0
 40
7.0
 40
7.0
 40
7.0
 40
8.0
 40
8.0
 40
8.0
 40
9.0
 40
9.0
 40
9.0
 40
10.0
 40
10.0
 40
10.0
 40
11.0
 40
11.0
 40
11.0
 40
12.0
 40
12.0
 40
12.0
 40
13.0
 40
13.0
 40
13.0
 40
14.0
 40
14.0
 40
14.0
 40
15.0
 40
15.0
 40
15.0
 40
16.0
 40
16.0
 40
16.0
 40
17.0
 40
17.0
 40
17.0
 40
18.0
 40
18.0
 40
18.0
 40
19.0
 40
19.0
 40
19.0
 40
20.0
 40
20.0
 40
20.0
 40
21.0
 40
21.0
 40
21.0
 40
22.0
 40
22.0
 40
22.0
 40
23.0
 40
23.0
 40
23.0
 40
24.0
 40
24.0
 40
24.0
 40
25.0
 40
25.0
 40
25.0
 40
26.0
 40
26.0
 40
26.0
 40
27.0
 40
27.0
 40
27.0
 40
28.0
 40
28.0
 40
28.0
 40
29.0
 40
29.0
 40
29.0
 40
30.0
 40
30.0
 40
30.0
 40
31.0
 40
31.0
 40
31.0
 40
32.0
 40
32.0
 40
32.0
 40
33.0
 40
33.0
 40
33.0
 40
34.0
 40
34.0
 40
34.0
 40
35.0
 40
35.0
 40
35.0
 40
36.0
 40
36.0
 40
36.0
 40
37.0
 40
37.0
 40
37.0
 40
38.0
 40
38.0
 40
38.0
 40
39.0
 40
39.0
 40
39.0
 40
40.0
 40
40.0
 40
40.0
 40
41.0
 40
41.0
 40
41.0
 40
42.0
 40
42.0
 40
42.0
 40
42.0
 10
226.5003582261815
 20
-908.341931280494
 30
0.0
 10
226.5003582261815
 20
-908.341931280494
 30
0.0
 10
186.5024551328824
 20
-908.341931280494
 30
0.0
 10
186.5024551328824
 20
-908.341931280494
 30
0.0
 10
186.5024551328824
 20
-908.341931280494
 30
0.0
 10
186.5024551328824
 20
-215.8426418350205
 30
0.0
 10
186.5024551328824
 20
-215.8426418350205
 30
0.0
 10
186.5024551328824
 20
-215.8426418350205
 30
0.0
 10
216.5026911279865
 20
-215.8426418350205
 30
0.0
 10
216.5026911279865
 20
-215.8426418350205
 30
0.0
 10
216.5026911279865
 20
-215.8426418350205
 30
0.0
 10
216.5026911279865
 20
-200.8425238374684
 30
0.0
 10
216.5026911279865
 20
-200.8425238374684
 30
0.0
 10
216.5026911279865
 20
-200.8425238374684
 30
0.0
 10
186.5024551328824
 20
-200.8425238374684
 30
0.0
 10
186.5024551328824
 20
-200.8425238374684
 30
0.0
 10
186.5024551328824
 20
-200.8425238374684
 30
0.0
 10
186.5024551328824
 20
-128.3431592993866
 30
0.0
 10
186.5024551328824
 20
-128.3431592993866
 30
0.0
 10
186.5024551328824
 20
-128.3431592993866
 30
0.0
 10
266.5018786697402
 20
-128.3431592993866
 30
0.0
 10
266.5018786697402
 20
-128.3431592993866
 30
0.0
 10
266.5018786697402
 20
-128.3431592993866
 30
0.0
 10
266.5018786697402
 20
-158.3433737626439
 30
0.0
 10
266.5018786697402
 20
-158.3433737626439
 30
0.0
 10
266.5018786697402
 20
-158.3433737626439
 30
0.0
 10
236.501642674636
 20
-158.3433737626439
 30
0.0
 10
236.501642674636
 20
-158.3433737626439
 30
0.0
 10
236.501642674636
 20
-158.3433737626439
 30
0.0
 10
236.501642674636
 20
-173.343491760196
 30
0.0
 10
236.501642674636
 20
-173.343491760196
 30
0.0
 10
236.501642674636
 20
-173.343491760196
 30
0.0
 10
266.5018786697402
 20
-173.343491760196
 30
0.0
 10
266.5018786697402
 20
-173.343491760196
 30
0.0
 10
266.5018786697402
 20
-173.343491760196
 30
0.0
 10
266.5018786697402
 20
-243.341652380446
 30
0.0
 10
266.5018786697402
 20
-243.341652380446
 30
0.0
 10
266.5018786697402
 20
-243.341652380446
 30
0.0
 10
236.501642674636
 20
-243.341652380446
 30
0.0
 10
236.501642674636
 20
-243.341652380446
 30
0.0
 10
236.501642674636
 20
-243.341652380446
 30
0.0
 10
236.501642674636
 20
-258.3417703779981
 30
0.0
 10
236.501642674636
 20
-258.3417703779981
 30
0.0
 10
236.501642674636
 20
-258.3417703779981
 30
0.0
 10
266.5018786697402
 20
-258.3417703779981
 30
0.0
 10
266.5018786697402
 20
-258.3417703779981
 30
0.0
 10
266.5018786697402
 20
-258.3417703779981
 30
0.0
 10
266.5018786697402
 20
-328.3434622211205
 30
0.0
 10
266.5018786697402
 20
-328.3434622211205
 30
0.0
 10
266.5018786697402
 20
-328.3434622211205
 30
0.0
 10
236.501642674636
 20
-328.3434622211205
 30
0.0
 10
236.501642674636
 20
-328.3434622211205
 30
0.0
 10
236.501642674636
 20
-328.3434622211205
 30
0.0
 10
236.501642674636
 20
-343.3435802186726
 30
0.0
 10
236.501642674636
 20
-343.3435802186726
 30
0.0
 10
236.501642674636
 20
-343.3435802186726
 30
0.0
 10
266.5018786697402
 20
-343.3435802186726
 30
0.0
 10
266.5018786697402
 20
-343.3435802186726
 30
0.0
 10
266.5018786697402
 20
-343.3435802186726
 30
0.0
 10
266.5018786697402
 20
-413.3417408389226
 30
0.0
 10
266.5018786697402
 20
-413.3417408389226
 30
0.0
 10
266.5018786697402
 20
-413.3417408389226
 30
0.0
 10
236.501642674636
 20
-413.3417408389226
 30
0.0
 10
236.501642674636
 20
-413.3417408389226
 30
0.0
 10
236.501642674636
 20
-413.3417408389226
 30
0.0
 10
236.501642674636
 20
-428.3418588364746
 30
0.0
 10
236.501642674636
 20
-428.3418588364746
 30
0.0
 10
236.501642674636
 20
-428.3418588364746
 30
0.0
 10
266.5018786697402
 20
-428.3418588364746
 30
0.0
 10
266.5018786697402
 20
-428.3418588364746
 30
0.0
 10
266.5018786697402
 20
-428.3418588364746
 30
0.0
 10
266.5018786697402
 20
-498.3435291477502
 30
0.0
 10
266.5018786697402
 20
-498.3435291477502
 30
0.0
 10
266.5018786697402
 20
-498.3435291477502
 30
0.0
 10
236.501642674636
 20
-498.3435291477502
 30
0.0
 10
236.501642674636
 20
-498.3435291477502
 30
0.0
 10
236.501642674636
 20
-498.3435291477502
 30
0.0
 10
236.501642674636
 20
-513.3436471453022
 30
0.0
 10
236.501642674636
 20
-513.3436471453022
 30
0.0
 10
236.501642674636
 20
-513.3436471453022
 30
0.0
 10
266.5018786697402
 20
-513.3436471453022
 30
0.0
 10
266.5018786697402
 20
-513.3436471453022
 30
0.0
 10
266.5018786697402
 20
-513.3436471453022
 30
0.0
 10
266.5018786697402
 20
-583.3418292973991
 30
0.0
 10
266.5018786697402
 20
-583.3418292973991
 30
0.0
 10
266.5018786697402
 20
-583.3418292973991
 30
0.0
 10
236.501642674636
 20
-583.3418292973991
 30
0.0
 10
236.501642674636
 20
-583.3418292973991
 30
0.0
 10
236.501642674636
 20
-583.3418292973991
 30
0.0
 10
236.501642674636
 20
-598.3419472949512
 30
0.0
 10
236.501642674636
 20
-598.3419472949512
 30
0.0
 10
236.501642674636
 20
-598.3419472949512
 30
0.0
 10
266.5018786697402
 20
-598.3419472949512
 30
0.0
 10
266.5018786697402
 20
-598.3419472949512
 30
0.0
 10
266.5018786697402
 20
-598.3419472949512
 30
0.0
 10
266.5018786697402
 20
-668.3436606699204
 30
0.0
 10
266.5018786697402
 20
-668.3436606699204
 30
0.0
 10
266.5018786697402
 20
-668.3436606699204
 30
0.0
 10
236.501642674636
 20
-668.3436606699204
 30
0.0
 10
236.501642674636
 20
-668.3436606699204
 30
0.0
 10
236.501642674636
 20
-668.3436606699204
 30
0.0
 10
236.501642674636
 20
-683.3437356037789
 30
0.0
 10
236.501642674636
 20
-683.3437356037789
 30
0.0
 10
236.501642674636
 20
-683.3437356037789
 30
0.0
 10
266.5018786697402
 20
-683.3437356037789
 30
0.0
 10
266.5018786697402
 20
-683.3437356037789
 30
0.0
 10
266.5018786697402
 20
-683.3437356037789
 30
0.0
 10
266.5018786697402
 20
-753.345448978748
 30
0.0
 10
266.5018786697402
 20
-753.345448978748
 30
0.0
 10
266.5018786697402
 20
-753.345448978748
 30
0.0
 10
236.501642674636
 20
-753.345448978748
 30
0.0
 10
236.501642674636
 20
-753.345448978748
 30
0.0
 10
236.501642674636
 20
-753.345448978748
 30
0.0
 10
236.501642674636
 20
-768.3455669763
 30
0.0
 10
236.501642674636
 20
-768.3455669763
 30
0.0
 10
236.501642674636
 20
-768.3455669763
 30
0.0
 10
266.5018786697402
 20
-768.3455669763
 30
0.0
 10
266.5018786697402
 20
-768.3455669763
 30
0.0
 10
266.5018786697402
 20
-768.3455669763
 30
0.0
 10
266.5018786697402
 20
-808.3434700695995
 30
0.0
 10
266.5018786697402
 20
-808.3434700695995
 30
0.0
 10
266.5018786697402
 20
-830.4344558496671
 30
0.0
 10
248.5948752291214
 20
-848.3414592902857
 30
0.0
 10
226.5003582261815
 20
-848.3414592902857
 30
0.0
 10
226.5003582261815
 20
-848.3414592902857
 30
0.0
 10
226.5003582261815
 20
-908.341931280494
 30
0.0
 10
226.5003582261815
 20
-908.341931280494
 30
0.0
  0
CIRCLE
  5
106
330
101
100
AcDbEntity
  8
Camada 1
 62
   250
420
  1907995
370
    13
100
AcDbCircle
 10
241.6604620092846
 20
-823.6283324321451
 30
0.0
 40
2.499999999375313
  0
ENDBLK
  5
104
330
101
100
AcDbEntity
  8
0
100
AcDbBlockEnd
  0
BLOCK
  5
10B
330
109
100
AcDbEntity
  8
0
100
AcDbBlockBegin
  2
Block_22
 70
     0
 10
0.0
 20
0.0
 30
0.0
  3
Block_22
  1

  0
LWPOLYLINE
  5
10D
330
109
100
AcDbEntity
  8
Camada 1
 62
   250
420
  1907995
370
    13
100
AcDbPolyline
 90
       12
 70
     1
 43
0.0
 10
1446.615089153761
 20
-1031.852262220006
 10
1446.615089153761
 20
-1071.853782663564
 10
636.616167304937
 20
-1071.853782663564
 10
636.616167304937
 20
-1031.852262220006
 10
676.61411346193
 20
-1031.852262220006
 10
676.61411346193
 20
-1041.853460541073
 10
691.6142314594821
 20
-1041.853460541073
 10
691.6142314594821
 20
-1031.852262220006
 10
1391.613536840038
 20
-1031.852262220006
 10
1391.613536840038
 20
-1041.853460541073
 10
1406.61365483759
 20
-1041.853460541073
 10
1406.61365483759
 20
-1031.852262220006
  0
CIRCLE
  5
10E
330
109
100
AcDbEntity
  8
Camada 1
 62
   242
420
 15016999
370
    13
100
AcDbCircle
 10
1428.46796255782
 20
-1051.853022441785
 30
0.0
 40
9.999999997500133
  0
MTEXT
  5
10F
330
109
100
AcDbEntity
  8
Camada 1
100
AcDbMText
 10
1431.727595670714
 20
-1054.742510044474
 30
0.0
 40
0.2
 41
0.0
 46
0.0
 71
     7
 72
     1
  1
\C12;\c1246947;\FMyriad Pro|b0|i0|c1;\H7.493000;\W1.000000;4
 11
-0.0000000000000002
 21
1.0
 31
0.0
 73
     1
 44
1.0
  0
ENDBLK
  5
10C
330
109
100
AcDbEntity
  8
0
100
AcDbBlockEnd
  0
BLOCK
  5
112
330
110
100
AcDbEntity
  8
0
100
AcDbBlockBegin
  2
Block_23
 70
     0
 10
0.0
 20
0.0
 30
0.0
  3
Block_23
  1

  0
LWPOLYLINE
  5
114
330
110
100
AcDbEntity
  8
Camada 1
 62
   250
420
  1907995
370
    13
100
AcDbPolyline
 90
       12
 70
     1
 43
0.0
 10
1446.615089153761
 20
-1079.177236680037
 10
1446.615089153761
 20
-1119.178757123596
 10
636.616167304937
 20
-1119.178757123596
 10
636.616167304937
 20
-1079.177236680037
 10
676.61411346193
 20
-1079.177236680037
 10
676.61411346193
 20
-1089.178435001105
 10
691.6142314594821
 20
-1089.178435001105
 10
691.6142314594821
 20
-1079.177236680037
 10
1391.613536840038
 20
-1079.177236680037
 10
1391.613536840038
 20
-1089.178435001105
 10
1406.61365483759
 20
-1089.178435001105
 10
1406.61365483759
 20
-1079.177236680037
  0
CIRCLE
  5
115
330
110
100
AcDbEntity
  8
Camada 1
 62
   242
420
 15016999
370
    13
100
AcDbCircle
 10
1428.46796255782
 20
-1099.177996901817
 30
0.0
 40
9.999999997500133
  0
MTEXT
  5
116
330
110
100
AcDbEntity
  8
Camada 1
100
AcDbMText
 10
1431.727595670714
 20
-1102.067442215802
 30
0.0
 40
0.2
 41
0.0
 46
0.0
 71
     7
 72
     1
  1
\C12;\c1246947;\FMyriad Pro|b0|i0|c1;\H7.493000;\W1.000000;4
 11
-0.0000000000000002
 21
1.0
 31
0.0
 73
     1
 44
1.0
  0
ENDBLK
  5
113
330
110
100
AcDbEntity
  8
0
100
AcDbBlockEnd
  0
BLOCK
  5
119
330
117
100
AcDbEntity
  8
0
100
AcDbBlockBegin
  2
Block_24
 70
     0
 10
0.0
 20
0.0
 30
0.0
  3
Block_24
  1

  0
LWPOLYLINE
  5
11B
330
117
100
AcDbEntity
  8
Camada 1
 62
   250
420
  1907995
370
    13
100
AcDbPolyline
 90
       12
 70
     1
 43
0.0
 10
1446.615089153761
 20
-1126.502211140069
 10
1446.615089153761
 20
-1166.503731583628
 10
636.616167304937
 20
-1166.503731583627
 10
636.616167304937
 20
-1126.502211140069
 10
676.61411346193
 20
-1126.502211140069
 10
676.61411346193
 20
-1136.503409461136
 10
691.6142314594821
 20
-1136.503409461136
 10
691.6142314594821
 20
-1126.502211140069
 10
1391.613536840038
 20
-1126.502211140069
 10
1391.613536840038
 20
-1136.503409461137
 10
1406.61365483759
 20
-1136.503409461137
 10
1406.61365483759
 20
-1126.502211140069
  0
CIRCLE
  5
11C
330
117
100
AcDbEntity
  8
Camada 1
 62
   242
420
 15016999
370
    13
100
AcDbCircle
 10
1428.46796255782
 20
-1146.502971361849
 30
0.0
 40
9.999999997500133
  0
MTEXT
  5
11D
330
117
100
AcDbEntity
  8
Camada 1
100
AcDbMText
 10
1431.727595670714
 20
-1149.392374387131
 30
0.0
 40
0.2
 41
0.0
 46
0.0
 71
     7
 72
     1
  1
\C12;\c1246947;\FMyriad Pro|b0|i0|c1;\H7.493000;\W1.000000;4
 11
-0.0000000000000002
 21
1.0
 31
0.0
 73
     1
 44
1.0
  0
ENDBLK
  5
11A
330
117
100
AcDbEntity
  8
0
100
AcDbBlockEnd
  0
BLOCK
  5
120
330
11E
100
AcDbEntity
  8
0
100
AcDbBlockBegin
  2
Block_25
 70
     0
 10
0.0
 20
0.0
 30
0.0
  3
Block_25
  1

  0
LWPOLYLINE
  5
122
330
11E
100
AcDbEntity
  8
Camada 1
 62
   250
420
  1907995
370
    13
100
AcDbPolyline
 90
       12
 70
     1
 43
0.0
 10
1446.615089153761
 20
-1173.827185600101
 10
1446.615089153761
 20
-1213.82870604366
 10
636.616167304937
 20
-1213.828706043659
 10
636.616167304937
 20
-1173.8271856001
 10
676.61411346193
 20
-1173.8271856001
 10
676.61411346193
 20
-1183.828383921168
 10
691.6142314594821
 20
-1183.828383921168
 10
691.6142314594821
 20
-1173.8271856001
 10
1391.613536840038
 20
-1173.827185600101
 10
1391.613536840038
 20
-1183.828383921168
 10
1406.61365483759
 20
-1183.828383921168
 10
1406.61365483759
 20
-1173.827185600101
  0
CIRCLE
  5
123
330
11E
100
AcDbEntity
  8
Camada 1
 62
   242
420
 15016999
370
    13
100
AcDbCircle
 10
1428.46796255782
 20
-1193.827945821881
 30
0.0
 40
9.999999997500133
  0
MTEXT
  5
124
330
11E
100
AcDbEntity
  8
Camada 1
100
AcDbMText
 10
1431.727595670714
 20
-1196.717306558459
 30
0.0
 40
0.2
 41
0.0
 46
0.0
 71
     7
 72
     1
  1
\C12;\c1246947;\FMyriad Pro|b0|i0|c1;\H7.493000;\W1.000000;4
 11
-0.0000000000000002
 21
1.0
 31
0.0
 73
     1
 44
1.0
  0
ENDBLK
  5
121
330
11E
100
AcDbEntity
  8
0
100
AcDbBlockEnd
  0
BLOCK
  5
127
330
125
100
AcDbEntity
  8
0
100
AcDbBlockBegin
  2
Block_26
 70
     0
 10
0.0
 20
0.0
 30
0.0
  3
Block_26
  1

  0
LWPOLYLINE
  5
129
330
125
100
AcDbEntity
  8
Camada 1
 62
   250
420
  1907995
370
    13
100
AcDbPolyline
 90
       12
 70
     1
 43
0.0
 10
1446.615089153761
 20
-1221.152160060133
 10
1446.615089153761
 20
-1261.153680503692
 10
636.6161673049374
 20
-1261.153680503691
 10
636.6161673049374
 20
-1221.152160060132
 10
676.61411346193
 20
-1221.152160060132
 10
676.61411346193
 20
-1231.1533583812
 10
691.6142314594821
 20
-1231.1533583812
 10
691.6142314594821
 20
-1221.152160060132
 10
1391.613536840038
 20
-1221.152160060133
 10
1391.613536840038
 20
-1231.1533583812
 10
1406.61365483759
 20
-1231.1533583812
 10
1406.61365483759
 20
-1221.152160060133
  0
CIRCLE
  5
12A
330
125
100
AcDbEntity
  8
Camada 1
 62
   242
420
 15016999
370
    13
100
AcDbCircle
 10
1428.46796255782
 20
-1241.152920281912
 30
0.0
 40
9.999999997500133
  0
MTEXT
  5
12B
330
125
100
AcDbEntity
  8
Camada 1
100
AcDbMText
 10
1431.727595670714
 20
-1244.042410984562
 30
0.0
 40
0.2
 41
0.0
 46
0.0
 71
     7
 72
     1
  1
\C12;\c1246947;\FMyriad Pro|b0|i0|c1;\H7.493000;\W1.000000;4
 11
-0.0000000000000002
 21
1.0
 31
0.0
 73
     1
 44
1.0
  0
ENDBLK
  5
128
330
125
100
AcDbEntity
  8
0
100
AcDbBlockEnd
  0
BLOCK
  5
12E
330
12C
100
AcDbEntity
  8
0
100
AcDbBlockBegin
  2
Block_27
 70
     0
 10
0.0
 20
0.0
 30
0.0
  3
Block_27
  1

  0
LWPOLYLINE
  5
130
330
12C
100
AcDbEntity
  8
Camada 1
 62
   250
420
  1907995
370
    13
100
AcDbPolyline
 90
       12
 70
     1
 43
0.0
 10
1446.615089153761
 20
-1268.477134520165
 10
1446.615089153761
 20
-1308.478654963723
 10
636.6161673049374
 20
-1308.478654963723
 10
636.6161673049374
 20
-1268.477134520164
 10
676.61411346193
 20
-1268.477134520164
 10
676.61411346193
 20
-1278.478332841232
 10
691.6142314594821
 20
-1278.478332841232
 10
691.6142314594821
 20
-1268.477134520164
 10
1391.613536840038
 20
-1268.477134520165
 10
1391.613536840038
 20
-1278.478332841232
 10
1406.61365483759
 20
-1278.478332841232
 10
1406.61365483759
 20
-1268.477134520165
  0
CIRCLE
  5
131
330
12C
100
AcDbEntity
  8
Camada 1
 62
   242
420
 15016999
370
    13
100
AcDbCircle
 10
1428.46796255782
 20
-1288.477894741944
 30
0.0
 40
9.999999997500133
  0
MTEXT
  5
132
330
12C
100
AcDbEntity
  8
Camada 1
100
AcDbMText
 10
1431.727595670714
 20
-1291.367343155891
 30
0.0
 40
0.2
 41
0.0
 46
0.0
 71
     7
 72
     1
  1
\C12;\c1246947;\FMyriad Pro|b0|i0|c1;\H7.493000;\W1.000000;4
 11
-0.0000000000000002
 21
1.0
 31
0.0
 73
     1
 44
1.0
  0
ENDBLK
  5
12F
330
12C
100
AcDbEntity
  8
0
100
AcDbBlockEnd
  0
BLOCK
  5
135
330
133
100
AcDbEntity
  8
0
100
AcDbBlockBegin
  2
Block_28
 70
     0
 10
0.0
 20
0.0
 30
0.0
  3
Block_28
  1

  0
LWPOLYLINE
  5
137
330
133
100
AcDbEntity
  8
Camada 1
 62
   250
420
  1907995
370
    13
100
AcDbPolyline
 90
       12
 70
     1
 43
0.0
 10
1446.615089153761
 20
-1315.802108980197
 10
1446.615089153761
 20
-1355.803629423755
 10
636.6161673049374
 20
-1355.803629423754
 10
636.6161673049374
 20
-1315.802108980196
 10
676.61411346193
 20
-1315.802108980196
 10
676.61411346193
 20
-1325.803307301264
 10
691.6142314594821
 20
-1325.803307301264
 10
691.6142314594821
 20
-1315.802108980196
 10
1391.613536840038
 20
-1315.802108980197
 10
1391.613536840038
 20
-1325.803307301264
 10
1406.61365483759
 20
-1325.803307301264
 10
1406.61365483759
 20
-1315.802108980197
  0
CIRCLE
  5
138
330
133
100
AcDbEntity
  8
Camada 1
 62
   242
420
 15016999
370
    13
100
AcDbCircle
 10
1428.46796255782
 20
-1335.802869201976
 30
0.0
 40
9.999999997500133
  0
MTEXT
  5
139
330
133
100
AcDbEntity
  8
Camada 1
100
AcDbMText
 10
1431.727595670714
 20
-1338.692275327219
 30
0.0
 40
0.2
 41
0.0
 46
0.0
 71
     7
 72
     1
  1
\C12;\c1246947;\FMyriad Pro|b0|i0|c1;\H7.493000;\W1.000000;4
 11
-0.0000000000000002
 21
1.0
 31
0.0
 73
     1
 44
1.0
  0
ENDBLK
  5
136
330
133
100
AcDbEntity
  8
0
100
AcDbBlockEnd
  0
BLOCK
  5
13C
330
13A
100
AcDbEntity
  8
0
100
AcDbBlockBegin
  2
Block_29
 70
     0
 10
0.0
 20
0.0
 30
0.0
  3
Block_29
  1

  0
LWPOLYLINE
  5
13E
330
13A
100
AcDbEntity
  8
Camada 1
 62
   250
420
  1907995
370
    13
100
AcDbPolyline
 90
       12
 70
     1
 43
0.0
 10
1446.615089153761
 20
-1363.127083440228
 10
1446.615089153761
 20
-1403.128603883786
 10
636.6161673049374
 20
-1403.128603883786
 10
636.6161673049374
 20
-1363.127083440228
 10
676.61411346193
 20
-1363.127083440228
 10
676.61411346193
 20
-1373.128281761295
 10
691.6142314594821
 20
-1373.128281761295
 10
691.6142314594821
 20
-1363.127083440228
 10
1391.613536840038
 20
-1363.127083440228
 10
1391.613536840038
 20
-1373.128281761296
 10
1406.61365483759
 20
-1373.128281761296
 10
1406.61365483759
 20
-1363.127083440228
  0
CIRCLE
  5
13F
330
13A
100
AcDbEntity
  8
Camada 1
 62
   242
420
 15016999
370
    13
100
AcDbCircle
 10
1428.46796255782
 20
-1383.127843662008
 30
0.0
 40
9.999999997500133
  0
MTEXT
  5
140
330
13A
100
AcDbEntity
  8
Camada 1
100
AcDbMText
 10
1431.727595670714
 20
-1386.017207498548
 30
0.0
 40
0.2
 41
0.0
 46
0.0
 71
     7
 72
     1
  1
\C12;\c1246947;\FMyriad Pro|b0|i0|c1;\H7.493000;\W1.000000;4
 11
-0.0000000000000002
 21
1.0
 31
0.0
 73
     1
 44
1.0
  0
ENDBLK
  5
13D
330
13A
100
AcDbEntity
  8
0
100
AcDbBlockEnd
  0
BLOCK
  5
143
330
141
100
AcDbEntity
  8
0
100
AcDbBlockBegin
  2
Block_30
 70
     0
 10
0.0
 20
0.0
 30
0.0
  3
Block_30
  1

  0
LWPOLYLINE
  5
145
330
141
100
AcDbEntity
  8
Camada 1
 62
   250
420
  1907995
370
    13
100
AcDbPolyline
 90
       12
 70
     1
 43
0.0
 10
1446.615089153761
 20
-1410.452057900261
 10
1446.615089153761
 20
-1450.453578343819
 10
636.6161673049374
 20
-1450.453578343819
 10
636.6161673049374
 20
-1410.452057900261
 10
676.61411346193
 20
-1410.452057900261
 10
676.61411346193
 20
-1420.453256221328
 10
691.6142314594821
 20
-1420.453256221328
 10
691.6142314594821
 20
-1410.452057900261
 10
1391.613536840038
 20
-1410.452057900261
 10
1391.613536840038
 20
-1420.453256221328
 10
1406.61365483759
 20
-1420.453256221328
 10
1406.61365483759
 20
-1410.452057900261
  0
CIRCLE
  5
146
330
141
100
AcDbEntity
  8
Camada 1
 62
   242
420
 15016999
370
    13
100
AcDbCircle
 10
1428.46796255782
 20
-1430.45281812204
 30
0.0
 40
9.999999997500133
  0
MTEXT
  5
147
330
141
100
AcDbEntity
  8
Camada 1
100
AcDbMText
 10
1431.727595670714
 20
-1433.34231192465
 30
0.0
 40
0.2
 41
0.0
 46
0.0
 71
     7
 72
     1
  1
\C12;\c1246947;\FMyriad Pro|b0|i0|c1;\H7.493000;\W1.000000;4
 11
-0.0000000000000002
 21
1.0
 31
0.0
 73
     1
 44
1.0
  0
ENDBLK
  5
144
330
141
100
AcDbEntity
  8
0
100
AcDbBlockEnd
  0
BLOCK
  5
14A
330
148
100
AcDbEntity
  8
0
100
AcDbBlockBegin
  2
Block_31
 70
     0
 10
0.0
 20
0.0
 30
0.0
  3
Block_31
  1

  0
LWPOLYLINE
  5
14C
330
148
100
AcDbEntity
  8
Camada 1
 62
   250
420
  1907995
370
    13
100
AcDbPolyline
 90
       12
 70
     1
 43
0.0
 10
1446.615089153761
 20
-1457.777032360292
 10
1446.615089153761
 20
-1497.778552803851
 10
636.6161673049374
 20
-1497.778552803851
 10
636.6161673049374
 20
-1457.777032360292
 10
676.61411346193
 20
-1457.777032360292
 10
676.61411346193
 20
-1467.77823068136
 10
691.6142314594821
 20
-1467.77823068136
 10
691.6142314594821
 20
-1457.777032360292
 10
1391.613536840038
 20
-1457.777032360292
 10
1391.613536840038
 20
-1467.77823068136
 10
1406.61365483759
 20
-1467.77823068136
 10
1406.61365483759
 20
-1457.777032360292
  0
CIRCLE
  5
14D
330
148
100
AcDbEntity
  8
Camada 1
 62
   242
420
 15016999
370
    13
100
AcDbCircle
 10
1428.46796255782
 20
-1477.777792582071
 30
0.0
 40
9.999999997500133
  0
MTEXT
  5
14E
330
148
100
AcDbEntity
  8
Camada 1
100
AcDbMText
 10
1431.727595670714
 20
-1480.667244095979
 30
0.0
 40
0.2
 41
0.0
 46
0.0
 71
     7
 72
     1
  1
\C12;\c1246947;\FMyriad Pro|b0|i0|c1;\H7.493000;\W1.000000;4
 11
-0.0000000000000002
 21
1.0
 31
0.0
 73
     1
 44
1.0
  0
ENDBLK
  5
14B
330
148
100
AcDbEntity
  8
0
100
AcDbBlockEnd
  0
BLOCK
  5
151
330
14F
100
AcDbEntity
  8
0
100
AcDbBlockBegin
  2
Block_32
 70
     0
 10
0.0
 20
0.0
 30
0.0
  3
Block_32
  1

  0
LWPOLYLINE
  5
153
330
14F
100
AcDbEntity
  8
Camada 1
 62
   250
420
  1907995
370
    13
100
AcDbPolyline
 90
       12
 70
     1
 43
0.0
 10
1446.615089153761
 20
-1505.102006820324
 10
1446.615089153761
 20
-1545.103527263883
 10
636.6161673049374
 20
-1545.103527263883
 10
636.6161673049374
 20
-1505.102006820324
 10
676.61411346193
 20
-1505.102006820324
 10
676.61411346193
 20
-1515.103205141391
 10
691.6142314594821
 20
-1515.103205141391
 10
691.6142314594821
 20
-1505.102006820324
 10
1391.613536840038
 20
-1505.102006820324
 10
1391.613536840038
 20
-1515.103205141391
 10
1406.61365483759
 20
-1515.103205141391
 10
1406.61365483759
 20
-1505.102006820324
  0
CIRCLE
  5
154
330
14F
100
AcDbEntity
  8
Camada 1
 62
   242
420
 15016999
370
    13
100
AcDbCircle
 10
1428.46796255782
 20
-1525.102767042104
 30
0.0
 40
9.999999997500133
  0
MTEXT
  5
155
330
14F
100
AcDbEntity
  8
Camada 1
100
AcDbMText
 10
1431.727595670714
 20
-1527.992176267307
 30
0.0
 40
0.2
 41
0.0
 46
0.0
 71
     7
 72
     1
  1
\C12;\c1246947;\FMyriad Pro|b0|i0|c1;\H7.493000;\W1.000000;4
 11
-0.0000000000000002
 21
1.0
 31
0.0
 73
     1
 44
1.0
  0
ENDBLK
  5
152
330
14F
100
AcDbEntity
  8
0
100
AcDbBlockEnd
  0
BLOCK
  5
158
330
156
100
AcDbEntity
  8
0
100
AcDbBlockBegin
  2
Block_33
 70
     0
 10
0.0
 20
0.0
 30
0.0
  3
Block_33
  1

  0
LWPOLYLINE
  5
15A
330
156
100
AcDbEntity
  8
Camada 1
 62
   250
420
  1907995
370
    13
100
AcDbPolyline
 90
       12
 70
     1
 43
0.0
 10
1446.615089153761
 20
-1552.426981280356
 10
1446.615089153761
 20
-1592.428501723914
 10
636.6161673049374
 20
-1592.428501723914
 10
636.6161673049374
 20
-1552.426981280356
 10
676.61411346193
 20
-1552.426981280356
 10
676.61411346193
 20
-1562.428179601423
 10
691.6142314594821
 20
-1562.428179601423
 10
691.6142314594821
 20
-1552.426981280356
 10
1391.613536840038
 20
-1552.426981280356
 10
1391.613536840038
 20
-1562.428179601423
 10
1406.61365483759
 20
-1562.428179601423
 10
1406.61365483759
 20
-1552.426981280356
  0
CIRCLE
  5
15B
330
156
100
AcDbEntity
  8
Camada 1
 62
   242
420
 15016999
370
    13
100
AcDbCircle
 10
1428.46796255782
 20
-1572.427741502135
 30
0.0
 40
9.999999997500133
  0
MTEXT
  5
15C
330
156
100
AcDbEntity
  8
Camada 1
100
AcDbMText
 10
1431.727595670714
 20
-1575.317108438636
 30
0.0
 40
0.2
 41
0.0
 46
0.0
 71
     7
 72
     1
  1
\C12;\c1246947;\FMyriad Pro|b0|i0|c1;\H7.493000;\W1.000000;4
 11
-0.0000000000000002
 21
1.0
 31
0.0
 73
     1
 44
1.0
  0
ENDBLK
  5
159
330
156
100
AcDbEntity
  8
0
100
AcDbBlockEnd
  0
BLOCK
  5
15F
330
15D
100
AcDbEntity
  8
0
100
AcDbBlockBegin
  2
Block_34
 70
     0
 10
0.0
 20
0.0
 30
0.0
  3
Block_34
  1

  0
LWPOLYLINE
  5
161
330
15D
100
AcDbEntity
  8
Camada 1
 62
   250
420
  1907995
370
    13
100
AcDbPolyline
 90
       12
 70
     1
 43
0.0
 10
1446.615089153761
 20
-1599.751955740388
 10
1446.615089153761
 20
-1639.753476183947
 10
636.6161673049374
 20
-1639.753476183947
 10
636.6161673049374
 20
-1599.751955740388
 10
676.61411346193
 20
-1599.751955740388
 10
676.61411346193
 20
-1609.753154061455
 10
691.6142314594821
 20
-1609.753154061455
 10
691.6142314594821
 20
-1599.751955740388
 10
1391.613536840038
 20
-1599.751955740388
 10
1391.613536840038
 20
-1609.753154061455
 10
1406.61365483759
 20
-1609.753154061455
 10
1406.61365483759
 20
-1599.751955740388
  0
CIRCLE
  5
162
330
15D
100
AcDbEntity
  8
Camada 1
 62
   242
420
 15016999
370
    13
100
AcDbCircle
 10
1428.46796255782
 20
-1619.752715962167
 30
0.0
 40
9.999999997500133
  0
MTEXT
  5
163
330
15D
100
AcDbEntity
  8
Camada 1
100
AcDbMText
 10
1431.727595670714
 20
-1622.642040609964
 30
0.0
 40
0.2
 41
0.0
 46
0.0
 71
     7
 72
     1
  1
\C12;\c1246947;\FMyriad Pro|b0|i0|c1;\H7.493000;\W1.000000;4
 11
-0.0000000000000002
 21
1.0
 31
0.0
 73
     1
 44
1.0
  0
ENDBLK
  5
160
330
15D
100
AcDbEntity
  8
0
100
AcDbBlockEnd
  0
BLOCK
  5
166
330
164
100
AcDbEntity
  8
0
100
AcDbBlockBegin
  2
Block_35
 70
     0
 10
0.0
 20
0.0
 30
0.0
  3
Block_35
  1

  0
LWPOLYLINE
  5
168
330
164
100
AcDbEntity
  8
Camada 1
 62
   250
420
  1907995
370
    13
100
AcDbPolyline
 90
       12
 70
     1
 43
0.0
 10
1446.615089153761
 20
-1647.07693020042
 10
1446.615089153761
 20
-1687.078450643978
 10
636.6161673049374
 20
-1687.078450643978
 10
636.6161673049374
 20
-1647.07693020042
 10
676.61411346193
 20
-1647.07693020042
 10
676.61411346193
 20
-1657.078128521487
 10
691.6142314594821
 20
-1657.078128521487
 10
691.6142314594821
 20
-1647.07693020042
 10
1391.613536840038
 20
-1647.07693020042
 10
1391.613536840038
 20
-1657.078128521487
 10
1406.61365483759
 20
-1657.078128521487
 10
1406.61365483759
 20
-1647.07693020042
  0
CIRCLE
  5
169
330
164
100
AcDbEntity
  8
Camada 1
 62
   242
420
 15016999
370
    13
100
AcDbCircle
 10
1428.46796255782
 20
-1667.077690422199
 30
0.0
 40
9.999999997500133
  0
MTEXT
  5
16A
330
164
100
AcDbEntity
  8
Camada 1
100
AcDbMText
 10
1431.727595670714
 20
-1669.966972781293
 30
0.0
 40
0.2
 41
0.0
 46
0.0
 71
     7
 72
     1
  1
\C12;\c1246947;\FMyriad Pro|b0|i0|c1;\H7.493000;\W1.000000;4
 11
-0.0000000000000002
 21
1.0
 31
0.0
 73
     1
 44
1.0
  0
ENDBLK
  5
167
330
164
100
AcDbEntity
  8
0
100
AcDbBlockEnd
  0
BLOCK
  5
16D
330
16B
100
AcDbEntity
  8
0
100
AcDbBlockBegin
  2
Block_36
 70
     0
 10
0.0
 20
0.0
 30
0.0
  3
Block_36
  1

  0
LWPOLYLINE
  5
16F
330
16B
100
AcDbEntity
  8
Camada 1
 62
   250
420
  1907995
370
    13
100
AcDbPolyline
 90
       12
 70
     1
 43
0.0
 10
1446.615089153761
 20
-1694.401904660451
 10
1446.615089153761
 20
-1734.40342510401
 10
636.6161673049374
 20
-1734.40342510401
 10
636.6161673049374
 20
-1694.401904660451
 10
676.61411346193
 20
-1694.401904660451
 10
676.61411346193
 20
-1704.403102981519
 10
691.6142314594821
 20
-1704.403102981519
 10
691.6142314594821
 20
-1694.401904660451
 10
1391.613536840038
 20
-1694.401904660451
 10
1391.613536840038
 20
-1704.403102981519
 10
1406.61365483759
 20
-1704.403102981519
 10
1406.61365483759
 20
-1694.401904660451
  0
CIRCLE
  5
170
330
16B
100
AcDbEntity
  8
Camada 1
 62
   242
420
 15016999
370
    13
100
AcDbCircle
 10
1428.46796255782
 20
-1714.40266488223
 30
0.0
 40
9.999999997500133
  0
MTEXT
  5
171
330
16B
100
AcDbEntity
  8
Camada 1
100
AcDbMText
 10
1431.727595670714
 20
-1717.29224946217
 30
0.0
 40
0.2
 41
0.0
 46
0.0
 71
     7
 72
     1
  1
\C12;\c1246947;\FMyriad Pro|b0|i0|c1;\H7.493000;\W1.000000;4
 11
-0.0000000000000002
 21
1.0
 31
0.0
 73
     1
 44
1.0
  0
ENDBLK
  5
16E
330
16B
100
AcDbEntity
  8
0
100
AcDbBlockEnd
  0
BLOCK
  5
174
330
172
100
AcDbEntity
  8
0
100
AcDbBlockBegin
  2
Block_37
 70
     0
 10
0.0
 20
0.0
 30
0.0
  3
Block_37
  1

  0
LWPOLYLINE
  5
176
330
172
100
AcDbEntity
  8
Camada 1
 62
   250
420
  1907995
370
    13
100
AcDbPolyline
 90
       12
 70
     1
 43
0.0
 10
1446.615089153761
 20
-1741.726879120483
 10
1446.615089153761
 20
-1781.728399564041
 10
636.6161673049374
 20
-1781.728399564041
 10
636.6161673049374
 20
-1741.726879120483
 10
676.61411346193
 20
-1741.726879120483
 10
676.61411346193
 20
-1751.72807744155
 10
691.6142314594821
 20
-1751.72807744155
 10
691.6142314594821
 20
-1741.726879120483
 10
1391.613536840038
 20
-1741.726879120483
 10
1391.613536840038
 20
-1751.72807744155
 10
1406.61365483759
 20
-1751.72807744155
 10
1406.61365483759
 20
-1741.726879120483
  0
CIRCLE
  5
177
330
172
100
AcDbEntity
  8
Camada 1
 62
   242
420
 15016999
370
    13
100
AcDbCircle
 10
1428.46796255782
 20
-1761.727639342262
 30
0.0
 40
9.999999997500133
  0
MTEXT
  5
178
330
172
100
AcDbEntity
  8
Camada 1
100
AcDbMText
 10
1431.727595670714
 20
-1764.617181633498
 30
0.0
 40
0.2
 41
0.0
 46
0.0
 71
     7
 72
     1
  1
\C12;\c1246947;\FMyriad Pro|b0|i0|c1;\H7.493000;\W1.000000;4
 11
-0.0000000000000002
 21
1.0
 31
0.0
 73
     1
 44
1.0
  0
ENDBLK
  5
175
330
172
100
AcDbEntity
  8
0
100
AcDbBlockEnd
  0
BLOCK
  5
17B
330
179
100
AcDbEntity
  8
0
100
AcDbBlockBegin
  2
Block_38
 70
     0
 10
0.0
 20
0.0
 30
0.0
  3
Block_38
  1

  0
LWPOLYLINE
  5
17D
330
179
100
AcDbEntity
  8
Camada 1
 62
   250
420
  1907995
370
    13
100
AcDbPolyline
 90
       24
 70
     1
 43
0.0
 10
753.7789435391204
 20
-202.9214837007713
 10
1103.778943451601
 20
-202.9215980789853
 10
1103.77892711214
 20
-252.9207310588122
 10
853.7804159418428
 20
-252.9206493605746
 10
853.7803896347142
 20
-333.4210741890716
 10
829.5552683554621
 20
-333.4210662724254
 10
829.5552564026612
 20
-369.9969161065566
 10
853.7803776819133
 20
-369.9969240232027
 10
853.7802218500335
 20
-846.8461085354993
 10
829.5551005707814
 20
-846.846100618853
 10
829.555088617924
 20
-883.4221227075705
 10
853.7802098971761
 20
-883.4221306242167
 10
853.780183590104
 20
-963.9223831981283
 10
1103.778694760402
 20
-963.9224648963661
 10
1103.77867842094
 20
-1013.921597876192
 10
753.7786785084589
 20
-1013.921483497978
 10
753.778691580709
 20
-973.9200928336222
 10
783.778802307957
 20
-973.9201026375065
 10
783.7788072099128
 20
-958.9200010089269
 10
753.7786964826659
 20
-958.9199912050439
 10
753.7789255648852
 20
-257.9230621209981
 10
783.7790362921319
 20
-257.9230719248812
 10
783.7790411940889
 20
-242.9229702963025
 10
753.7789304668407
 20
-242.9229604924195
  0
CIRCLE
  5
17E
330
179
100
AcDbEntity
  8
Camada 1
 62
   242
420
 15016999
370
    13
100
AcDbCircle
 10
1080.638145676499
 20
-227.1091909745121
 30
0.0
 40
9.999999997499944
  0
MTEXT
  5
17F
330
179
100
AcDbEntity
  8
Camada 1
100
AcDbMText
 10
1083.897664117046
 20
-229.9985364550872
 30
0.0
 40
0.2
 41
0.0
 46
0.0
 71
     7
 72
     1
  1
\C12;\c1246947;\FMyriad Pro|b0|i0|c1;\H7.493000;\W1.000000;5
 11
-0.0000000000000002
 21
1.0
 31
0.0
 73
     1
 44
1.0
  0
ENDBLK
  5
17C
330
179
100
AcDbEntity
  8
0
100
AcDbBlockEnd
  0
BLOCK
  5
182
330
180
100
AcDbEntity
  8
0
100
AcDbBlockBegin
  2
Block_39
 70
     0
 10
0.0
 20
0.0
 30
0.0
  3
Block_39
  1

  0
LWPOLYLINE
  5
184
330
180
100
AcDbEntity
  8
Camada 1
 62
   250
420
  1907995
370
    13
100
AcDbPolyline
 90
       24
 70
     1
 43
0.0
 10
1216.615628185599
 20
-943.1207942584086
 10
866.6156282730987
 20
-943.1207942584086
 10
866.6156282730987
 20
-893.1216612785775
 10
1116.614139443409
 20
-893.1216612785787
 10
1116.614139443409
 20
-812.6212364500775
 10
1140.839260722664
 20
-812.6212364500775
 10
1140.839260722664
 20
-776.0453866159445
 10
1116.614139443409
 20
-776.0453866159445
 10
1116.614139443409
 20
-299.1962021036211
 10
1140.839260722664
 20
-299.1962021036211
 10
1140.839260722664
 20
-262.6201800149017
 10
1116.61413944341
 20
-262.6201800149023
 10
1116.614139443409
 20
-182.1199274409868
 10
866.6156282730987
 20
-182.1199274409871
 10
866.6156282731002
 20
-132.1207944611577
 10
1216.615628185599
 20
-132.120794461158
 10
1216.6156281856
 20
-172.1221851255152
 10
1186.615517458349
 20
-172.1221851255152
 10
1186.615517458351
 20
-187.1222867540955
 10
1216.615628185599
 20
-187.1222867540955
 10
1216.615628185599
 20
-888.1192158381786
 10
1186.615517458349
 20
-888.1192158381786
 10
1186.615517458349
 20
-903.1193174667579
 10
1216.615628185599
 20
-903.1193174667579
  0
CIRCLE
  5
185
330
180
100
AcDbEntity
  8
Camada 1
 62
   242
420
 15016999
370
    13
100
AcDbCircle
 10
889.7564181438175
 20
-918.9331938005878
 30
0.0
 40
9.999999997499651
  0
MTEXT
  5
186
330
180
100
AcDbEntity
  8
Camada 1
100
AcDbMText
 10
886.4969656529417
 20
-916.0439993369612
 30
0.0
 40
0.2
 41
0.0
 46
0.0
 71
     7
 72
     1
  1
\C12;\c1246947;\FMyriad Pro|b0|i0|c1;\H7.493000;\W1.000000;5
 11
-0.0000000000000002
 21
-1.0
 31
0.0
 73
     1
 44
1.0
  0
ENDBLK
  5
183
330
180
100
AcDbEntity
  8
0
100
AcDbBlockEnd
  0
ENDSEC
  0
SECTION
  2
ENTITIES
  0
INSERT
  5
7A
330
70
100
AcDbEntity
  8
Camada 1
100
AcDbBlockReference
  2
Block_0
 10
0.0
 20
0.0
 30
0.0
  0
INSERT
  5
87
330
70
100
AcDbEntity
  8
Camada 1
100
AcDbBlockReference
  2
Block_2
 10
0.0
 20
0.0
 30
0.0
  0
INSERT
  5
94
330
70
100
AcDbEntity
  8
Camada 1
100
AcDbBlockReference
  2
Block_4
 10
0.0
 20
0.0
 30
0.0
  0
INSERT
  5
9B
330
70
100
AcDbEntity
  8
Camada 1
100
AcDbBlockReference
  2
Block_5
 10
0.0
 20
0.0
 30
0.0
  0
INSERT
  5
A2
330
70
100
AcDbEntity
  8
Camada 1
100
AcDbBlockReference
  2
Block_6
 10
0.0
 20
0.0
 30
0.0
  0
INSERT
  5
A9
330
70
100
AcDbEntity
  8
Camada 1
100
AcDbBlockReference
  2
Block_7
 10
0.0
 20
0.0
 30
0.0
  0
INSERT
  5
B0
330
70
100
AcDbEntity
  8
Camada 1
100
AcDbBlockReference
  2
Block_8
 10
0.0
 20
0.0
 30
0.0
  0
INSERT
  5
B7
330
70
100
AcDbEntity
  8
Camada 1
100
AcDbBlockReference
  2
Block_9
 10
0.0
 20
0.0
 30
0.0
  0
INSERT
  5
BE
330
70
100
AcDbEntity
  8
Camada 1
100
AcDbBlockReference
  2
Block_10
 10
0.0
 20
0.0
 30
0.0
  0
INSERT
  5
C5
330
70
100
AcDbEntity
  8
Camada 1
100
AcDbBlockReference
  2
Block_11
 10
0.0
 20
0.0
 30
0.0
  0
INSERT
  5
CC
330
70
100
AcDbEntity
  8
Camada 1
100
AcDbBlockReference
  2
Block_12
 10
0.0
 20
0.0
 30
0.0
  0
INSERT
  5
D3
330
70
100
AcDbEntity
  8
Camada 1
100
AcDbBlockReference
  2
Block_13
 10
0.0
 20
0.0
 30
0.0
  0
INSERT
  5
DA
330
70
100
AcDbEntity
  8
Camada 1
100
AcDbBlockReference
  2
Block_14
 10
0.0
 20
0.0
 30
0.0
  0
INSERT
  5
E6
330
70
100
AcDbEntity
  8
Camada 1
100
AcDbBlockReference
  2
Block_16
 10
0.0
 20
0.0
 30
0.0
  0
INSERT
  5
F2
330
70
100
AcDbEntity
  8
Camada 1
100
AcDbBlockReference
  2
Block_18
 10
0.0
 20
0.0
 30
0.0
  0
INSERT
  5
FE
330
70
100
AcDbEntity
  8
Camada 1
100
AcDbBlockReference
  2
Block_20
 10
0.0
 20
0.0
 30
0.0
  0
INSERT
  5
10A
330
70
100
AcDbEntity
  8
Camada 1
100
AcDbBlockReference
  2
Block_22
 10
0.0
 20
0.0
 30
0.0
  0
INSERT
  5
111
330
70
100
AcDbEntity
  8
Camada 1
100
AcDbBlockReference
  2
Block_23
 10
0.0
 20
0.0
 30
0.0
  0
INSERT
  5
118
330
70
100
AcDbEntity
  8
Camada 1
100
AcDbBlockReference
  2
Block_24
 10
0.0
 20
0.0
 30
0.0
  0
INSERT
  5
11F
330
70
100
AcDbEntity
  8
Camada 1
100
AcDbBlockReference
  2
Block_25
 10
0.0
 20
0.0
 30
0.0
  0
INSERT
  5
126
330
70
100
AcDbEntity
  8
Camada 1
100
AcDbBlockReference
  2
Block_26
 10
0.0
 20
0.0
 30
0.0
  0
INSERT
  5
12D
330
70
100
AcDbEntity
  8
Camada 1
100
AcDbBlockReference
  2
Block_27
 10
0.0
 20
0.0
 30
0.0
  0
INSERT
  5
134
330
70
100
AcDbEntity
  8
Camada 1
100
AcDbBlockReference
  2
Block_28
 10
0.0
 20
0.0
 30
0.0
  0
INSERT
  5
13B
330
70
100
AcDbEntity
  8
Camada 1
100
AcDbBlockReference
  2
Block_29
 10
0.0
 20
0.0
 30
0.0
  0
INSERT
  5
142
330
70
100
AcDbEntity
  8
Camada 1
100
AcDbBlockReference
  2
Block_30
 10
0.0
 20
0.0
 30
0.0
  0
INSERT
  5
149
330
70
100
AcDbEntity
  8
Camada 1
100
AcDbBlockReference
  2
Block_31
 10
0.0
 20
0.0
 30
0.0
  0
INSERT
  5
150
330
70
100
AcDbEntity
  8
Camada 1
100
AcDbBlockReference
  2
Block_32
 10
0.0
 20
0.0
 30
0.0
  0
INSERT
  5
157
330
70
100
AcDbEntity
  8
Camada 1
100
AcDbBlockReference
  2
Block_33
 10
0.0
 20
0.0
 30
0.0
  0
INSERT
  5
15E
330
70
100
AcDbEntity
  8
Camada 1
100
AcDbBlockReference
  2
Block_34
 10
0.0
 20
0.0
 30
0.0
  0
INSERT
  5
165
330
70
100
AcDbEntity
  8
Camada 1
100
AcDbBlockReference
  2
Block_35
 10
0.0
 20
0.0
 30
0.0
  0
INSERT
  5
16C
330
70
100
AcDbEntity
  8
Camada 1
100
AcDbBlockReference
  2
Block_36
 10
0.0
 20
0.0
 30
0.0
  0
INSERT
  5
173
330
70
100
AcDbEntity
  8
Camada 1
100
AcDbBlockReference
  2
Block_37
 10
0.0
 20
0.0
 30
0.0
  0
INSERT
  5
17A
330
70
100
AcDbEntity
  8
Camada 1
100
AcDbBlockReference
  2
Block_38
 10
0.0
 20
0.0
 30
0.0
  0
INSERT
  5
181
330
70
100
AcDbEntity
  8
Camada 1
100
AcDbBlockReference
  2
Block_39
 10
0.0
 20
0.0
 30
0.0
  0
ENDSEC
  0
SECTION
  2
OBJECTS
  0
DICTIONARY
  5
C
330
0
100
AcDbDictionary
281
     1
  3
ACAD_COLOR
350
63
  3
ACAD_DETAILVIEWSTYLE
350
6A
  3
ACAD_GROUP
350
D
  3
ACAD_LAYOUT
350
62
  3
ACAD_MATERIAL
350
10
  3
ACAD_MLEADERSTYLE
350
66
  3
ACAD_MLINESTYLE
350
5F
  3
ACAD_PLOTSETTINGS
350
61
  3
ACAD_PLOTSTYLENAME
350
E
  3
ACAD_SCALELIST
350
42
  3
ACAD_SECTIONVIEWSTYLE
350
68
  3
ACAD_TABLESTYLE
350
64
  3
ACAD_VISUALSTYLE
350
29
  3
ACDB_RECOMPOSE_DATA
350
18F
  3
AcDbVariableDictionary
350
187
  0
DICTIONARY
  5
63
102
{ACAD_REACTORS
330
C
102
}
330
C
100
AcDbDictionary
281
     1
  0
DICTIONARY
  5
6A
102
{ACAD_REACTORS
330
C
102
}
330
C
100
AcDbDictionary
281
     1
  3
Imperial24
350
6B
  0
DICTIONARY
  5
D
102
{ACAD_REACTORS
330
C
102
}
330
C
100
AcDbDictionary
281
     1
  0
DICTIONARY
  5
62
102
{ACAD_REACTORS
330
C
102
}
330
C
100
AcDbDictionary
281
     1
  3
Layout1
350
6F
  3
Layout2
350
77
  3
Model
350
73
  0
DICTIONARY
  5
10
102
{ACAD_REACTORS
330
C
102
}
330
C
100
AcDbDictionary
281
     1
  3
ByBlock
350
19
  3
ByLayer
350
11
  3
Global
350
21
  0
DICTIONARY
  5
66
102
{ACAD_REACTORS
330
C
102
}
330
C
100
AcDbDictionary
281
     1
  3
Standard
350
67
  0
DICTIONARY
  5
5F
102
{ACAD_REACTORS
330
C
102
}
330
C
100
AcDbDictionary
281
     1
  3
Standard
350
60
  0
DICTIONARY
  5
61
102
{ACAD_REACTORS
330
C
102
}
330
C
100
AcDbDictionary
281
     1
  0
ACDBDICTIONARYWDFLT
  5
E
102
{ACAD_REACTORS
330
C
102
}
330
C
100
AcDbDictionary
281
     1
  3
Normal
350
F
100
AcDbDictionaryWithDefault
340
F
  0
DICTIONARY
  5
42
102
{ACAD_REACTORS
330
C
102
}
330
C
100
AcDbDictionary
281
     1
  3
A0
350
43
  3
A1
350
44
  3
A2
350
45
  3
A3
350
46
  3
A4
350
47
  3
A5
350
48
  3
A6
350
49
  3
A7
350
4A
  3
A8
350
4B
  3
A9
350
4C
  3
B0
350
4D
  3
B1
350
4E
  3
B2
350
4F
  3
B3
350
50
  3
B4
350
51
  3
B5
350
52
  3
B6
350
53
  0
DICTIONARY
  5
68
102
{ACAD_REACTORS
330
C
102
}
330
C
100
AcDbDictionary
281
     1
  3
Imperial24
350
69
  0
DICTIONARY
  5
64
102
{ACAD_REACTORS
330
C
102
}
330
C
100
AcDbDictionary
281
     1
  3
Standard
350
65
  0
DICTIONARY
  5
29
102
{ACAD_REACTORS
330
C
102
}
330
C
100
AcDbDictionary
281
     1
  3
2dWireframe
350
2F
  3
Basic
350
2E
  3
Brighten
350
35
  3
ColorChange
350
39
  3
Conceptual
350
32
  3
Dim
350
34
  3
EdgeColorOff
350
41
  3
Facepattern
350
38
  3
Flat
350
2A
  3
FlatWithEdges
350
2B
  3
Gouraud
350
2C
  3
GouraudWithEdges
350
2D
  3
Hidden
350
31
  3
JitterOff
350
3F
  3
Linepattern
350
37
  3
OverhangOff
350
40
  3
Realistic
350
33
  3
Shaded
350
3E
  3
Shaded with edges
350
3D
  3
Shades of Gray
350
3A
  3
Sketchy
350
3B
  3
Thicken
350
36
  3
Wireframe
350
30
  3
X-Ray
350
3C
  0
XRECORD
  5
18F
102
{ACAD_REACTORS
330
C
102
}
330
C
100
AcDbXrecord
280
     1
 90
        1
330
65
  0
DICTIONARY
  5
187
102
{ACAD_REACTORS
330
C
102
}
330
C
100
AcDbDictionary
281
     1
  3
CANNOSCALE
350
18C
  3
CMLEADERSTYLE
350
189
  3
CTABLESTYLE
350
188
  3
CVIEWDETAILSTYLE
350
18A
  3
CVIEWSECTIONSTYLE
350
18B
  0
ACDBDETAILVIEWSTYLE
  5
6B
102
{ACAD_REACTORS
330
6A
102
}
330
6A
100
AcDbModelDocViewStyle
 70
     0
  3
Imperial24
290
     1
300
Imperial24
 90
        0
100
AcDbDetailViewStyle
 70
     0
 71
     0
 90
        3
 71
     1
340
55
 62
   256
 40
0.24
340
0
 62
   256
 40
0.24
300

 40
0.36
280
     3
 71
     2
340
5D
 90
       25
 62
   256
 71
     3
340
55
 62
   256
 40
0.24
 90
        1
 40
0.75
 90
        1
300
%<\AcVar ViewType \f "%tc1">% %<\AcVar ViewDetailId>%\PSCALE %<\AcVar ViewScale \f "%sn">%
 71
     4
340
5D
 90
       25
 62
   256
340
5D
 90
       25
 62
   256
280
     0
  0
LAYOUT
  5
6F
102
{ACAD_REACTORS
330
62
102
}
330
62
100
AcDbPlotSettings
  1

  2

  4

  6

 40
0.0
 41
0.0
 42
0.0
 43
0.0
 44
0.0
 45
0.0
 46
0.0
 47
0.0
 48
0.0
 49
0.0
140
0.0
141
0.0
142
1.0
143
1.0
 70
   688
 72
     0
 73
     0
 74
     5
  7

 75
    16
147
1.0
 76
     0
 77
     2
 78
   300
148
0.0
149
0.0
100
AcDbLayout
  1
Layout1
 70
     1
 71
     1
 10
0.0
 20
0.0
 11
12.0
 21
9.0
 12
0.0
 22
0.0
 32
0.0
 14
0.0
 24
0.0
 34
0.0
 15
0.0
 25
0.0
 35
0.0
146
0.0
 13
0.0
 23
0.0
 33
0.0
 16
1.0
 26
0.0
 36
0.0
 17
0.0
 27
1.0
 37
0.0
 76
     0
330
6C
  0
LAYOUT
  5
77
102
{ACAD_REACTORS
330
62
102
}
330
62
100
AcDbPlotSettings
  1

  2

  4

  6

 40
0.0
 41
0.0
 42
0.0
 43
0.0
 44
0.0
 45
0.0
 46
0.0
 47
0.0
 48
0.0
 49
0.0
140
0.0
141
0.0
142
1.0
143
1.0
 70
   688
 72
     0
 73
     0
 74
     5
  7

 75
    16
147
1.0
 76
     0
 77
     2
 78
   300
148
0.0
149
0.0
100
AcDbLayout
  1
Layout2
 70
     1
 71
     2
 10
0.0
 20
0.0
 11
12.0
 21
9.0
 12
0.0
 22
0.0
 32
0.0
 14
0.0
 24
0.0
 34
0.0
 15
0.0
 25
0.0
 35
0.0
146
0.0
 13
0.0
 23
0.0
 33
0.0
 16
1.0
 26
0.0
 36
0.0
 17
0.0
 27
1.0
 37
0.0
 76
     0
330
74
  0
LAYOUT
  5
73
102
{ACAD_REACTORS
330
62
102
}
330
62
100
AcDbPlotSettings
  1

  2

  4

  6

 40
0.0
 41
0.0
 42
0.0
 43
0.0
 44
0.0
 45
0.0
 46
0.0
 47
0.0
 48
0.0
 49
0.0
140
0.0
141
0.0
142
1.0
143
1.0
 70
  1712
 72
     0
 73
     0
 74
     0
  7

 75
     0
147
1.0
 76
     0
 77
     2
 78
   300
148
0.0
149
0.0
100
AcDbLayout
  1
Model
 70
     1
 71
     0
 10
0.0
 20
0.0
 11
12.0
 21
9.0
 12
0.0
 22
0.0
 32
0.0
 14
0.0
 24
0.0
 34
0.0
 15
0.0
 25
0.0
 35
0.0
146
0.0
 13
0.0
 23
0.0
 33
0.0
 16
1.0
 26
0.0
 36
0.0
 17
0.0
 27
1.0
 37
0.0
 76
     0
330
70
  0
MATERIAL
  5
19
102
{ACAD_XDICTIONARY
360
1A
102
}
102
{ACAD_REACTORS
330
10
102
}
330
10
100
AcDbMaterial
  1
ByBlock
 72
     0
 43
0.0208333333333333
 43
0.0
 43
0.0
 43
0.0
 43
0.0
 43
0.0208333333333333
 43
0.0
 43
0.0
 43
0.0
 43
0.0
 43
1.0
 43
0.0
 43
0.0
 43
0.0
 43
0.0
 43
1.0
 77
     0
 47
0.0208333333333333
 47
0.0
 47
0.0
 47
0.0
 47
0.0
 47
0.0208333333333333
 47
0.0
 47
0.0
 47
0.0
 47
0.0
 47
1.0
 47
0.0
 47
0.0
 47
0.0
 47
0.0
 47
1.0
171
     0
 49
0.0208333333333333
 49
0.0
 49
0.0
 49
0.0
 49
0.0
 49
0.0208333333333333
 49
0.0
 49
0.0
 49
0.0
 49
0.0
 49
1.0
 49
0.0
 49
0.0
 49
0.0
 49
0.0
 49
1.0
175
     0
142
0.0208333333333333
142
0.0
142
0.0
142
0.0
142
0.0
142
0.0208333333333333
142
0.0
142
0.0
142
0.0
142
0.0
142
1.0
142
0.0
142
0.0
142
0.0
142
0.0
142
1.0
179
     0
144
0.0208333333333333
144
0.0
144
0.0
144
0.0
144
0.0
144
0.0208333333333333
144
0.0
144
0.0
144
0.0
144
0.0
144
1.0
144
0.0
144
0.0
144
0.0
144
0.0
144
1.0
147
0.0208333333333333
147
0.0
147
0.0
147
0.0
147
0.0
147
0.0208333333333333
147
0.0
147
0.0
147
0.0
147
0.0
147
1.0
147
0.0
147
0.0
147
0.0
147
0.0
147
1.0
  0
MATERIAL
  5
11
102
{ACAD_XDICTIONARY
360
12
102
}
102
{ACAD_REACTORS
330
10
102
}
330
10
100
AcDbMaterial
  1
ByLayer
 72
     0
 43
0.0208333333333333
 43
0.0
 43
0.0
 43
0.0
 43
0.0
 43
0.0208333333333333
 43
0.0
 43
0.0
 43
0.0
 43
0.0
 43
1.0
 43
0.0
 43
0.0
 43
0.0
 43
0.0
 43
1.0
 77
     0
 47
0.0208333333333333
 47
0.0
 47
0.0
 47
0.0
 47
0.0
 47
0.0208333333333333
 47
0.0
 47
0.0
 47
0.0
 47
0.0
 47
1.0
 47
0.0
 47
0.0
 47
0.0
 47
0.0
 47
1.0
171
     0
 49
0.0208333333333333
 49
0.0
 49
0.0
 49
0.0
 49
0.0
 49
0.0208333333333333
 49
0.0
 49
0.0
 49
0.0
 49
0.0
 49
1.0
 49
0.0
 49
0.0
 49
0.0
 49
0.0
 49
1.0
175
     0
142
0.0208333333333333
142
0.0
142
0.0
142
0.0
142
0.0
142
0.0208333333333333
142
0.0
142
0.0
142
0.0
142
0.0
142
1.0
142
0.0
142
0.0
142
0.0
142
0.0
142
1.0
179
     0
144
0.0208333333333333
144
0.0
144
0.0
144
0.0
144
0.0
144
0.0208333333333333
144
0.0
144
0.0
144
0.0
144
0.0
144
1.0
144
0.0
144
0.0
144
0.0
144
0.0
144
1.0
147
0.0208333333333333
147
0.0
147
0.0
147
0.0
147
0.0
147
0.0208333333333333
147
0.0
147
0.0
147
0.0
147
0.0
147
1.0
147
0.0
147
0.0
147
0.0
147
0.0
147
1.0
  0
MATERIAL
  5
21
102
{ACAD_XDICTIONARY
360
22
102
}
102
{ACAD_REACTORS
330
10
102
}
330
10
100
AcDbMaterial
  1
Global
 72
     0
 43
0.0208333333333333
 43
0.0
 43
0.0
 43
0.0
 43
0.0
 43
0.0208333333333333
 43
0.0
 43
0.0
 43
0.0
 43
0.0
 43
1.0
 43
0.0
 43
0.0
 43
0.0
 43
0.0
 43
1.0
 77
     0
 47
0.0208333333333333
 47
0.0
 47
0.0
 47
0.0
 47
0.0
 47
0.0208333333333333
 47
0.0
 47
0.0
 47
0.0
 47
0.0
 47
1.0
 47
0.0
 47
0.0
 47
0.0
 47
0.0
 47
1.0
171
     0
 49
0.0208333333333333
 49
0.0
 49
0.0
 49
0.0
 49
0.0
 49
0.0208333333333333
 49
0.0
 49
0.0
 49
0.0
 49
0.0
 49
1.0
 49
0.0
 49
0.0
 49
0.0
 49
0.0
 49
1.0
175
     0
142
0.0208333333333333
142
0.0
142
0.0
142
0.0
142
0.0
142
0.0208333333333333
142
0.0
142
0.0
142
0.0
142
0.0
142
1.0
142
0.0
142
0.0
142
0.0
142
0.0
142
1.0
179
     0
144
0.0208333333333333
144
0.0
144
0.0
144
0.0
144
0.0
144
0.0208333333333333
144
0.0
144
0.0
144
0.0
144
0.0
144
1.0
144
0.0
144
0.0
144
0.0
144
0.0
144
1.0
147
0.0208333333333333
147
0.0
147
0.0
147
0.0
147
0.0
147
0.0208333333333333
147
0.0
147
0.0
147
0.0
147
0.0
147
1.0
147
0.0
147
0.0
147
0.0
147
0.0
147
1.0
  0
MLEADERSTYLE
  5
67
102
{ACAD_REACTORS
330
66
102
}
330
66
100
AcDbMLeaderStyle
179
     2
170
     2
171
     1
172
     0
 90
        2
 40
0.0
 41
0.0
173
     1
 91
-1056964608
340
5B
 92
       -2
290
     1
 42
0.09
291
     1
 43
0.36
  3
Standard
 44
0.18
300

342
55
174
     1
178
     6
175
     1
176
     0
 93
-1056964608
 45
0.18
292
     0
297
     0
 46
0.18
 94
-1056964608
 47
1.0
 49
1.0
140
1.0
293
     1
141
0.0
294
     1
177
     0
142
1.0
295
     1
296
     0
143
0.125
271
     0
272
     9
273
     9
298
     1
  0
MLINESTYLE
  5
60
102
{ACAD_REACTORS
330
5F
102
}
330
5F
100
AcDbMlineStyle
  2
STANDARD
 70
     0
  3

 62
   256
 51
90.0
 52
90.0
 71
     2
 49
0.5
 62
   256
  6
BYLAYER
 49
-0.5
 62
   256
  6
BYLAYER
  0
ACDBPLACEHOLDER
  5
F
102
{ACAD_REACTORS
330
E
102
}
330
E
  0
SCALE
  5
43
102
{ACAD_REACTORS
330
42
102
}
330
42
100
AcDbScale
 70
     0
300
1:1
140
1.0
141
1.0
290
     1
  0
SCALE
  5
44
102
{ACAD_REACTORS
330
42
102
}
330
42
100
AcDbScale
 70
     0
300
1/128" = 1'-0"
140
0.0078125
141
12.0
290
     0
  0
SCALE
  5
45
102
{ACAD_REACTORS
330
42
102
}
330
42
100
AcDbScale
 70
     0
300
1/64" = 1'-0"
140
0.015625
141
12.0
290
     0
  0
SCALE
  5
46
102
{ACAD_REACTORS
330
42
102
}
330
42
100
AcDbScale
 70
     0
300
1/32" = 1'-0"
140
0.03125
141
12.0
290
     0
  0
SCALE
  5
47
102
{ACAD_REACTORS
330
42
102
}
330
42
100
AcDbScale
 70
     0
300
1/16" = 1'-0"
140
0.0625
141
12.0
290
     0
  0
SCALE
  5
48
102
{ACAD_REACTORS
330
42
102
}
330
42
100
AcDbScale
 70
     0
300
3/32" = 1'-0"
140
0.09375
141
12.0
290
     0
  0
SCALE
  5
49
102
{ACAD_REACTORS
330
42
102
}
330
42
100
AcDbScale
 70
     0
300
1/8" = 1'-0"
140
0.125
141
12.0
290
     0
  0
SCALE
  5
4A
102
{ACAD_REACTORS
330
42
102
}
330
42
100
AcDbScale
 70
     0
300
3/16" = 1'-0"
140
0.1875
141
12.0
290
     0
  0
SCALE
  5
4B
102
{ACAD_REACTORS
330
42
102
}
330
42
100
AcDbScale
 70
     0
300
1/4" = 1'-0"
140
0.25
141
12.0
290
     0
  0
SCALE
  5
4C
102
{ACAD_REACTORS
330
42
102
}
330
42
100
AcDbScale
 70
     0
300
3/8" = 1'-0"
140
0.375
141
12.0
290
     0
  0
SCALE
  5
4D
102
{ACAD_REACTORS
330
42
102
}
330
42
100
AcDbScale
 70
     0
300
1/2" = 1'-0"
140
0.5
141
12.0
290
     0
  0
SCALE
  5
4E
102
{ACAD_REACTORS
330
42
102
}
330
42
100
AcDbScale
 70
     0
300
3/4" = 1'-0"
140
0.75
141
12.0
290
     0
  0
SCALE
  5
4F
102
{ACAD_REACTORS
330
42
102
}
330
42
100
AcDbScale
 70
     0
300
1" = 1'-0"
140
1.0
141
12.0
290
     0
  0
SCALE
  5
50
102
{ACAD_REACTORS
330
42
102
}
330
42
100
AcDbScale
 70
     0
300
1-1/2" = 1'-0"
140
1.5
141
12.0
290
     0
  0
SCALE
  5
51
102
{ACAD_REACTORS
330
42
102
}
330
42
100
AcDbScale
 70
     0
300
3" = 1'-0"
140
3.0
141
12.0
290
     0
  0
SCALE
  5
52
102
{ACAD_REACTORS
330
42
102
}
330
42
100
AcDbScale
 70
     0
300
6" = 1'-0"
140
6.0
141
12.0
290
     0
  0
SCALE
  5
53
102
{ACAD_REACTORS
330
42
102
}
330
42
100
AcDbScale
 70
     0
300
1'-0" = 1'-0"
140
12.0
141
12.0
290
     0
  0
ACDBSECTIONVIEWSTYLE
  5
69
102
{ACAD_REACTORS
330
68
102
}
330
68
100
AcDbModelDocViewStyle
 70
     0
  3
Imperial24
290
     1
300
Imperial24
 90
        0
100
AcDbSectionViewStyle
 70
     0
 71
     0
 90
       78
 71
     1
340
55
 62
   256
 40
0.24
340
0
340
0
 62
   256
 40
0.24
300
I, O, Q, S, X, Z
 40
0.48
 90
        3
 40
0.18
 90
        1
 71
     2
340
5D
 90
       25
 62
   256
340
5D
 90
       50
 62
   256
 40
0.24
 40
0.0
 40
0.24
 71
     3
340
55
 62
   256
 40
0.24
 90
        1
 40
0.75
 90
        1
300
%<\AcVar ViewType \f "%tc1">% %<\AcVar ViewSectionStartId>%-%<\AcVar ViewSectionEndId>%\PSCALE %<\AcVar ViewScale \f "%sn">%
 71
     4
 62
   256
 62
   257
300
ANSI31
 40
1.0
 90
        0
290
     0
290
     0
 90
        6
 40
0.0
 40
1.570796326794896
 40
0.2617993877991494
 40
1.308996938995747
 40
-0.2617993877991494
 40
1.832595714594046
  0
TABLESTYLE
  5
65
102
{ACAD_XDICTIONARY
360
18D
102
}
102
{ACAD_REACTORS
330
64
102
}
330
64
100
AcDbTableStyle
280
     0
  3
Standard
 70
     0
 71
     0
 40
0.06
 41
0.06
280
     0
281
     0
  7
Standard
140
0.18
170
     2
 62
     0
 63
     7
283
     0
 90
      512
 91
        0
  1

274
    -2
284
     1
 64
     0
275
    -2
285
     1
 65
     0
276
    -2
286
     1
 66
     0
277
    -2
287
     1
 67
     0
278
    -2
288
     1
 68
     0
279
    -2
289
     1
 69
     0
  7
Standard
140
0.25
170
     5
 62
     0
 63
     7
283
     0
 90
      512
 91
        0
  1

274
    -2
284
     1
 64
     0
275
    -2
285
     1
 65
     0
276
    -2
286
     1
 66
     0
277
    -2
287
     1
 67
     0
278
    -2
288
     1
 68
     0
279
    -2
289
     1
 69
     0
  7
Standard
140
0.18
170
     5
 62
     0
 63
     7
283
     0
 90
      512
 91
        0
  1

274
    -2
284
     1
 64
     0
275
    -2
285
     1
 65
     0
276
    -2
286
     1
 66
     0
277
    -2
287
     1
 67
     0
278
    -2
288
     1
 68
     0
279
    -2
289
     1
 69
     0
  0
VISUALSTYLE
  5
2F
102
{ACAD_REACTORS
330
29
102
}
330
29
100
AcDbVisualStyle
  2
2dWireframe
 70
     4
177
     3
291
     0
 70
    58
 90
        0
176
     1
 90
        2
176
     1
 90
        0
176
     1
 90
        0
176
     1
 40
0.6
176
     1
 40
30.0
176
     1
 62
     7
420
 16777215
176
     1
 90
        1
176
     1
 90
        4
176
     1
 62
     7
176
     1
 62
   257
176
     1
 90
        1
176
     1
 90
        1
176
     1
 40
1.0
176
     1
 90
        0
176
     1
 62
   257
176
     1
 40
1.0
176
     1
 90
        1
176
     1
 90
        6
176
     1
 90
        2
176
     1
 62
     7
176
     1
 90
        5
176
     1
 90
        0
176
     1
 90
        0
176
     1
290
     0
176
     1
 90
        1
176
     1
 40
0.0
176
     1
 90
        0
176
     1
290
     1
176
     1
290
     1
176
     1
290
     0
176
     1
290
     0
176
     1
290
     0
176
     1
290
     0
176
     1
290
     0
176
     1
290
     0
176
     1
290
     0
176
     1
 90
       50
176
     1
 40
0.0
176
     1
 40
1.0
176
     1
 90
        0
176
     1
 62
    18
420
        0
176
     1
 90
       50
176
     1
 90
        3
176
     1
 62
     5
420
      255
176
     1
290
     0
176
     1
 90
       50
176
     1
 90
       50
176
     1
 90
       50
176
     1
290
     0
176
     1
 90
       50
176
     1
 62
   256
176
     0
 40
1.0
176
     0
 90
        2
176
     1
  1
strokes_ogs.tif
176
     1
290
     0
176
     1
 40
1.0
176
     1
 40
1.0
176
     1
  0
VISUALSTYLE
  5
2E
102
{ACAD_REACTORS
330
29
102
}
330
29
100
AcDbVisualStyle
  2
Basic
 70
     7
177
     3
291
     1
 70
    58
 90
        1
176
     1
 90
        0
176
     1
 90
        1
176
     1
 90
        0
176
     1
 40
0.6
176
     1
 40
30.0
176
     1
 62
     7
420
 16777215
176
     1
 90
        0
176
     1
 90
        4
176
     1
 62
     7
176
     1
 62
   257
176
     1
 90
        1
176
     1
 90
        1
176
     1
 40
1.0
176
     1
 90
        8
176
     1
 62
     7
176
     1
 40
1.0
176
     1
 90
        1
176
     1
 90
        6
176
     1
 90
        2
176
     1
 62
     7
176
     1
 90
        5
176
     1
 90
        0
176
     1
 90
        0
176
     1
290
     0
176
     1
 90
        1
176
     1
 40
0.0
176
     1
 90
        0
176
     1
290
     0
176
     1
290
     1
176
     1
290
     1
176
     1
290
     0
176
     1
290
     0
176
     1
290
     0
176
     1
290
     0
176
     1
290
     0
176
     1
290
     0
176
     1
 90
       50
176
     1
 40
0.0
176
     1
 40
1.0
176
     1
 90
        0
176
     1
 62
    18
420
        0
176
     1
 90
       50
176
     1
 90
        3
176
     1
 62
     5
420
      255
176
     1
290
     0
176
     1
 90
       50
176
     1
 90
       50
176
     1
 90
       50
176
     1
290
     0
176
     1
 90
       50
176
     1
 62
   256
176
     0
 40
1.0
176
     0
 90
        2
176
     1
  1
strokes_ogs.tif
176
     1
290
     0
176
     1
 40
1.0
176
     1
 40
1.0
176
     1
  0
VISUALSTYLE
  5
35
102
{ACAD_REACTORS
330
29
102
}
330
29
100
AcDbVisualStyle
  2
Brighten
 70
    12
177
     3
291
     1
 70
    58
 90
        2
176
     1
 90
        2
176
     1
 90
        0
176
     1
 90
        0
176
     1
 40
0.6
176
     1
 40
30.0
176
     1
 62
     7
420
 16777215
176
     1
 90
        1
176
     1
 90
        4
176
     1
 62
     7
176
     1
 62
   257
176
     1
 90
        1
176
     1
 90
        1
176
     1
 40
1.0
176
     1
 90
        8
176
     1
 62
     7
176
     1
 40
1.0
176
     1
 90
        1
176
     1
 90
        6
176
     1
 90
        2
176
     1
 62
     7
176
     1
 90
        5
176
     1
 90
        0
176
     1
 90
        0
176
     1
290
     0
176
     1
 90
        1
176
     1
 40
50.0
176
     1
 90
        0
176
     1
290
     0
176
     1
290
     1
176
     1
290
     1
176
     1
290
     0
176
     1
290
     0
176
     1
290
     0
176
     1
290
     0
176
     1
290
     0
176
     1
290
     0
176
     1
 90
       50
176
     1
 40
0.0
176
     1
 40
1.0
176
     1
 90
        0
176
     1
 62
    18
420
        0
176
     1
 90
       50
176
     1
 90
        3
176
     1
 62
     5
420
      255
176
     1
290
     0
176
     1
 90
       50
176
     1
 90
       50
176
     1
 90
       50
176
     1
290
     0
176
     1
 90
       50
176
     1
 62
   256
176
     0
 40
1.0
176
     0
 90
        2
176
     1
  1
strokes_ogs.tif
176
     1
290
     0
176
     1
 40
1.0
176
     1
 40
1.0
176
     1
  0
VISUALSTYLE
  5
39
102
{ACAD_REACTORS
330
29
102
}
330
29
100
AcDbVisualStyle
  2
ColorChange
 70
    16
177
     3
291
     1
 70
    58
 90
        2
176
     1
 90
        2
176
     1
 90
        3
176
     1
 90
        0
176
     1
 40
0.6
176
     1
 40
30.0
176
     1
 62
     8
420
  8421504
176
     1
 90
        1
176
     1
 90
        4
176
     1
 62
     7
176
     1
 62
   257
176
     1
 90
        1
176
     1
 90
        1
176
     1
 40
1.0
176
     1
 90
        8
176
     1
 62
     8
420
  8421504
176
     1
 40
1.0
176
     1
 90
        1
176
     1
 90
        6
176
     1
 90
        2
176
     1
 62
     7
176
     1
 90
        5
176
     1
 90
        0
176
     1
 90
        0
176
     1
290
     0
176
     1
 90
        1
176
     1
 40
0.0
176
     1
 90
        0
176
     1
290
     0
176
     1
290
     1
176
     1
290
     1
176
     1
290
     0
176
     1
290
     0
176
     1
290
     0
176
     1
290
     0
176
     1
290
     0
176
     1
290
     0
176
     1
 90
       50
176
     1
 40
0.0
176
     1
 40
1.0
176
     1
 90
        0
176
     1
 62
    18
420
        0
176
     1
 90
       50
176
     1
 90
        3
176
     1
 62
     5
420
      255
176
     1
290
     0
176
     1
 90
       50
176
     1
 90
       50
176
     1
 90
       50
176
     1
290
     0
176
     1
 90
       50
176
     1
 62
   256
176
     0
 40
1.0
176
     0
 90
        2
176
     1
  1
strokes_ogs.tif
176
     1
290
     0
176
     1
 40
1.0
176
     1
 40
1.0
176
     1
  0
VISUALSTYLE
  5
32
102
{ACAD_REACTORS
330
29
102
}
330
29
100
AcDbVisualStyle
  2
Conceptual
 70
     9
177
     3
291
     0
 70
    58
 90
        3
176
     1
 90
        2
176
     1
 90
        0
176
     1
 90
        0
176
     1
 40
0.6
176
     1
 40
30.0
176
     1
 62
     7
420
 16777215
176
     1
 90
        2
176
     1
 90
        2
176
     1
 62
     7
176
     1
 62
   257
176
     1
 90
        1
176
     1
 90
        1
176
     1
 40
179.0
176
     1
 90
        8
176
     1
 62
     7
176
     1
 40
1.0
176
     1
 90
        1
176
     1
 90
        6
176
     1
 90
        2
176
     1
 62
     7
176
     1
 90
        3
176
     1
 90
        0
176
     1
 90
        0
176
     1
290
     0
176
     1
 90
        1
176
     1
 40
0.0
176
     1
 90
        0
176
     1
290
     0
176
     1
290
     1
176
     1
290
     1
176
     1
290
     0
176
     1
290
     0
176
     1
290
     0
176
     1
290
     0
176
     1
290
     0
176
     1
290
     0
176
     1
 90
       50
176
     1
 40
0.0
176
     1
 40
1.0
176
     1
 90
        0
176
     1
 62
    18
420
        0
176
     1
 90
       50
176
     1
 90
        3
176
     1
 62
     5
420
      255
176
     1
290
     0
176
     1
 90
       50
176
     1
 90
       50
176
     1
 90
       50
176
     1
290
     0
176
     1
 90
       50
176
     1
 62
   256
176
     0
 40
1.0
176
     0
 90
        2
176
     1
  1
strokes_ogs.tif
176
     1
290
     0
176
     1
 40
1.0
176
     1
 40
1.0
176
     1
  0
VISUALSTYLE
  5
34
102
{ACAD_REACTORS
330
29
102
}
330
29
100
AcDbVisualStyle
  2
Dim
 70
    11
177
     3
291
     1
 70
    58
 90
        2
176
     1
 90
        2
176
     1
 90
        0
176
     1
 90
        0
176
     1
 40
0.6
176
     1
 40
30.0
176
     1
 62
     7
420
 16777215
176
     1
 90
        1
176
     1
 90
        4
176
     1
 62
     7
176
     1
 62
   257
176
     1
 90
        1
176
     1
 90
        1
176
     1
 40
1.0
176
     1
 90
        8
176
     1
 62
     7
176
     1
 40
1.0
176
     1
 90
        1
176
     1
 90
        6
176
     1
 90
        2
176
     1
 62
     7
176
     1
 90
        5
176
     1
 90
        0
176
     1
 90
        0
176
     1
290
     0
176
     1
 90
        1
176
     1
 40
-50.0
176
     1
 90
        0
176
     1
290
     0
176
     1
290
     1
176
     1
290
     1
176
     1
290
     0
176
     1
290
     0
176
     1
290
     0
176
     1
290
     0
176
     1
290
     0
176
     1
290
     0
176
     1
 90
       50
176
     1
 40
0.0
176
     1
 40
1.0
176
     1
 90
        0
176
     1
 62
    18
420
        0
176
     1
 90
       50
176
     1
 90
        3
176
     1
 62
     5
420
      255
176
     1
290
     0
176
     1
 90
       50
176
     1
 90
       50
176
     1
 90
       50
176
     1
290
     0
176
     1
 90
       50
176
     1
 62
   256
176
     0
 40
1.0
176
     0
 90
        2
176
     1
  1
strokes_ogs.tif
176
     1
290
     0
176
     1
 40
1.0
176
     1
 40
1.0
176
     1
  0
VISUALSTYLE
  5
41
102
{ACAD_REACTORS
330
29
102
}
330
29
100
AcDbVisualStyle
  2
EdgeColorOff
 70
    22
177
     3
291
     1
 70
    58
 90
        2
176
     0
 90
        2
176
     0
 90
        0
176
     0
 90
        0
176
     0
 40
0.6
176
     0
 40
30.0
176
     0
 62
     7
420
 16777215
176
     0
 90
        1
176
     0
 90
        4
176
     0
 62
     7
176
     0
 62
   257
176
     0
 90
        1
176
     0
 90
        1
176
     0
 40
1.0
176
     0
 90
        8
176
     2
 62
     7
176
     0
 40
1.0
176
     0
 90
        1
176
     0
 90
        6
176
     0
 90
        2
176
     0
 62
     7
176
     0
 90
        5
176
     0
 90
        0
176
     0
 90
        0
176
     0
290
     0
176
     0
 90
        1
176
     0
 40
0.0
176
     0
 90
        0
176
     0
290
     0
176
     0
290
     1
176
     0
290
     1
176
     0
290
     0
176
     0
290
     0
176
     0
290
     0
176
     0
290
     0
176
     0
290
     0
176
     0
290
     0
176
     0
 90
       50
176
     0
 40
0.0
176
     0
 40
1.0
176
     0
 90
        0
176
     0
 62
    18
420
        0
176
     0
 90
       50
176
     0
 90
        3
176
     0
 62
     5
420
      255
176
     0
290
     0
176
     0
 90
       50
176
     0
 90
       50
176
     0
 90
       50
176
     0
290
     0
176
     0
 90
       50
176
     0
 62
   256
176
     0
 40
1.0
176
     0
 90
        2
176
     0
  1
strokes_ogs.tif
176
     0
290
     0
176
     0
 40
1.0
176
     0
 40
1.0
176
     0
  0
VISUALSTYLE
  5
38
102
{ACAD_REACTORS
330
29
102
}
330
29
100
AcDbVisualStyle
  2
Facepattern
 70
    15
177
     3
291
     1
 70
    58
 90
        2
176
     1
 90
        2
176
     1
 90
        0
176
     1
 90
        0
176
     1
 40
0.6
176
     1
 40
30.0
176
     1
 62
     7
420
 16777215
176
     1
 90
        1
176
     1
 90
        4
176
     1
 62
     7
176
     1
 62
   257
176
     1
 90
        1
176
     1
 90
        1
176
     1
 40
1.0
176
     1
 90
        8
176
     1
 62
     7
176
     1
 40
1.0
176
     1
 90
        1
176
     1
 90
        6
176
     1
 90
        2
176
     1
 62
     7
176
     1
 90
        5
176
     1
 90
        0
176
     1
 90
        0
176
     1
290
     0
176
     1
 90
        1
176
     1
 40
0.0
176
     1
 90
        0
176
     1
290
     0
176
     1
290
     1
176
     1
290
     1
176
     1
290
     0
176
     1
290
     0
176
     1
290
     0
176
     1
290
     0
176
     1
290
     0
176
     1
290
     0
176
     1
 90
       50
176
     1
 40
0.0
176
     1
 40
1.0
176
     1
 90
        0
176
     1
 62
    18
420
        0
176
     1
 90
       50
176
     1
 90
        3
176
     1
 62
     5
420
      255
176
     1
290
     0
176
     1
 90
       50
176
     1
 90
       50
176
     1
 90
       50
176
     1
290
     0
176
     1
 90
       50
176
     1
 62
   256
176
     0
 40
1.0
176
     0
 90
        2
176
     1
  1
strokes_ogs.tif
176
     1
290
     0
176
     1
 40
1.0
176
     1
 40
1.0
176
     1
  0
VISUALSTYLE
  5
2A
102
{ACAD_REACTORS
330
29
102
}
330
29
100
AcDbVisualStyle
  2
Flat
 70
     0
177
     3
291
     1
 70
    58
 90
        2
176
     1
 90
        1
176
     1
 90
        1
176
     1
 90
        2
176
     1
 40
0.6
176
     1
 40
30.0
176
     1
 62
     7
420
 16777215
176
     1
 90
        0
176
     1
 90
        0
176
     1
 62
     7
176
     1
 62
   257
176
     1
 90
        1
176
     1
 90
        1
176
     1
 40
1.0
176
     1
 90
        8
176
     1
 62
     7
176
     1
 40
1.0
176
     1
 90
        1
176
     1
 90
        6
176
     1
 90
        2
176
     1
 62
     7
176
     1
 90
        5
176
     1
 90
        0
176
     1
 90
        0
176
     1
290
     0
176
     1
 90
       13
176
     1
 40
0.0
176
     1
 90
        0
176
     1
290
     0
176
     1
290
     1
176
     1
290
     1
176
     1
290
     0
176
     1
290
     0
176
     1
290
     0
176
     1
290
     0
176
     1
290
     0
176
     1
290
     0
176
     1
 90
       50
176
     1
 40
0.0
176
     1
 40
1.0
176
     1
 90
        0
176
     1
 62
    18
420
        0
176
     1
 90
       50
176
     1
 90
        3
176
     1
 62
     5
420
      255
176
     1
290
     0
176
     1
 90
       50
176
     1
 90
       50
176
     1
 90
       50
176
     1
290
     0
176
     1
 90
       50
176
     1
 62
   256
176
     0
 40
1.0
176
     0
 90
        2
176
     1
  1
strokes_ogs.tif
176
     1
290
     0
176
     1
 40
1.0
176
     1
 40
1.0
176
     1
  0
VISUALSTYLE
  5
2B
102
{ACAD_REACTORS
330
29
102
}
330
29
100
AcDbVisualStyle
  2
FlatWithEdges
 70
     1
177
     3
291
     1
 70
    58
 90
        2
176
     1
 90
        1
176
     1
 90
        1
176
     1
 90
        2
176
     1
 40
0.6
176
     1
 40
30.0
176
     1
 62
     7
420
 16777215
176
     1
 90
        1
176
     1
 90
        0
176
     1
 62
     7
176
     1
 62
   257
176
     1
 90
        1
176
     1
 90
        1
176
     1
 40
1.0
176
     1
 90
        0
176
     1
 62
   257
176
     1
 40
1.0
176
     1
 90
        1
176
     1
 90
        6
176
     1
 90
        2
176
     1
 62
     7
176
     1
 90
        5
176
     1
 90
        0
176
     1
 90
        0
176
     1
290
     0
176
     1
 90
       13
176
     1
 40
0.0
176
     1
 90
        0
176
     1
290
     0
176
     1
290
     1
176
     1
290
     1
176
     1
290
     0
176
     1
290
     0
176
     1
290
     0
176
     1
290
     0
176
     1
290
     0
176
     1
290
     0
176
     1
 90
       50
176
     1
 40
0.0
176
     1
 40
1.0
176
     1
 90
        0
176
     1
 62
    18
420
        0
176
     1
 90
       50
176
     1
 90
        3
176
     1
 62
     5
420
      255
176
     1
290
     0
176
     1
 90
       50
176
     1
 90
       50
176
     1
 90
       50
176
     1
290
     0
176
     1
 90
       50
176
     1
 62
   256
176
     0
 40
1.0
176
     0
 90
        2
176
     1
  1
strokes_ogs.tif
176
     1
290
     0
176
     1
 40
1.0
176
     1
 40
1.0
176
     1
  0
VISUALSTYLE
  5
2C
102
{ACAD_REACTORS
330
29
102
}
330
29
100
AcDbVisualStyle
  2
Gouraud
 70
     2
177
     3
291
     1
 70
    58
 90
        2
176
     1
 90
        2
176
     1
 90
        1
176
     1
 90
        2
176
     1
 40
0.6
176
     1
 40
30.0
176
     1
 62
     7
420
 16777215
176
     1
 90
        0
176
     1
 90
        0
176
     1
 62
     7
176
     1
 62
   257
176
     1
 90
        1
176
     1
 90
        1
176
     1
 40
1.0
176
     1
 90
        0
176
     1
 62
     7
176
     1
 40
1.0
176
     1
 90
        1
176
     1
 90
        6
176
     1
 90
        2
176
     1
 62
     7
176
     1
 90
        5
176
     1
 90
        0
176
     1
 90
        0
176
     1
290
     0
176
     1
 90
       13
176
     1
 40
0.0
176
     1
 90
        0
176
     1
290
     0
176
     1
290
     1
176
     1
290
     1
176
     1
290
     0
176
     1
290
     0
176
     1
290
     0
176
     1
290
     0
176
     1
290
     0
176
     1
290
     0
176
     1
 90
       50
176
     1
 40
0.0
176
     1
 40
1.0
176
     1
 90
        0
176
     1
 62
    18
420
        0
176
     1
 90
       50
176
     1
 90
        3
176
     1
 62
     5
420
      255
176
     1
290
     0
176
     1
 90
       50
176
     1
 90
       50
176
     1
 90
       50
176
     1
290
     0
176
     1
 90
       50
176
     1
 62
   256
176
     0
 40
1.0
176
     0
 90
        2
176
     1
  1
strokes_ogs.tif
176
     1
290
     0
176
     1
 40
1.0
176
     1
 40
1.0
176
     1
  0
VISUALSTYLE
  5
2D
102
{ACAD_REACTORS
330
29
102
}
330
29
100
AcDbVisualStyle
  2
GouraudWithEdges
 70
     3
177
     3
291
     1
 70
    58
 90
        2
176
     1
 90
        2
176
     1
 90
        1
176
     1
 90
        2
176
     1
 40
0.6
176
     1
 40
30.0
176
     1
 62
     7
420
 16777215
176
     1
 90
        1
176
     1
 90
        0
176
     1
 62
     7
176
     1
 62
   257
176
     1
 90
        1
176
     1
 90
        1
176
     1
 40
1.0
176
     1
 90
        0
176
     1
 62
   257
176
     1
 40
1.0
176
     1
 90
        1
176
     1
 90
        6
176
     1
 90
        2
176
     1
 62
     7
176
     1
 90
        5
176
     1
 90
        0
176
     1
 90
        0
176
     1
290
     0
176
     1
 90
       13
176
     1
 40
0.0
176
     1
 90
        0
176
     1
290
     0
176
     1
290
     1
176
     1
290
     1
176
     1
290
     0
176
     1
290
     0
176
     1
290
     0
176
     1
290
     0
176
     1
290
     0
176
     1
290
     0
176
     1
 90
       50
176
     1
 40
0.0
176
     1
 40
1.0
176
     1
 90
        0
176
     1
 62
    18
420
        0
176
     1
 90
       50
176
     1
 90
        3
176
     1
 62
     5
420
      255
176
     1
290
     0
176
     1
 90
       50
176
     1
 90
       50
176
     1
 90
       50
176
     1
290
     0
176
     1
 90
       50
176
     1
 62
   256
176
     0
 40
1.0
176
     0
 90
        2
176
     1
  1
strokes_ogs.tif
176
     1
290
     0
176
     1
 40
1.0
176
     1
 40
1.0
176
     1
  0
VISUALSTYLE
  5
31
102
{ACAD_REACTORS
330
29
102
}
330
29
100
AcDbVisualStyle
  2
Hidden
 70
     6
177
     3
291
     0
 70
    58
 90
        1
176
     1
 90
        2
176
     1
 90
        2
176
     1
 90
        0
176
     1
 40
0.6
176
     1
 40
30.0
176
     1
 62
     7
420
 16777215
176
     1
 90
        2
176
     1
 90
        2
176
     1
 62
     7
176
     1
 62
   257
176
     1
 90
        2
176
     1
 90
        1
176
     1
 40
40.0
176
     1
 90
        0
176
     1
 62
   257
176
     1
 40
1.0
176
     1
 90
        1
176
     1
 90
        6
176
     1
 90
        2
176
     1
 62
     7
176
     1
 90
        3
176
     1
 90
        0
176
     1
 90
        0
176
     1
290
     0
176
     1
 90
        1
176
     1
 40
0.0
176
     1
 90
        0
176
     1
290
     0
176
     1
290
     1
176
     1
290
     1
176
     1
290
     0
176
     1
290
     0
176
     1
290
     0
176
     1
290
     0
176
     1
290
     0
176
     1
290
     0
176
     1
 90
       50
176
     1
 40
0.0
176
     1
 40
1.0
176
     1
 90
        0
176
     1
 62
    18
420
        0
176
     1
 90
       50
176
     1
 90
        3
176
     1
 62
     5
420
      255
176
     1
290
     0
176
     1
 90
       50
176
     1
 90
       50
176
     1
 90
       50
176
     1
290
     0
176
     1
 90
       50
176
     1
 62
   256
176
     0
 40
1.0
176
     0
 90
        2
176
     1
  1
strokes_ogs.tif
176
     1
290
     0
176
     1
 40
1.0
176
     1
 40
1.0
176
     1
  0
VISUALSTYLE
  5
3F
102
{ACAD_REACTORS
330
29
102
}
330
29
100
AcDbVisualStyle
  2
JitterOff
 70
    20
177
     3
291
     1
 70
    58
 90
        2
176
     0
 90
        2
176
     0
 90
        0
176
     0
 90
        0
176
     0
 40
0.6
176
     0
 40
30.0
176
     0
 62
     7
420
 16777215
176
     0
 90
        1
176
     0
 90
        4
176
     0
 62
     7
176
     0
 62
   257
176
     0
 90
        1
176
     0
 90
        1
176
     0
 40
1.0
176
     0
 90
       10
176
     2
 62
     7
176
     0
 40
1.0
176
     0
 90
        1
176
     0
 90
        6
176
     0
 90
        2
176
     0
 62
     7
176
     0
 90
        5
176
     0
 90
        0
176
     0
 90
        0
176
     0
290
     0
176
     0
 90
        1
176
     0
 40
0.0
176
     0
 90
        0
176
     0
290
     0
176
     0
290
     1
176
     0
290
     1
176
     0
290
     0
176
     0
290
     0
176
     0
290
     0
176
     0
290
     0
176
     0
290
     0
176
     0
290
     0
176
     0
 90
       50
176
     0
 40
0.0
176
     0
 40
1.0
176
     0
 90
        0
176
     0
 62
    18
420
        0
176
     0
 90
       50
176
     0
 90
        3
176
     0
 62
     5
420
      255
176
     0
290
     0
176
     0
 90
       50
176
     0
 90
       50
176
     0
 90
       50
176
     0
290
     0
176
     0
 90
       50
176
     0
 62
   256
176
     0
 40
1.0
176
     0
 90
        2
176
     0
  1
strokes_ogs.tif
176
     0
290
     0
176
     0
 40
1.0
176
     0
 40
1.0
176
     0
  0
VISUALSTYLE
  5
37
102
{ACAD_REACTORS
330
29
102
}
330
29
100
AcDbVisualStyle
  2
Linepattern
 70
    14
177
     3
291
     1
 70
    58
 90
        2
176
     1
 90
        2
176
     1
 90
        0
176
     1
 90
        0
176
     1
 40
0.6
176
     1
 40
30.0
176
     1
 62
     7
420
 16777215
176
     1
 90
        1
176
     1
 90
        4
176
     1
 62
     7
176
     1
 62
   257
176
     1
 90
        7
176
     1
 90
        7
176
     1
 40
1.0
176
     1
 90
        8
176
     1
 62
     7
176
     1
 40
1.0
176
     1
 90
        1
176
     1
 90
        6
176
     1
 90
        2
176
     1
 62
     7
176
     1
 90
        5
176
     1
 90
        0
176
     1
 90
        0
176
     1
290
     0
176
     1
 90
        1
176
     1
 40
0.0
176
     1
 90
        0
176
     1
290
     0
176
     1
290
     1
176
     1
290
     1
176
     1
290
     0
176
     1
290
     0
176
     1
290
     0
176
     1
290
     0
176
     1
290
     0
176
     1
290
     0
176
     1
 90
       50
176
     1
 40
0.0
176
     1
 40
1.0
176
     1
 90
        0
176
     1
 62
    18
420
        0
176
     1
 90
       50
176
     1
 90
        3
176
     1
 62
     5
420
      255
176
     1
290
     0
176
     1
 90
       50
176
     1
 90
       50
176
     1
 90
       50
176
     1
290
     0
176
     1
 90
       50
176
     1
 62
   256
176
     0
 40
1.0
176
     0
 90
        2
176
     1
  1
strokes_ogs.tif
176
     1
290
     0
176
     1
 40
1.0
176
     1
 40
1.0
176
     1
  0
VISUALSTYLE
  5
40
102
{ACAD_REACTORS
330
29
102
}
330
29
100
AcDbVisualStyle
  2
OverhangOff
 70
    21
177
     3
291
     1
 70
    58
 90
        2
176
     0
 90
        2
176
     0
 90
        0
176
     0
 90
        0
176
     0
 40
0.6
176
     0
 40
30.0
176
     0
 62
     7
420
 16777215
176
     0
 90
        1
176
     0
 90
        4
176
     0
 62
     7
176
     0
 62
   257
176
     0
 90
        1
176
     0
 90
        1
176
     0
 40
1.0
176
     0
 90
        9
176
     2
 62
     7
176
     0
 40
1.0
176
     0
 90
        1
176
     0
 90
        6
176
     0
 90
        2
176
     0
 62
     7
176
     0
 90
        5
176
     0
 90
        0
176
     0
 90
        0
176
     0
290
     0
176
     0
 90
        1
176
     0
 40
0.0
176
     0
 90
        0
176
     0
290
     0
176
     0
290
     1
176
     0
290
     1
176
     0
290
     0
176
     0
290
     0
176
     0
290
     0
176
     0
290
     0
176
     0
290
     0
176
     0
290
     0
176
     0
 90
       50
176
     0
 40
0.0
176
     0
 40
1.0
176
     0
 90
        0
176
     0
 62
    18
420
        0
176
     0
 90
       50
176
     0
 90
        3
176
     0
 62
     5
420
      255
176
     0
290
     0
176
     0
 90
       50
176
     0
 90
       50
176
     0
 90
       50
176
     0
290
     0
176
     0
 90
       50
176
     0
 62
   256
176
     0
 40
1.0
176
     0
 90
        2
176
     0
  1
strokes_ogs.tif
176
     0
290
     0
176
     0
 40
1.0
176
     0
 40
1.0
176
     0
  0
VISUALSTYLE
  5
33
102
{ACAD_REACTORS
330
29
102
}
330
29
100
AcDbVisualStyle
  2
Realistic
 70
     8
177
     3
291
     0
 70
    58
 90
        2
176
     1
 90
        3
176
     1
 90
        0
176
     1
 90
        2
176
     1
 40
0.6
176
     1
 40
30.0
176
     1
 62
     7
420
 16777215
176
     1
 90
        0
176
     1
 90
        0
176
     1
 62
     7
176
     1
 62
   257
176
     1
 90
        1
176
     1
 90
        1
176
     1
 40
1.0
176
     1
 90
        8
176
     1
 62
   257
176
     1
 40
1.0
176
     1
 90
        1
176
     1
 90
        6
176
     1
 90
        2
176
     1
 62
     7
176
     1
 90
        3
176
     1
 90
        0
176
     1
 90
        0
176
     1
290
     0
176
     1
 90
       13
176
     1
 40
0.0
176
     1
 90
        0
176
     1
290
     0
176
     1
290
     1
176
     1
290
     1
176
     1
290
     0
176
     1
290
     0
176
     1
290
     0
176
     1
290
     0
176
     1
290
     0
176
     1
290
     0
176
     1
 90
       50
176
     1
 40
0.0
176
     1
 40
1.0
176
     1
 90
        0
176
     1
 62
    18
420
        0
176
     1
 90
       50
176
     1
 90
        3
176
     1
 62
     5
420
      255
176
     1
290
     0
176
     1
 90
       50
176
     1
 90
       50
176
     1
 90
       50
176
     1
290
     0
176
     1
 90
       50
176
     1
 62
   256
176
     0
 40
1.0
176
     0
 90
        2
176
     1
  1
strokes_ogs.tif
176
     1
290
     0
176
     1
 40
1.0
176
     1
 40
1.0
176
     1
  0
VISUALSTYLE
  5
3E
102
{ACAD_REACTORS
330
29
102
}
330
29
100
AcDbVisualStyle
  2
Shaded
 70
    27
177
     3
291
     0
 70
    58
 90
        2
176
     1
 90
        2
176
     1
 90
        1
176
     1
 90
        2
176
     1
 40
0.6
176
     1
 40
30.0
176
     1
 62
     7
420
 16777215
176
     1
 90
        0
176
     1
 90
        4
176
     1
 62
     7
176
     1
 62
   257
176
     1
 90
        1
176
     1
 90
        1
176
     1
 40
1.0
176
     1
 90
        8
176
     1
 62
   257
176
     1
 40
1.0
176
     1
 90
        1
176
     1
 90
        6
176
     1
 90
        2
176
     1
 62
     8
420
  7895160
176
     1
 90
        3
176
     1
 90
        0
176
     1
 90
        0
176
     1
290
     0
176
     1
 90
        5
176
     1
 40
0.0
176
     1
 90
        0
176
     1
290
     0
176
     1
290
     1
176
     1
290
     1
176
     1
290
     0
176
     1
290
     0
176
     1
290
     0
176
     1
290
     0
176
     1
290
     0
176
     1
290
     0
176
     1
 90
       50
176
     1
 40
0.0
176
     1
 40
1.0
176
     1
 90
        0
176
     1
 62
    18
420
        0
176
     1
 90
       50
176
     1
 90
        3
176
     1
 62
     5
420
      255
176
     1
290
     0
176
     1
 90
       50
176
     1
 90
       50
176
     1
 90
       50
176
     1
290
     0
176
     1
 90
       50
176
     1
 62
   256
176
     0
 40
1.0
176
     0
 90
        2
176
     1
  1
strokes_ogs.tif
176
     1
290
     0
176
     1
 40
1.0
176
     1
 40
1.0
176
     1
  0
VISUALSTYLE
  5
3D
102
{ACAD_REACTORS
330
29
102
}
330
29
100
AcDbVisualStyle
  2
Shaded with edges
 70
    26
177
     3
291
     0
 70
    58
 90
        2
176
     1
 90
        2
176
     1
 90
        1
176
     1
 90
        2
176
     1
 40
0.6
176
     1
 40
30.0
176
     1
 62
     7
420
 16777215
176
     1
 90
        1
176
     1
 90
        2
176
     1
 62
     7
176
     1
 62
   257
176
     1
 90
        2
176
     1
 90
        1
176
     1
 40
1.0
176
     1
 90
        8
176
     1
 62
   257
176
     1
 40
1.0
176
     1
 90
        1
176
     1
 90
        6
176
     1
 90
        2
176
     1
 62
     7
176
     1
 90
        3
176
     1
 90
        0
176
     1
 90
        0
176
     1
290
     0
176
     1
 90
        5
176
     1
 40
0.0
176
     1
 90
        0
176
     1
290
     0
176
     1
290
     1
176
     1
290
     1
176
     1
290
     0
176
     1
290
     0
176
     1
290
     0
176
     1
290
     0
176
     1
290
     0
176
     1
290
     0
176
     1
 90
       50
176
     1
 40
0.0
176
     1
 40
1.0
176
     1
 90
        0
176
     1
 62
    18
420
        0
176
     1
 90
       50
176
     1
 90
        3
176
     1
 62
     5
420
      255
176
     1
290
     0
176
     1
 90
       50
176
     1
 90
       50
176
     1
 90
       50
176
     1
290
     0
176
     1
 90
       50
176
     1
 62
   256
176
     0
 40
1.0
176
     0
 90
        2
176
     1
  1
strokes_ogs.tif
176
     1
290
     0
176
     1
 40
1.0
176
     1
 40
1.0
176
     1
  0
VISUALSTYLE
  5
3A
102
{ACAD_REACTORS
330
29
102
}
330
29
100
AcDbVisualStyle
  2
Shades of Gray
 70
    23
177
     3
291
     0
 70
    58
 90
        2
176
     1
 90
        2
176
     1
 90
        3
176
     1
 90
        0
176
     1
 40
0.6
176
     1
 40
30.0
176
     1
 62
     7
420
 16777215
176
     1
 90
        2
176
     1
 90
        2
176
     1
 62
     7
176
     1
 62
     7
176
     1
 90
        1
176
     1
 90
        1
176
     1
 40
40.0
176
     1
 90
        8
176
     1
 62
     7
176
     1
 40
1.0
176
     1
 90
        1
176
     1
 90
        6
176
     1
 90
        2
176
     1
 62
     7
176
     1
 90
        3
176
     1
 90
        0
176
     1
 90
        0
176
     1
290
     0
176
     1
 90
        1
176
     1
 40
0.0
176
     1
 90
        0
176
     1
290
     0
176
     1
290
     1
176
     1
290
     1
176
     1
290
     0
176
     1
290
     0
176
     1
290
     0
176
     1
290
     0
176
     1
290
     0
176
     1
290
     0
176
     1
 90
       50
176
     1
 40
0.0
176
     1
 40
1.0
176
     1
 90
        0
176
     1
 62
    18
420
        0
176
     1
 90
       50
176
     1
 90
        3
176
     1
 62
     5
420
      255
176
     1
290
     0
176
     1
 90
       50
176
     1
 90
       50
176
     1
 90
       50
176
     1
290
     0
176
     1
 90
       50
176
     1
 62
   256
176
     0
 40
1.0
176
     0
 90
        2
176
     1
  1
strokes_ogs.tif
176
     1
290
     0
176
     1
 40
1.0
176
     1
 40
1.0
176
     1
  0
VISUALSTYLE
  5
3B
102
{ACAD_REACTORS
330
29
102
}
330
29
100
AcDbVisualStyle
  2
Sketchy
 70
    24
177
     3
291
     0
 70
    58
 90
        1
176
     1
 90
        2
176
     1
 90
        2
176
     1
 90
        0
176
     1
 40
0.6
176
     1
 40
30.0
176
     1
 62
     7
420
 16777215
176
     1
 90
        2
176
     1
 90
        2
176
     1
 62
     7
176
     1
 62
     7
176
     1
 90
        1
176
     1
 90
        1
176
     1
 40
40.0
176
     1
 90
       11
176
     1
 62
     7
176
     1
 40
1.0
176
     1
 90
        1
176
     1
 90
        6
176
     1
 90
        2
176
     1
 62
     7
176
     1
 90
        6
176
     1
 90
        0
176
     1
 90
        0
176
     1
290
     0
176
     1
 90
        1
176
     1
 40
0.0
176
     1
 90
        0
176
     1
290
     0
176
     1
290
     1
176
     1
290
     1
176
     1
290
     0
176
     1
290
     0
176
     1
290
     0
176
     1
290
     0
176
     1
290
     0
176
     1
290
     0
176
     1
 90
       50
176
     1
 40
0.0
176
     1
 40
1.0
176
     1
 90
        0
176
     1
 62
    18
420
        0
176
     1
 90
       50
176
     1
 90
        3
176
     1
 62
     5
420
      255
176
     1
290
     0
176
     1
 90
       50
176
     1
 90
       50
176
     1
 90
       50
176
     1
290
     0
176
     1
 90
       50
176
     1
 62
   256
176
     0
 40
1.0
176
     0
 90
        2
176
     1
  1
strokes_ogs.tif
176
     1
290
     0
176
     1
 40
1.0
176
     1
 40
1.0
176
     1
  0
VISUALSTYLE
  5
36
102
{ACAD_REACTORS
330
29
102
}
330
29
100
AcDbVisualStyle
  2
Thicken
 70
    13
177
     3
291
     1
 70
    58
 90
        2
176
     1
 90
        2
176
     1
 90
        0
176
     1
 90
        0
176
     1
 40
0.6
176
     1
 40
30.0
176
     1
 62
     7
420
 16777215
176
     1
 90
        1
176
     1
 90
        4
176
     1
 62
     7
176
     1
 62
   257
176
     1
 90
        1
176
     1
 90
        1
176
     1
 40
1.0
176
     1
 90
       12
176
     1
 62
     7
176
     1
 40
1.0
176
     1
 90
        1
176
     1
 90
        6
176
     1
 90
        2
176
     1
 62
     7
176
     1
 90
        5
176
     1
 90
        0
176
     1
 90
        0
176
     1
290
     0
176
     1
 90
        1
176
     1
 40
0.0
176
     1
 90
        0
176
     1
290
     0
176
     1
290
     1
176
     1
290
     1
176
     1
290
     0
176
     1
290
     0
176
     1
290
     0
176
     1
290
     0
176
     1
290
     0
176
     1
290
     0
176
     1
 90
       50
176
     1
 40
0.0
176
     1
 40
1.0
176
     1
 90
        0
176
     1
 62
    18
420
        0
176
     1
 90
       50
176
     1
 90
        3
176
     1
 62
     5
420
      255
176
     1
290
     0
176
     1
 90
       50
176
     1
 90
       50
176
     1
 90
       50
176
     1
290
     0
176
     1
 90
       50
176
     1
 62
   256
176
     0
 40
1.0
176
     0
 90
        2
176
     1
  1
strokes_ogs.tif
176
     1
290
     0
176
     1
 40
1.0
176
     1
 40
1.0
176
     1
  0
VISUALSTYLE
  5
30
102
{ACAD_REACTORS
330
29
102
}
330
29
100
AcDbVisualStyle
  2
Wireframe
 70
     5
177
     3
291
     0
 70
    58
 90
        0
176
     1
 90
        2
176
     1
 90
        0
176
     1
 90
        0
176
     1
 40
0.6
176
     1
 40
30.0
176
     1
 62
     7
420
 16777215
176
     1
 90
        1
176
     1
 90
        4
176
     1
 62
     7
176
     1
 62
   257
176
     1
 90
        1
176
     1
 90
        1
176
     1
 40
1.0
176
     1
 90
        0
176
     1
 62
   257
176
     1
 40
1.0
176
     1
 90
        1
176
     1
 90
        6
176
     1
 90
        2
176
     1
 62
     7
176
     1
 90
        3
176
     1
 90
        0
176
     1
 90
        0
176
     1
290
     0
176
     1
 90
        1
176
     1
 40
0.0
176
     1
 90
        0
176
     1
290
     0
176
     1
290
     1
176
     1
290
     1
176
     1
290
     0
176
     1
290
     0
176
     1
290
     0
176
     1
290
     0
176
     1
290
     0
176
     1
290
     0
176
     1
 90
       50
176
     1
 40
0.0
176
     1
 40
1.0
176
     1
 90
        0
176
     1
 62
    18
420
        0
176
     1
 90
       50
176
     1
 90
        3
176
     1
 62
     5
420
      255
176
     1
290
     0
176
     1
 90
       50
176
     1
 90
       50
176
     1
 90
       50
176
     1
290
     0
176
     1
 90
       50
176
     1
 62
   256
176
     0
 40
1.0
176
     0
 90
        2
176
     1
  1
strokes_ogs.tif
176
     1
290
     0
176
     1
 40
1.0
176
     1
 40
1.0
176
     1
  0
VISUALSTYLE
  5
3C
102
{ACAD_REACTORS
330
29
102
}
330
29
100
AcDbVisualStyle
  2
X-Ray
 70
    25
177
     3
291
     0
 70
    58
 90
        2
176
     1
 90
        2
176
     1
 90
        1
176
     1
 90
        1
176
     1
 40
0.5
176
     1
 40
30.0
176
     1
 62
     7
420
 16777215
176
     1
 90
        1
176
     1
 90
        0
176
     1
 62
     7
176
     1
 62
   257
176
     1
 90
        1
176
     1
 90
        1
176
     1
 40
1.0
176
     1
 90
        8
176
     1
 62
     7
176
     1
 40
1.0
176
     1
 90
        1
176
     1
 90
        6
176
     1
 90
        2
176
     1
 62
     7
176
     1
 90
        3
176
     1
 90
        0
176
     1
 90
        0
176
     1
290
     0
176
     1
 90
       13
176
     1
 40
0.0
176
     1
 90
        0
176
     1
290
     0
176
     1
290
     1
176
     1
290
     1
176
     1
290
     0
176
     1
290
     0
176
     1
290
     0
176
     1
290
     0
176
     1
290
     0
176
     1
290
     0
176
     1
 90
       50
176
     1
 40
0.0
176
     1
 40
1.0
176
     1
 90
        0
176
     1
 62
    18
420
        0
176
     1
 90
       50
176
     1
 90
        3
176
     1
 62
     5
420
      255
176
     1
290
     0
176
     1
 90
       50
176
     1
 90
       50
176
     1
 90
       50
176
     1
290
     0
176
     1
 90
       50
176
     1
 62
   256
176
     0
 40
1.0
176
     0
 90
        2
176
     1
  1
strokes_ogs.tif
176
     1
290
     0
176
     1
 40
1.0
176
     1
 40
1.0
176
     1
  0
DICTIONARYVAR
  5
18C
102
{ACAD_REACTORS
330
187
102
}
330
187
100
DictionaryVariables
280
     0
  1
1:1
  0
DICTIONARYVAR
  5
189
102
{ACAD_REACTORS
330
187
102
}
330
187
100
DictionaryVariables
280
     0
  1
STANDARD
  0
DICTIONARYVAR
  5
188
102
{ACAD_REACTORS
330
187
102
}
330
187
100
DictionaryVariables
280
     0
  1
STANDARD
  0
DICTIONARYVAR
  5
18A
102
{ACAD_REACTORS
330
187
102
}
330
187
100
DictionaryVariables
280
     0
  1
Imperial24
  0
DICTIONARYVAR
  5
18B
102
{ACAD_REACTORS
330
187
102
}
330
187
100
DictionaryVariables
280
     0
  1
Imperial24
  0
DICTIONARY
  5
1A
330
19
100
AcDbDictionary
280
     1
281
     1
  3
BUMPTILE
360
1C
  3
DIFFUSETILE
360
1B
  3
OPACITYTILE
360
1F
  3
REFLECTIONTILE
360
1E
  3
REFRACTIONTILE
360
20
  3
SPECULARTILE
360
1D
  0
DICTIONARY
  5
12
330
11
100
AcDbDictionary
280
     1
281
     1
  3
BUMPTILE
360
14
  3
DIFFUSETILE
360
13
  3
OPACITYTILE
360
17
  3
REFLECTIONTILE
360
16
  3
REFRACTIONTILE
360
18
  3
SPECULARTILE
360
15
  0
DICTIONARY
  5
22
330
21
100
AcDbDictionary
280
     1
281
     1
  3
BUMPTILE
360
24
  3
DIFFUSETILE
360
23
  3
OPACITYTILE
360
27
  3
REFLECTIONTILE
360
26
  3
REFRACTIONTILE
360
28
  3
SPECULARTILE
360
25
  0
DICTIONARY
  5
18D
330
65
100
AcDbDictionary
280
     1
281
     1
  3
ACAD_ROUNDTRIP_2008_TABLESTYLE_CELLSTYLEMAP
360
18E
  0
XRECORD
  5
1C
102
{ACAD_REACTORS
330
1A
102
}
330
1A
100
AcDbXrecord
280
     1
270
     1
271
     1
  0
XRECORD
  5
1B
102
{ACAD_REACTORS
330
1A
102
}
330
1A
100
AcDbXrecord
280
     1
270
     1
271
     1
  0
XRECORD
  5
1F
102
{ACAD_REACTORS
330
1A
102
}
330
1A
100
AcDbXrecord
280
     1
270
     1
271
     1
  0
XRECORD
  5
1E
102
{ACAD_REACTORS
330
1A
102
}
330
1A
100
AcDbXrecord
280
     1
270
     1
271
     1
  0
XRECORD
  5
20
102
{ACAD_REACTORS
330
1A
102
}
330
1A
100
AcDbXrecord
280
     1
270
     1
271
     1
  0
XRECORD
  5
1D
102
{ACAD_REACTORS
330
1A
102
}
330
1A
100
AcDbXrecord
280
     1
270
     1
271
     1
  0
XRECORD
  5
14
102
{ACAD_REACTORS
330
12
102
}
330
12
100
AcDbXrecord
280
     1
270
     1
271
     1
  0
XRECORD
  5
13
102
{ACAD_REACTORS
330
12
102
}
330
12
100
AcDbXrecord
280
     1
270
     1
271
     1
  0
XRECORD
  5
17
102
{ACAD_REACTORS
330
12
102
}
330
12
100
AcDbXrecord
280
     1
270
     1
271
     1
  0
XRECORD
  5
16
102
{ACAD_REACTORS
330
12
102
}
330
12
100
AcDbXrecord
280
     1
270
     1
271
     1
  0
XRECORD
  5
18
102
{ACAD_REACTORS
330
12
102
}
330
12
100
AcDbXrecord
280
     1
270
     1
271
     1
  0
XRECORD
  5
15
102
{ACAD_REACTORS
330
12
102
}
330
12
100
AcDbXrecord
280
     1
270
     1
271
     1
  0
XRECORD
  5
24
102
{ACAD_REACTORS
330
22
102
}
330
22
100
AcDbXrecord
280
     1
270
     1
271
     1
  0
XRECORD
  5
23
102
{ACAD_REACTORS
330
22
102
}
330
22
100
AcDbXrecord
280
     1
270
     1
271
     1
  0
XRECORD
  5
27
102
{ACAD_REACTORS
330
22
102
}
330
22
100
AcDbXrecord
280
     1
270
     1
271
     1
  0
XRECORD
  5
26
102
{ACAD_REACTORS
330
22
102
}
330
22
100
AcDbXrecord
280
     1
270
     1
271
     1
  0
XRECORD
  5
28
102
{ACAD_REACTORS
330
22
102
}
330
22
100
AcDbXrecord
280
     1
270
     1
271
     1
  0
XRECORD
  5
25
102
{ACAD_REACTORS
330
22
102
}
330
22
100
AcDbXrecord
280
     1
270
     1
271
     1
  0
CELLSTYLEMAP
  5
18E
102
{ACAD_REACTORS
330
18D
102
}
330
18D
100
AcDbCellStyleMap
 90
        3
300
CELLSTYLE
  1
TABLEFORMAT_BEGIN
 90
        5
170
     1
 91
        0
 92
    32768
 62
   257
 93
        1
300
CONTENTFORMAT
  1
CONTENTFORMAT_BEGIN
 90
        0
 91
        0
 92
      512
 93
        0
300

 40
0.0
140
1.0
 94
        5
 62
     0
340
55
144
0.25
309
CONTENTFORMAT_END
171
     0
 94
        0
309
TABLEFORMAT_END
  1
CELLSTYLE_BEGIN
 90
        1
 91
        1
300
_TITLE
309
CELLSTYLE_END
300
CELLSTYLE
  1
TABLEFORMAT_BEGIN
 90
        5
170
     1
 91
        0
 92
        0
 62
   257
 93
        1
300
CONTENTFORMAT
  1
CONTENTFORMAT_BEGIN
 90
        0
 91
        0
 92
      512
 93
        0
300

 40
0.0
140
1.0
 94
        5
 62
     0
340
55
144
0.18
309
CONTENTFORMAT_END
171
     0
 94
        0
309
TABLEFORMAT_END
  1
CELLSTYLE_BEGIN
 90
        2
 91
        1
300
_HEADER
309
CELLSTYLE_END
300
CELLSTYLE
  1
TABLEFORMAT_BEGIN
 90
        5
170
     1
 91
        0
 92
        0
 62
   257
 93
        1
300
CONTENTFORMAT
  1
CONTENTFORMAT_BEGIN
 90
        0
 91
        0
 92
      512
 93
        0
300

 40
0.0
140
1.0
 94
        2
 62
     0
340
55
144
0.18
309
CONTENTFORMAT_END
171
     0
 94
        0
309
TABLEFORMAT_END
  1
CELLSTYLE_BEGIN
 90
        3
 91
        2
300
_DATA
309
CELLSTYLE_END
  0
ENDSEC
  0
EOF
